SplineFontDB: 3.0
FontName: Sahel-Bold
FullName: Sahel Bold
FamilyName: Sahel
Weight: Bold
Copyright: Copyright (c) 2016 by Saber Rastikerdar. All Rights Reserved.\nBased on DejaVu font.\nNon-Arabic(latin) glyphs and data are imported from Open Sans font under the Apache License, Version 2.0.
Version: 1.0.0-alpha3
ItalicAngle: 0
UnderlinePosition: -500
UnderlineWidth: 100
Ascent: 1638
Descent: 410
InvalidEm: 0
LayerCount: 2
Layer: 0 1 "Back" 1
Layer: 1 1 "Fore" 0
XUID: [1021 502 1027637223 12353010]
UniqueID: 4005534
UseUniqueID: 1
FSType: 0
OS2Version: 1
OS2_WeightWidthSlopeOnly: 0
OS2_UseTypoMetrics: 1
CreationTime: 1431850356
ModificationTime: 1470226338
PfmFamily: 17
TTFWeight: 700
TTFWidth: 5
LineGap: 0
VLineGap: 0
Panose: 2 11 6 3 3 8 4 2 2 4
OS2TypoAscent: 2350
OS2TypoAOffset: 0
OS2TypoDescent: -1200
OS2TypoDOffset: 0
OS2TypoLinegap: 0
OS2WinAscent: 2350
OS2WinAOffset: 0
OS2WinDescent: 1200
OS2WinDOffset: 0
HheadAscent: 2350
HheadAOffset: 0
HheadDescent: -1200
HheadDOffset: 0
OS2SubXSize: 1331
OS2SubYSize: 1433
OS2SubXOff: 0
OS2SubYOff: 286
OS2SupXSize: 1331
OS2SupYSize: 1433
OS2SupXOff: 0
OS2SupYOff: 983
OS2StrikeYSize: 102
OS2StrikeYPos: 530
OS2Vendor: 'PfEd'
OS2CodePages: 00000040.20080000
OS2UnicodeRanges: 00002000.80000000.00000008.00000000
Lookup: 1 9 0 "'fina' Terminal Forms in Arabic lookup 9" { "'fina' Terminal Forms in Arabic lookup 9 subtable"  } ['fina' ('arab' <'KUR ' 'SND ' 'URD ' 'dflt' > ) ]
Lookup: 1 9 0 "'medi' Medial Forms in Arabic lookup 11" { "'medi' Medial Forms in Arabic lookup 11 subtable"  } ['medi' ('arab' <'KUR ' 'SND ' 'URD ' 'dflt' > ) ]
Lookup: 1 9 0 "'init' Initial Forms in Arabic lookup 13" { "'init' Initial Forms in Arabic lookup 13 subtable"  } ['init' ('arab' <'KUR ' 'SND ' 'URD ' 'dflt' > ) ]
Lookup: 4 1 1 "'rlig' Required Ligatures in Arabic lookup 14" { "'rlig' Required Ligatures in Arabic lookup 14 subtable"  } ['rlig' ('arab' <'KUR ' 'dflt' > ) ]

StartChar: afii57388
Encoding: 1548 1548 2
Width: 747
VWidth: 3395
GlyphClass: 2
Flags: W
LayerCount: 2
Fore
SplineSet
361.768554688 348.022460938 m 1,0,1
 463.129882812 332.797851562 463.129882812 332.797851562 498.432617188 275.934570312 c 0,2,3
 528.196289062 228.265625 528.196289062 228.265625 528.399414062 180.0546875 c 0,4,5
 528.194335938 6.146484375 528.194335938 6.146484375 359.6640625 4.2666015625 c 0,6,7
 160.198242188 2.1337890625 160.198242188 2.1337890625 180.82421875 244.2265625 c 0,8,9
 203.931640625 520.530273438 203.931640625 520.530273438 500.436523438 702.393554688 c 0,10,11
 548.462890625 731.728515625 548.462890625 731.728515625 567.543945312 706.612304688 c 0,12,13
 585.795898438 680.529296875 585.795898438 680.529296875 555.8359375 658.154296875 c 0,14,15
 417.263671875 553.596679688 417.263671875 553.596679688 373.588867188 426.075195312 c 0,16,17
 360.73046875 389.331054688 360.73046875 389.331054688 361.768554688 348.022460938 c 1,0,1
EndSplineSet
EndChar

StartChar: uni0615
Encoding: 1557 1557 3
Width: 0
VWidth: 3443
GlyphClass: 4
Flags: W
AnchorPoint: "Anchor-10" 770.381 1861.45 mark 0
AnchorPoint: "Anchor-9" 770.381 1861.45 mark 0
AnchorPoint: "Anchor-1" 770.381 2954.63 basemark 0
AnchorPoint: "Anchor-1" 770.381 1861.45 mark 0
LayerCount: 2
Fore
SplineSet
696.004882812 2135.57226562 m 1,0,-1
 777.061523438 2135.57226562 l 2,1,2
 872.924804688 2135.51367188 872.924804688 2135.51367188 936.592773438 2154.29394531 c 0,3,4
 952.661132812 2159.03320312 952.661132812 2159.03320312 966.75390625 2164.84082031 c 128,-1,5
 980.846679688 2170.64648438 980.846679688 2170.64648438 993.095703125 2177.59375 c 128,-1,6
 1005.34472656 2184.54003906 1005.34472656 2184.54003906 1015.63769531 2192.68457031 c 128,-1,7
 1025.93066406 2200.82714844 1025.93066406 2200.82714844 1034.14648438 2210.09667969 c 0,8,9
 1059.23339844 2237.74609375 1059.23339844 2237.74609375 1059.65625 2281.87402344 c 0,10,11
 1060.03320312 2301.56054688 1060.03320312 2301.56054688 1056.01953125 2316.04296875 c 128,-1,12
 1052.00683594 2330.52539062 1052.00683594 2330.52539062 1042.54394531 2339.66210938 c 128,-1,13
 1033.11425781 2348.76757812 1033.11425781 2348.76757812 1018.31152344 2352.45703125 c 128,-1,14
 1003.50683594 2356.14746094 1003.50683594 2356.14746094 983.454101562 2355.49511719 c 0,15,16
 970.155273438 2355.17675781 970.155273438 2355.17675781 955.147460938 2350.72753906 c 128,-1,17
 940.139648438 2346.27929688 940.139648438 2346.27929688 923.061523438 2337.82324219 c 0,18,19
 914.625976562 2333.64453125 914.625976562 2333.64453125 905.794921875 2328.44726562 c 128,-1,20
 896.965820312 2323.24902344 896.965820312 2323.24902344 887.763671875 2317.04492188 c 128,-1,21
 878.560546875 2310.84082031 878.560546875 2310.84082031 868.997070312 2303.66210938 c 128,-1,22
 859.43359375 2296.48242188 859.43359375 2296.48242188 849.420898438 2288.26757812 c 0,23,24
 778.036132812 2229.78417969 778.036132812 2229.78417969 711.391601562 2153.24316406 c 2,25,-1
 696.004882812 2135.57226562 l 1,0,-1
1160.86230469 2190.74902344 m 0,26,27
 1093.32714844 2016.40332031 1093.32714844 2016.40332031 727.262695312 2016.17675781 c 2,28,-1
 413.799804688 2015.98339844 l 1,29,-1
 351.418945312 2135.57226562 l 1,30,-1
 494.572265625 2135.57226562 l 1,31,-1
 494.572265625 2806.609375 l 1,32,-1
 615.650390625 2806.609375 l 1,33,-1
 615.650390625 2208.01660156 l 1,34,-1
 634.849609375 2233.60644531 l 2,35,36
 688.560546875 2305.19921875 688.560546875 2305.19921875 748.819335938 2363.89355469 c 0,37,38
 793.977539062 2407.58203125 793.977539062 2407.58203125 836.131835938 2436.44042969 c 128,-1,39
 878.287109375 2465.29785156 878.287109375 2465.29785156 916.291992188 2479.04101562 c 128,-1,40
 954.296875 2492.78320312 954.296875 2492.78320312 988.96484375 2492.22949219 c 0,41,42
 1061.69628906 2490.86132812 1061.69628906 2490.86132812 1109.0078125 2459.19238281 c 0,43,44
 1124.609375 2448.74707031 1124.609375 2448.74707031 1136.88085938 2435.27148438 c 128,-1,45
 1149.15039062 2421.79492188 1149.15039062 2421.79492188 1158.28710938 2404.95410156 c 128,-1,46
 1167.42480469 2388.11328125 1167.42480469 2388.11328125 1173.38671875 2367.84667969 c 0,47,48
 1185.875 2326.63769531 1185.875 2326.63769531 1182.70996094 2282.60742188 c 0,49,50
 1181.65136719 2267.85839844 1181.65136719 2267.85839844 1178.8828125 2252.76757812 c 128,-1,51
 1176.11523438 2237.67578125 1176.11523438 2237.67578125 1171.60839844 2222.14941406 c 128,-1,52
 1167.10058594 2206.62402344 1167.10058594 2206.62402344 1160.86230469 2190.74902344 c 0,26,27
EndSplineSet
EndChar

StartChar: uni061B
Encoding: 1563 1563 4
Width: 748
VWidth: 3395
GlyphClass: 2
Flags: W
LayerCount: 2
Fore
SplineSet
181.864257812 175.999023438 m 128,-1,1
 181.864257812 249.598632812 181.864257812 249.598632812 233.064453125 300.797851562 c 128,-1,2
 284.263671875 351.998046875 284.263671875 351.998046875 357.86328125 351.998046875 c 128,-1,3
 431.462890625 351.998046875 431.462890625 351.998046875 482.663085938 300.797851562 c 128,-1,4
 533.862304688 249.598632812 533.862304688 249.598632812 533.862304688 175.999023438 c 128,-1,5
 533.862304688 102.399414062 533.862304688 102.399414062 482.663085938 51.19921875 c 128,-1,6
 431.462890625 0 431.462890625 0 357.86328125 0 c 128,-1,7
 284.263671875 0 284.263671875 0 233.064453125 51.19921875 c 128,-1,0
 181.864257812 102.399414062 181.864257812 102.399414062 181.864257812 175.999023438 c 128,-1,1
361.03515625 900.762695312 m 1,8,9
 462.396484375 885.328125 462.396484375 885.328125 497.69921875 828.674804688 c 0,10,11
 527.462890625 780.794921875 527.462890625 780.794921875 527.666015625 732.795898438 c 0,12,13
 527.462890625 558.9296875 527.462890625 558.9296875 358.9296875 557.006835938 c 0,14,15
 159.46484375 554.663085938 159.46484375 554.663085938 180.090820312 796.966796875 c 0,16,17
 203.198242188 1068.79296875 203.198242188 1068.79296875 499.703125 1255.13378906 c 0,18,19
 547.728515625 1285.32519531 547.728515625 1285.32519531 566.810546875 1259.35253906 c 0,20,21
 585.0625 1234.12597656 585.0625 1234.12597656 555.102539062 1210.89453125 c 0,22,23
 416.529296875 1106.12597656 416.529296875 1106.12597656 372.85546875 978.815429688 c 0,24,25
 359.997070312 941.860351562 359.997070312 941.860351562 361.03515625 900.762695312 c 1,8,9
EndSplineSet
EndChar

StartChar: uni061F
Encoding: 1567 1567 5
Width: 1095
VWidth: 3386
GlyphClass: 2
Flags: W
LayerCount: 2
Fore
SplineSet
471.596679688 175.999023438 m 132,-1,1
 471.596679688 249.598632812 471.596679688 249.598632812 522.796875 300.797851562 c 132,-1,2
 573.99609375 351.998046875 573.99609375 351.998046875 647.595703125 351.998046875 c 132,-1,3
 721.1953125 351.998046875 721.1953125 351.998046875 772.39453125 300.797851562 c 132,-1,4
 823.594726562 249.598632812 823.594726562 249.598632812 823.594726562 175.999023438 c 132,-1,5
 823.594726562 102.399414062 823.594726562 102.399414062 772.39453125 51.19921875 c 132,-1,6
 721.1953125 0 721.1953125 0 647.595703125 0 c 132,-1,7
 573.99609375 0 573.99609375 0 522.796875 51.19921875 c 132,-1,0
 471.596679688 102.399414062 471.596679688 102.399414062 471.596679688 175.999023438 c 132,-1,1
840.770507812 1101.56054688 m 5,8,9
 815 1310 815 1310 604.94140625 1310.49414062 c 4,10,11
 486 1311 486 1311 438.680664062 1238.42285156 c 4,12,13
 389 1163 389 1163 423.967773438 1080.83984375 c 4,14,15
 457.840820312 999.3828125 457.840820312 999.3828125 543.33203125 941.262695312 c 6,16,-1
 601.033203125 902.03515625 l 6,17,18
 764.127929688 790.91015625 764.127929688 790.91015625 764.127929688 631.729492188 c 6,19,-1
 764.127929688 605.893554688 l 6,20,21
 764 554.077148438 764 554.077148438 722.794921875 554.077148438 c 6,22,-1
 589.818359375 554.077148438 l 6,23,24
 539.86328125 554 539.86328125 554 539.86328125 604.575195312 c 6,25,-1
 539.86328125 645.87109375 l 6,26,27
 540 710.129882812 540 710.129882812 396.7421875 819.961914062 c 6,28,-1
 312.9140625 884.23046875 l 6,29,30
 141 1016 141 1016 140.279296875 1185.76660156 c 4,31,32
 140.002929688 1408.99511719 140.002929688 1408.99511719 326.998046875 1516.32421875 c 4,33,34
 424 1572 424 1572 563.334960938 1572.16601562 c 4,35,36
 780 1572 780 1572 893.723632812 1412.24707031 c 4,37,38
 962 1316 962 1316 962.103515625 1182.51757812 c 4,39,40
 962 1136 962 1136 959.125 1102.41894531 c 5,41,-1
 840.770507812 1101.56054688 l 5,8,9
EndSplineSet
EndChar

StartChar: uni0621
Encoding: 1569 1569 6
Width: 891
VWidth: 3747
GlyphClass: 2
Flags: W
AnchorPoint: "Anchor-7" 458.756 -188.821 basechar 0
AnchorPoint: "Anchor-10" 436.642 1214.14 basechar 0
LayerCount: 2
Fore
SplineSet
677.978515625 533.27734375 m 2,0,1
 635.775390625 548.149414062 635.775390625 548.149414062 599.321289062 557.6015625 c 128,-1,2
 562.670898438 567.10546875 562.670898438 567.10546875 533.918945312 570.8828125 c 0,3,4
 504.751953125 574.713867188 504.751953125 574.713867188 482.442382812 573.131835938 c 0,5,6
 449.202148438 570.450195312 449.202148438 570.450195312 421.158203125 558.358398438 c 128,-1,7
 393.04296875 546.234375 393.04296875 546.234375 369.62890625 524.504882812 c 0,8,9
 355.663085938 511.3359375 355.663085938 511.3359375 345.419921875 498.946289062 c 0,10,11
 340.1875 492.614257812 340.1875 492.614257812 336.701171875 487.94921875 c 128,-1,12
 333.215820312 483.283203125 333.215820312 483.283203125 331.059570312 479.631835938 c 0,13,14
 326.35546875 471.662109375 326.35546875 471.662109375 325.799804688 467.182617188 c 2,15,-1
 325.657226562 466.034179688 l 1,16,-1
 325.764648438 464.8828125 l 2,17,18
 328.033203125 440.505859375 328.033203125 440.505859375 346.194335938 417.471679688 c 128,-1,19
 364.356445312 394.4375 364.356445312 394.4375 397.555664062 371.834960938 c 0,20,21
 417.948242188 358.223632812 417.948242188 358.223632812 435.40234375 347.193359375 c 0,22,23
 444.15234375 341.663085938 444.15234375 341.663085938 451.349609375 337.258789062 c 128,-1,24
 458.545898438 332.853515625 458.545898438 332.853515625 464.244140625 329.54296875 c 128,-1,25
 470.081054688 326.149414062 470.081054688 326.149414062 474.435546875 323.799804688 c 128,-1,26
 478.790039062 321.451171875 478.790039062 321.451171875 482.032226562 319.967773438 c 2,27,-1
 484.446289062 318.86328125 l 1,28,-1
 487.095703125 319.01953125 l 2,29,30
 528.41796875 321.44921875 528.41796875 321.44921875 625.3125 346.05859375 c 2,31,-1
 726.532226562 371.767578125 l 2,32,33
 727.745117188 372.065429688 727.745117188 372.065429688 729.250976562 372.462890625 c 128,-1,34
 730.754882812 372.860351562 730.754882812 372.860351562 732.569335938 373.361328125 c 128,-1,35
 734.3828125 373.862304688 734.3828125 373.862304688 736.475585938 374.456054688 c 128,-1,36
 738.568359375 375.05078125 738.568359375 375.05078125 741.028320312 375.763671875 c 128,-1,37
 743.409179688 376.453125 743.409179688 376.453125 745.556640625 377.065429688 c 128,-1,38
 747.704101562 377.676757812 747.704101562 377.676757812 749.591796875 378.204101562 c 128,-1,39
 751.48046875 378.731445312 751.48046875 378.731445312 753.1171875 379.17578125 c 128,-1,40
 754.75390625 379.620117188 754.75390625 379.620117188 756.13671875 379.982421875 c 0,41,42
 761.170898438 381.298828125 761.170898438 381.298828125 769.034179688 382.236328125 c 0,43,44
 775.965820312 383.0625 775.965820312 383.0625 780.07421875 382.264648438 c 0,45,46
 783.82421875 381.53515625 783.82421875 381.53515625 788.13671875 378.774414062 c 0,47,48
 789.842773438 377.682617188 789.842773438 377.682617188 791.540039062 375.841796875 c 128,-1,49
 793.235351562 374 793.235351562 374 794.487304688 371.973632812 c 0,50,51
 795.818359375 369.024414062 795.818359375 369.024414062 796.435546875 366.861328125 c 128,-1,52
 797.052734375 364.697265625 797.052734375 364.697265625 797.404296875 361.93359375 c 0,53,54
 798.178710938 355.8515625 798.178710938 355.8515625 797.981445312 352.97265625 c 0,55,56
 797.750976562 349.611328125 797.750976562 349.611328125 795.865234375 338.80859375 c 0,57,58
 794.854492188 333.024414062 794.854492188 333.024414062 794.180664062 328.947265625 c 128,-1,59
 793.505859375 324.869140625 793.505859375 324.869140625 793.139648438 322.3125 c 2,60,-1
 776.399414062 205.590820312 l 1,61,-1
 89.7587890625 16.6728515625 l 1,62,-1
 166.24609375 223.086914062 l 1,63,-1
 253.479492188 247.227539062 l 1,64,-1
 240.823242188 260.1484375 l 2,65,66
 122.708007812 380.728515625 122.708007812 380.728515625 184.891601562 569.9921875 c 0,67,68
 231.483398438 712.266601562 231.483398438 712.266601562 372.108398438 762.899414062 c 0,69,70
 417.13671875 779.107421875 417.13671875 779.107421875 464.252929688 781.625 c 128,-1,71
 511.455078125 784.1484375 511.455078125 784.1484375 559.845703125 773.17578125 c 0,72,73
 584.131835938 767.669921875 584.131835938 767.669921875 608.795898438 758.809570312 c 128,-1,74
 633.459960938 749.950195312 633.459960938 749.950195312 658.517578125 737.713867188 c 0,75,76
 694.248046875 720.28125 694.248046875 720.28125 728.245117188 686.676757812 c 2,77,-1
 732.28515625 682.68359375 l 1,78,-1
 731.227539062 677.103515625 l 2,79,80
 727.098632812 655.3203125 727.098632812 655.3203125 717.165039062 620.869140625 c 128,-1,81
 707.232421875 586.41796875 707.232421875 586.41796875 691.635742188 539.943359375 c 2,82,-1
 688.190429688 529.677734375 l 1,83,-1
 677.978515625 533.27734375 l 2,0,1
EndSplineSet
EndChar

StartChar: uni0627
Encoding: 1575 1575 12
Width: 555
VWidth: 3713
GlyphClass: 2
Flags: W
AnchorPoint: "Anchor-10" 300.382 1690.05 basechar 0
AnchorPoint: "Anchor-7" 314.03 -216.376 basechar 0
LayerCount: 2
Fore
SplineSet
184.674804688 -4.6689453125 m 2,0,1
 184.467494577 1079.04521604 184.467494577 1079.04521604 131.19921875 1415.72558594 c 5,2,-1
 348.797851562 1546.22949219 l 6,3,4
 411 1584 411 1584 413.848632812 1527.99023438 c 4,5,6
 426 1294 426 1294 425.8125 1048.12695312 c 4,7,8
 426 755 426 755 414.7421875 444.434570312 c 0,9,10
 403 126 403 126 364.762695312 50.1328125 c 0,11,12
 330 -19 330 -19 184.676757812 -14.87890625 c 1,13,-1
 184.674804688 -4.6689453125 l 2,0,1
EndSplineSet
Substitution2: "'fina' Terminal Forms in Arabic lookup 9 subtable" uniFE8E
EndChar

StartChar: uni062D
Encoding: 1581 1581 18
Width: 1336
VWidth: 3747
GlyphClass: 2
Flags: W
AnchorPoint: "Anchor-7" 459.069 -834.974 basechar 0
AnchorPoint: "Anchor-10" 604.639 1260.69 basechar 0
LayerCount: 2
Fore
SplineSet
1149.859375 486.396484375 m 1,0,1
 844 445 844 445 644.262695312 343.46484375 c 0,2,3
 303 171 303 171 302.967773438 -83.244140625 c 4,4,5
 303 -358 303 -358 775.9453125 -357.999023438 c 4,6,7
 941 -358 941 -358 1062.21582031 -342.524414062 c 4,8,9
 1210 -324 1210 -324 1213.11816406 -323.709960938 c 4,10,11
 1225 -323 1225 -323 1222.84765625 -354.931640625 c 4,12,13
 1206 -618 1206 -618 1169.47753906 -625.091796875 c 4,14,15
 1044 -649 1044 -649 748.87109375 -649.381835938 c 4,16,17
 437 -649 437 -649 287.336914062 -508.037109375 c 4,18,19
 127 -358 127 -358 127.255859375 -125.077148438 c 4,20,21
 127 311 127 311 456.290039062 512.55859375 c 0,22,23
 595 597 595 597 718.928710938 619.729492188 c 1,24,25
 715 620 715 620 620.262695312 641.595703125 c 0,26,27
 471 676 471 676 400.891601562 676.16796875 c 0,28,29
 303 676 303 676 202.727539062 557.0390625 c 1,30,31
 146 592 146 592 89.8544921875 628.354492188 c 1,32,33
 131 734 131 734 196.84375 812.190429688 c 0,34,35
 300.070697606 935.276683661 300.070697606 935.276683661 428.663085938 935.099609375 c 0,36,37
 504.661256322 934.994958377 504.661256322 934.994958377 995.850585938 787.891601562 c 0,38,39
 1089.21602065 759.930145502 1089.21602065 759.930145502 1233.22851562 757.337890625 c 0,40,41
 1251.48036655 756.990866753 1251.48036655 756.990866753 1245.59863281 741.329101562 c 2,42,-1
 1149.859375 486.396484375 l 1,0,1
EndSplineSet
Substitution2: "'fina' Terminal Forms in Arabic lookup 9 subtable" uniFEA2
Substitution2: "'medi' Medial Forms in Arabic lookup 11 subtable" uniFEA4
Substitution2: "'init' Initial Forms in Arabic lookup 13 subtable" uniFEA3
EndChar

StartChar: uni062F
Encoding: 1583 1583 20
Width: 1027
VWidth: 3745
GlyphClass: 2
Flags: W
AnchorPoint: "Anchor-10" 412.728 1486.38 basechar 0
AnchorPoint: "Anchor-7" 415.616 -217.16 basechar 0
LayerCount: 2
Fore
SplineSet
756.749023438 418.086914062 m 4,0,1
 708 546 708 546 320.53125 839.4609375 c 5,2,-1
 415.962890625 1074.12695312 l 6,3,4
 425 1097 425 1097 440.93359375 1097.11523438 c 4,5,6
 455 1098 455 1098 477.426757812 1078.39355469 c 4,7,8
 841 781 841 781 907.017578125 598.276367188 c 4,9,10
 940 507 940 507 939.779296875 408.330078125 c 4,11,12
 939 304 939 304 904.375 227.986328125 c 4,13,14
 798 2 798 2 430.111328125 1.9580078125 c 0,15,16
 89 2 89 2 85.5634765625 313.928710938 c 0,17,18
 85 361 85 361 110.0859375 459.932617188 c 1,19,-1
 236.326171875 447.432617188 l 1,20,-1
 235.313476562 410.479492188 l 2,21,22
 233 325 233 325 453.783203125 325.033203125 c 0,23,24
 641 325 641 325 736.91015625 382.58203125 c 4,25,26
 764 399 764 399 756.749023438 418.086914062 c 4,0,1
EndSplineSet
Substitution2: "'fina' Terminal Forms in Arabic lookup 9 subtable" uniFEAA
EndChar

StartChar: uni0631
Encoding: 1585 1585 22
Width: 807
VWidth: 3752
GlyphClass: 2
Flags: W
AnchorPoint: "Anchor-7" 276.78 -703.673 basechar 0
AnchorPoint: "Anchor-10" 463.877 1093.88 basechar 0
LayerCount: 2
Fore
SplineSet
582.694335938 622.9296875 m 0,0,1
 619 566 619 566 645.844038996 508 c 0,2,3
 801 175 801 175 676.2734375 -146.512695312 c 4,4,5
 563.667182444 -447.220331679 563.667182444 -447.220331679 195.239257812 -591.474609375 c 0,6,7
 171 -601 171 -601 158.165039062 -582.963867188 c 0,8,9
 26 -404 26 -404 14.6220703125 -380.475585938 c 0,10,11
 1 -352 1 -352 34.7509765625 -338.803710938 c 0,12,13
 506 -160 506 -160 505.340820312 66.474609375 c 0,14,15
 505 157 505 157 362.397460938 405.057617188 c 1,16,17
 504 587 504 587 534.662109375 627 c 0,18,19
 559 659 559 659 582.694335938 622.9296875 c 0,0,1
EndSplineSet
PairPos2: "'kern' Horizontal Kerning lookup 15-1" uniFBFE dx=53 dy=0 dh=53 dv=0 dx=0 dy=0 dh=0 dv=0
PairPos2: "'kern' Horizontal Kerning lookup 15-1" uniFEF3 dx=53 dy=0 dh=53 dv=0 dx=0 dy=0 dh=0 dv=0
PairPos2: "'kern' Horizontal Kerning lookup 15-1" uniFB58 dx=53 dy=0 dh=53 dv=0 dx=0 dy=0 dh=0 dv=0
PairPos2: "'kern' Horizontal Kerning lookup 15-1" uniFB8A dx=-43 dy=0 dh=-43 dv=0 dx=0 dy=0 dh=0 dv=0
PairPos2: "'kern' Horizontal Kerning lookup 15-1" afii57508 dx=-43 dy=0 dh=-43 dv=0 dx=0 dy=0 dh=0 dv=0
PairPos2: "'kern' Horizontal Kerning lookup 15-4" uni0621 dx=-196 dy=0 dh=-196 dv=0 dx=0 dy=0 dh=0 dv=0
PairPos2: "'kern' Horizontal Kerning lookup 15-3" uni0648 dx=-43 dy=0 dh=-43 dv=0 dx=0 dy=0 dh=0 dv=0
PairPos2: "'kern' Horizontal Kerning lookup 15-1" uni0632 dx=-43 dy=0 dh=-43 dv=0 dx=0 dy=0 dh=0 dv=0
PairPos2: "'kern' Horizontal Kerning lookup 15-1" uni0631 dx=-43 dy=0 dh=-43 dv=0 dx=0 dy=0 dh=0 dv=0
PairPos2: "'kern' Horizontal Kerning lookup 15-1" uni06CC dx=-43 dy=0 dh=-43 dv=0 dx=0 dy=0 dh=0 dv=0
PairPos2: "'kern' Horizontal Kerning lookup 15-1" uniFEEB dx=-128 dy=0 dh=-128 dv=0 dx=0 dy=0 dh=0 dv=0
PairPos2: "'kern' Horizontal Kerning lookup 15-1" uniFB7C dx=-115 dy=0 dh=-115 dv=0 dx=0 dy=0 dh=0 dv=0
PairPos2: "'kern' Horizontal Kerning lookup 15-1" uniFEDF dx=-128 dy=0 dh=-128 dv=0 dx=0 dy=0 dh=0 dv=0
PairPos2: "'kern' Horizontal Kerning lookup 15-1" uniFB90 dx=-196 dy=0 dh=-196 dv=0 dx=0 dy=0 dh=0 dv=0
PairPos2: "'kern' Horizontal Kerning lookup 15-1" uni06A9 dx=-196 dy=0 dh=-196 dv=0 dx=0 dy=0 dh=0 dv=0
PairPos2: "'kern' Horizontal Kerning lookup 15-1" uni0649 dx=-43 dy=0 dh=-43 dv=0 dx=0 dy=0 dh=0 dv=0
PairPos2: "'kern' Horizontal Kerning lookup 15-1" uni0647 dx=-128 dy=0 dh=-128 dv=0 dx=0 dy=0 dh=0 dv=0
PairPos2: "'kern' Horizontal Kerning lookup 15-1" uniFEE7 dx=-128 dy=0 dh=-128 dv=0 dx=0 dy=0 dh=0 dv=0
PairPos2: "'kern' Horizontal Kerning lookup 15-1" uniFEE3 dx=-128 dy=0 dh=-128 dv=0 dx=0 dy=0 dh=0 dv=0
PairPos2: "'kern' Horizontal Kerning lookup 15-1" uni0645 dx=-128 dy=0 dh=-128 dv=0 dx=0 dy=0 dh=0 dv=0
PairPos2: "'kern' Horizontal Kerning lookup 15-1" uni0644 dx=-43 dy=0 dh=-43 dv=0 dx=0 dy=0 dh=0 dv=0
PairPos2: "'kern' Horizontal Kerning lookup 15-1" uniFEDB dx=-196 dy=0 dh=-196 dv=0 dx=0 dy=0 dh=0 dv=0
PairPos2: "'kern' Horizontal Kerning lookup 15-1" uniFED7 dx=-128 dy=0 dh=-128 dv=0 dx=0 dy=0 dh=0 dv=0
PairPos2: "'kern' Horizontal Kerning lookup 15-1" uni0642 dx=-43 dy=0 dh=-43 dv=0 dx=0 dy=0 dh=0 dv=0
PairPos2: "'kern' Horizontal Kerning lookup 15-1" uniFED3 dx=-128 dy=0 dh=-128 dv=0 dx=0 dy=0 dh=0 dv=0
PairPos2: "'kern' Horizontal Kerning lookup 15-1" uni0641 dx=-128 dy=0 dh=-128 dv=0 dx=0 dy=0 dh=0 dv=0
PairPos2: "'kern' Horizontal Kerning lookup 15-1" uniFECF dx=-128 dy=0 dh=-128 dv=0 dx=0 dy=0 dh=0 dv=0
PairPos2: "'kern' Horizontal Kerning lookup 15-1" uniFECB dx=-128 dy=0 dh=-128 dv=0 dx=0 dy=0 dh=0 dv=0
PairPos2: "'kern' Horizontal Kerning lookup 15-1" uniFEC7 dx=-128 dy=0 dh=-128 dv=0 dx=0 dy=0 dh=0 dv=0
PairPos2: "'kern' Horizontal Kerning lookup 15-1" uni0638 dx=-128 dy=0 dh=-128 dv=0 dx=0 dy=0 dh=0 dv=0
PairPos2: "'kern' Horizontal Kerning lookup 15-1" uniFEC3 dx=-128 dy=0 dh=-128 dv=0 dx=0 dy=0 dh=0 dv=0
PairPos2: "'kern' Horizontal Kerning lookup 15-1" uni0637 dx=-128 dy=0 dh=-128 dv=0 dx=0 dy=0 dh=0 dv=0
PairPos2: "'kern' Horizontal Kerning lookup 15-1" uniFEBF dx=-128 dy=0 dh=-128 dv=0 dx=0 dy=0 dh=0 dv=0
PairPos2: "'kern' Horizontal Kerning lookup 15-1" uni0636 dx=-128 dy=0 dh=-128 dv=0 dx=0 dy=0 dh=0 dv=0
PairPos2: "'kern' Horizontal Kerning lookup 15-1" uniFEBB dx=-128 dy=0 dh=-128 dv=0 dx=0 dy=0 dh=0 dv=0
PairPos2: "'kern' Horizontal Kerning lookup 15-1" uni0635 dx=-128 dy=0 dh=-128 dv=0 dx=0 dy=0 dh=0 dv=0
PairPos2: "'kern' Horizontal Kerning lookup 15-1" uniFEB7 dx=-128 dy=0 dh=-128 dv=0 dx=0 dy=0 dh=0 dv=0
PairPos2: "'kern' Horizontal Kerning lookup 15-1" uni0634 dx=-128 dy=0 dh=-128 dv=0 dx=0 dy=0 dh=0 dv=0
PairPos2: "'kern' Horizontal Kerning lookup 15-1" uniFEB3 dx=-128 dy=0 dh=-128 dv=0 dx=0 dy=0 dh=0 dv=0
PairPos2: "'kern' Horizontal Kerning lookup 15-1" uni0633 dx=-128 dy=0 dh=-128 dv=0 dx=0 dy=0 dh=0 dv=0
PairPos2: "'kern' Horizontal Kerning lookup 15-1" uni0630 dx=-128 dy=0 dh=-128 dv=0 dx=0 dy=0 dh=0 dv=0
PairPos2: "'kern' Horizontal Kerning lookup 15-1" uni062F dx=-128 dy=0 dh=-128 dv=0 dx=0 dy=0 dh=0 dv=0
PairPos2: "'kern' Horizontal Kerning lookup 15-1" uniFEA7 dx=-128 dy=0 dh=-128 dv=0 dx=0 dy=0 dh=0 dv=0
PairPos2: "'kern' Horizontal Kerning lookup 15-1" uniFEA3 dx=-128 dy=0 dh=-128 dv=0 dx=0 dy=0 dh=0 dv=0
PairPos2: "'kern' Horizontal Kerning lookup 15-1" uniFE9F dx=-128 dy=0 dh=-128 dv=0 dx=0 dy=0 dh=0 dv=0
PairPos2: "'kern' Horizontal Kerning lookup 15-1" uniFE9B dx=-128 dy=0 dh=-128 dv=0 dx=0 dy=0 dh=0 dv=0
PairPos2: "'kern' Horizontal Kerning lookup 15-1" uni062B dx=-128 dy=0 dh=-128 dv=0 dx=0 dy=0 dh=0 dv=0
PairPos2: "'kern' Horizontal Kerning lookup 15-1" uniFE97 dx=-128 dy=0 dh=-128 dv=0 dx=0 dy=0 dh=0 dv=0
PairPos2: "'kern' Horizontal Kerning lookup 15-1" uni062A dx=-128 dy=0 dh=-128 dv=0 dx=0 dy=0 dh=0 dv=0
PairPos2: "'kern' Horizontal Kerning lookup 15-1" uni0629 dx=-128 dy=0 dh=-128 dv=0 dx=0 dy=0 dh=0 dv=0
PairPos2: "'kern' Horizontal Kerning lookup 15-1" uniFE91 dx=-53 dy=0 dh=-53 dv=0 dx=0 dy=0 dh=0 dv=0
PairPos2: "'kern' Horizontal Kerning lookup 15-1" uni0628 dx=-128 dy=0 dh=-128 dv=0 dx=0 dy=0 dh=0 dv=0
PairPos2: "'kern' Horizontal Kerning lookup 15-1" uni0627 dx=-196 dy=0 dh=-196 dv=0 dx=0 dy=0 dh=0 dv=0
PairPos2: "'kern' Horizontal Kerning lookup 15-1" uni0622 dx=-196 dy=0 dh=-196 dv=0 dx=0 dy=0 dh=0 dv=0
PairPos2: "'kern' Horizontal Kerning lookup 15-1" uniFB94 dx=-196 dy=0 dh=-196 dv=0 dx=0 dy=0 dh=0 dv=0
PairPos2: "'kern' Horizontal Kerning lookup 15-1" afii57509 dx=-196 dy=0 dh=-196 dv=0 dx=0 dy=0 dh=0 dv=0
PairPos2: "'kern' Horizontal Kerning lookup 15-1" uniFB56 dx=-128 dy=0 dh=-128 dv=0 dx=0 dy=0 dh=0 dv=0
PairPos2: "'kern' Horizontal Kerning lookup 15-1" afii57506 dx=-128 dy=0 dh=-128 dv=0 dx=0 dy=0 dh=0 dv=0
Substitution2: "'fina' Terminal Forms in Arabic lookup 9 subtable" uniFEAE
EndChar

StartChar: uni0633
Encoding: 1587 1587 24
Width: 2375
VWidth: 3752
GlyphClass: 2
Flags: W
AnchorPoint: "Anchor-7" 476.413 -796.399 basechar 0
AnchorPoint: "Anchor-10" 648.869 989.425 basechar 0
LayerCount: 2
Fore
SplineSet
1944.14746094 -1.568359375 m 20,0,1
 1743 -2 1743 -2 1659.7578125 164.436523438 c 5,2,3
 1552 -3 1552 -3 1454.71289062 -0.3935546875 c 28,4,5
 1385 1 1385 1 1311.94921875 46.9755859375 c 5,6,7
 1301 -260 1301 -260 1090.52734375 -417.408203125 c 4,8,9
 932 -535 932 -535 681.1953125 -535.462890625 c 4,10,11
 369 -536 369 -536 224.62890625 -380.7578125 c 0,12,13
 59 -202 59 -202 96.7783203125 107.759765625 c 0,14,15
 114 249 114 249 199.50390625 438.202148438 c 1,16,-1
 337.973632812 399.137695312 l 1,17,18
 230 40 230 40 348.421875 -106.606445312 c 0,19,20
 453 -236 453 -236 687.120117188 -234.6015625 c 4,21,22
 983 -233 983 -233 1099.61328125 -54.3388671875 c 4,23,24
 1142 11 1142 11 1121.35839844 79.0244140625 c 4,25,26
 1078 222 1078 222 998.926757812 360.258789062 c 5,27,-1
 1135.77636719 565.330078125 l 6,28,29
 1157.1115847 598.171764352 1157.1115847 598.171764352 1182.60058594 549.330078125 c 6,30,-1
 1198.54003906 518.787109375 l 6,31,32
 1259 403 1259 403 1303.45800781 363.197265625 c 4,33,34
 1347 325 1347 325 1423.73632812 326.440429688 c 20,35,36
 1565.7132365 328.994840627 1565.7132365 328.994840627 1586.07421875 503.458007812 c 6,37,-1
 1600.86425781 630.186523438 l 5,38,-1
 1743.29492188 630.186523438 l 5,39,-1
 1757.69824219 492.244140625 l 6,40,41
 1776 320 1776 320 1947.07910156 322.696289062 c 20,42,43
 2046 324 2046 324 2065.97558594 397.553710938 c 4,44,45
 2078 442 2078 442 2062.86035156 493.129882812 c 4,46,47
 2041 562 2041 562 1983.53125 688.560546875 c 5,48,-1
 2129.43945312 874.159179688 l 6,49,50
 2160 913 2160 913 2184.06347656 874.159179688 c 4,51,52
 2284 706 2284 706 2284.32910156 536.028320312 c 4,53,54
 2284 292 2284 292 2165.55664062 137.94140625 c 4,55,56
 2060 -1 2060 -1 1944.14746094 -1.568359375 c 20,0,1
EndSplineSet
Substitution2: "'fina' Terminal Forms in Arabic lookup 9 subtable" uniFEB2
Substitution2: "'medi' Medial Forms in Arabic lookup 11 subtable" uniFEB4
Substitution2: "'init' Initial Forms in Arabic lookup 13 subtable" uniFEB3
EndChar

StartChar: uni0635
Encoding: 1589 1589 26
Width: 2623
VWidth: 3753
GlyphClass: 2
Flags: W
AnchorPoint: "Anchor-7" 378.28 -775.066 basechar 0
AnchorPoint: "Anchor-10" 648.869 989.425 basechar 0
LayerCount: 2
Fore
SplineSet
1816.41601562 0.013671875 m 2,0,-1
 1581.61816406 0 l 2,1,2
 1415 -0 1415 -0 1311.87890625 44.2880859375 c 1,3,4
 1301 -261 1301 -261 1090.52734375 -417.408203125 c 0,5,6
 932 -535 932 -535 681.224609375 -535.462890625 c 4,7,8
 368 -535 368 -535 224.629882812 -380.759765625 c 0,9,10
 59 -202 59 -202 96.7783203125 107.759765625 c 0,11,12
 114 249 114 249 199.348632812 437.854492188 c 1,13,-1
 338.098632812 399.551757812 l 1,14,15
 230 40 230 40 348.421875 -106.606445312 c 0,16,17
 453 -236 453 -236 687.120117188 -234.6015625 c 0,18,19
 985 -233 985 -233 1099.61328125 -54.3388671875 c 0,20,21
 1141 10 1141 10 1121.37597656 78.9365234375 c 0,22,23
 1082 219 1082 219 997.860351562 360.258789062 c 1,24,-1
 1138.49707031 569.596679688 l 2,25,26
 1157.11421009 598.175320653 1157.11421009 598.175320653 1176.48535156 559.99609375 c 2,27,-1
 1202.79199219 508.147460938 l 2,28,29
 1292.13795255 332.729149436 1292.13795255 332.729149436 1427.72460938 327.46484375 c 2,30,-1
 1444.92871094 326.796875 l 1,31,32
 1560 483 1560 483 1642.6640625 574.223632812 c 0,33,34
 1932 892 1932 892 2194.66113281 891.5546875 c 0,35,36
 2408.87239549 891.005455125 2408.87239549 891.005455125 2498.09570312 725.489257812 c 0,37,38
 2521 683 2521 683 2529.1484375 627.595703125 c 0,39,40
 2555 448 2555 448 2464.80761719 301.98046875 c 0,41,42
 2276 0 2276 0 1816.41601562 0.013671875 c 2,0,-1
1606.83984375 326.057617188 m 1,43,-1
 1906.9453125 326.057617188 l 2,44,45
 2250 326 2250 326 2309.47460938 380.854492188 c 0,46,47
 2347 415 2347 415 2336.609375 471.922851562 c 0,48,49
 2312 613 2312 613 2116.31347656 610.240234375 c 0,50,51
 1888 607 1888 607 1606.83984375 326.057617188 c 1,43,-1
EndSplineSet
Substitution2: "'fina' Terminal Forms in Arabic lookup 9 subtable" uniFEBA
Substitution2: "'medi' Medial Forms in Arabic lookup 11 subtable" uniFEBC
Substitution2: "'init' Initial Forms in Arabic lookup 13 subtable" uniFEBB
EndChar

StartChar: uni0637
Encoding: 1591 1591 28
Width: 1637
VWidth: 3753
GlyphClass: 2
Flags: W
AnchorPoint: "Anchor-10" 517.041 1660.66 basechar 0
AnchorPoint: "Anchor-7" 756.64 -211.868 basechar 0
LayerCount: 2
Fore
SplineSet
622.962890625 326.057617188 m 1,0,-1
 923.068359375 326.057617188 l 2,1,2
 1263.9921875 326.3984375 1263.9921875 326.3984375 1325.59765625 380.854492188 c 0,3,4
 1363.19140625 414.930664062 1363.19140625 414.930664062 1352.73242188 471.922851562 c 0,5,6
 1327.9921875 613.329101562 1327.9921875 613.329101562 1132.43652344 610.240234375 c 0,7,8
 904.52734375 606.9296875 904.52734375 606.9296875 622.962890625 326.057617188 c 1,0,-1
675.1953125 570.93359375 m 1,9,10
 971 892 971 892 1210.78417969 891.5546875 c 0,11,12
 1425 891 1425 891 1514.21875 725.489257812 c 0,13,14
 1537 683 1537 683 1545.27148438 627.595703125 c 0,15,16
 1572 448 1572 448 1480.93164062 301.98046875 c 0,17,18
 1292.0252927 0.0404267996403 1292.0252927 0.0404267996403 832.540039062 0.013671875 c 2,19,-1
 597.741210938 0 l 2,20,-1
 292.168945312 -0.7431640625 l 1,21,22
 162 132 162 132 99.9697265625 228.2421875 c 0,23,24
 39.0700728456 323.889945014 39.0700728456 323.889945014 157.869140625 323.922851562 c 2,25,-1
 464.594726562 324.0078125 l 1,26,27
 463 623 463 623 438.698242188 1005.86035156 c 0,28,29
 420 1303 420 1303 396.797851562 1417.85839844 c 5,30,-1
 616.529296875 1546.36328125 l 6,31,32
 675.1953125 1581.1156987 675.1953125 1581.1156987 675.1953125 1506.92382812 c 6,33,-1
 675.1953125 570.93359375 l 1,9,10
EndSplineSet
Substitution2: "'fina' Terminal Forms in Arabic lookup 9 subtable" uniFEC2
Substitution2: "'medi' Medial Forms in Arabic lookup 11 subtable" uniFEC4
Substitution2: "'init' Initial Forms in Arabic lookup 13 subtable" uniFEC3
EndChar

StartChar: uni0639
Encoding: 1593 1593 30
Width: 1289
VWidth: 3747
GlyphClass: 2
Flags: W
AnchorPoint: "Anchor-7" 422.803 -847.774 basechar 0
AnchorPoint: "Anchor-10" 710.718 1507.34 basechar 0
LayerCount: 2
Fore
SplineSet
95.255859375 -125.077148438 m 4,0,1
 95 261 95 261 399.490234375 450.263671875 c 1,2,-1
 369.502929688 481.830078125 l 1,3,4
 268 601 268 601 268.370117188 739.821289062 c 0,5,6
 269 827 269 827 290.821289062 883.462890625 c 0,7,8
 367 1078 367 1078 539.729492188 1143.4375 c 0,9,10
 599 1166 599 1166 678.706054688 1166.04296875 c 0,11,12
 860 1166 860 1166 1024.90722656 1006.63574219 c 1,13,-1
 970.66015625 853.328125 l 1,14,15
 869 902 869 902 724.795898438 904.52734375 c 0,16,17
 572 907 572 907 500.263671875 839.4609375 c 0,18,19
 441 784 441 784 440.530273438 743.861328125 c 0,20,21
 441 686 441 686 533.330078125 621.329101562 c 0,22,23
 626 557 626 557 653.329101562 556.796875 c 0,24,25
 681 557 681 557 931.880859375 600.333007812 c 1,26,-1
 1088.04882812 617.970703125 l 2,27,28
 1119 621 1119 621 1124.28417969 606.857421875 c 0,29,30
 1129.81214725 594.422564372 1129.81214725 594.422564372 1123.953125 572.026367188 c 2,31,-1
 1060.90332031 331.017578125 l 1,32,33
 714 326 714 326 480.356445312 209.15625 c 0,34,35
 271 105 271 105 270.967773438 -83.244140625 c 20,36,37
 271 -358 271 -358 743.9453125 -357.999023438 c 4,38,39
 909 -358 909 -358 1030.21679688 -342.524414062 c 4,40,41
 1178 -324 1178 -324 1181.11914062 -323.709960938 c 4,42,43
 1193 -323 1193 -323 1190.84765625 -354.931640625 c 4,44,45
 1178 -617 1178 -617 1137.47753906 -625.091796875 c 4,46,47
 1012 -649 1012 -649 716.87109375 -649.381835938 c 4,48,49
 405 -649 405 -649 255.336914062 -508.037109375 c 4,50,51
 95 -358 95 -358 95.255859375 -125.077148438 c 4,0,1
369.502929688 481.830078125 m 1,52,-1
 369.663085938 481.643554688 l 1,53,-1
 369.502929688 481.830078125 l 1,52,-1
EndSplineSet
Substitution2: "'fina' Terminal Forms in Arabic lookup 9 subtable" uniFECA
Substitution2: "'medi' Medial Forms in Arabic lookup 11 subtable" uniFECC
Substitution2: "'init' Initial Forms in Arabic lookup 13 subtable" uniFECB
EndChar

StartChar: afii57440
Encoding: 1600 1600 32
Width: 245
VWidth: 3780
GlyphClass: 2
Flags: W
AnchorPoint: "Anchor-10" 134.433 1552.41 basechar 0
AnchorPoint: "Anchor-7" 119.767 -224.603 basechar 0
LayerCount: 2
Fore
SplineSet
-22.033203125 0 m 1,0,-1
 -22.033203125 324.264648438 l 1,1,-1
 269.0078125 324.264648438 l 1,2,-1
 269.0078125 0 l 1,3,-1
 -22.033203125 0 l 1,0,-1
EndSplineSet
EndChar

StartChar: uni0643
Encoding: 1603 1603 35
Width: 1979
VWidth: 3713
GlyphClass: 2
Flags: W
AnchorPoint: "Anchor-10" 607.587 1612.12 basechar 0
AnchorPoint: "Anchor-7" 589.161 -196.523 basechar 0
LayerCount: 2
Fore
SplineSet
900.345703125 0 m 0,0,1
 479 0 479 0 297.043945312 99.7861328125 c 0,2,3
 27 248 27 248 102.208984375 652.392578125 c 0,4,5
 121 753 121 753 185.948242188 882.258789062 c 1,6,-1
 303.756835938 839.514648438 l 1,7,8
 237 592 237 592 308.166992188 486.340820312 c 0,9,10
 414 331 414 331 798.890625 322.103515625 c 0,11,12
 1335 309 1335 309 1564.86230469 457.896484375 c 0,13,14
 1607 485 1607 485 1613.59570312 559.025390625 c 0,15,16
 1623 681 1623 681 1604.67285156 1051.01660156 c 0,17,18
 1590 1339 1590 1339 1577.45703125 1427.85839844 c 1,19,-1
 1789.72167969 1556.08691406 l 2,20,21
 1840.23242187 1587.12888262 1840.23242187 1587.12888262 1840.23242188 1517.99023438 c 6,22,-1
 1840.23242188 719.482421875 l 1,23,24
 1858 298 1858 298 1642.27734375 156.51953125 c 0,25,26
 1404 0 1404 0 900.345703125 0 c 0,0,1
1188.62890625 831.897460938 m 0,27,28
 1084.11914062 665.220703125 1084.11914062 665.220703125 770.228515625 737.866210938 c 0,29,30
 744.010742188 743.932617188 744.010742188 743.932617188 705.485351562 756.251953125 c 1,31,-1
 721.161132812 916.826171875 l 1,32,33
 839.124023438 874.677734375 839.124023438 874.677734375 970.741210938 876.220703125 c 128,-1,34
 1102.35742188 877.764648438 1102.35742188 877.764648438 1111.640625 938.583984375 c 0,35,36
 1117.5390625 977.2890625 1117.5390625 977.2890625 983.55078125 1006.21875 c 0,37,38
 802.991210938 1045.30078125 802.991210938 1045.30078125 807.143554688 1221.62988281 c 0,39,40
 813.056640625 1413.23925781 813.056640625 1413.23925781 1133.56640625 1453.41308594 c 0,41,42
 1172.48632812 1459.50976562 1172.48632812 1459.50976562 1183.9296875 1442.45703125 c 128,-1,43
 1195.46484375 1425.27148438 1195.46484375 1425.27148438 1186.90625 1406.23632812 c 1,44,-1
 1148.17675781 1295.39550781 l 1,45,46
 1027.33203125 1283.44824219 1027.33203125 1283.44824219 966.467773438 1262.52246094 c 128,-1,47
 905.602539062 1241.59765625 905.602539062 1241.59765625 904.629882812 1204.53320312 c 0,48,49
 904.05859375 1181.92675781 904.05859375 1181.92675781 939.124023438 1168.46582031 c 128,-1,50
 974.189453125 1155.00292969 974.189453125 1155.00292969 1047.00195312 1142.28808594 c 0,51,52
 1214.73242188 1112.98632812 1214.73242188 1112.98632812 1218.22949219 949.673828125 c 0,53,54
 1219.92382812 881.813476562 1219.92382812 881.813476562 1188.62890625 831.897460938 c 0,27,28
EndSplineSet
Substitution2: "'fina' Terminal Forms in Arabic lookup 9 subtable" uniFEDA
Substitution2: "'medi' Medial Forms in Arabic lookup 11 subtable" uniFEDC
Substitution2: "'init' Initial Forms in Arabic lookup 13 subtable" uniFEDB
EndChar

StartChar: uni0644
Encoding: 1604 1604 36
Width: 1404
VWidth: 3753
GlyphClass: 2
Flags: W
AnchorPoint: "Anchor-10" 603.865 1235.21 basechar 0
AnchorPoint: "Anchor-7" 566.819 -840.816 basechar 0
LayerCount: 2
Fore
SplineSet
1275.49902344 96.1328125 m 2,0,1
 1279.95854235 -150.05308221 1279.95854235 -150.05308221 1145.51171875 -322.198242188 c 0,2,3
 999 -509 999 -509 693.665039062 -509.453125 c 0,4,5
 369 -510 369 -510 224.629882812 -354.359375 c 0,6,7
 59 -175 59 -175 96.7783203125 134.161132812 c 0,8,9
 114 275 114 275 199.50390625 464.603515625 c 1,10,-1
 337.973632812 425.5390625 l 1,11,12
 229 65 229 65 348.421875 -80.205078125 c 0,13,14
 454 -210 454 -210 707.133789062 -208.200195312 c 0,15,16
 942 -206 942 -206 1031.80078125 -58.12109375 c 0,17,18
 1066 -1 1066 -1 1061.38085938 94.5751953125 c 0,19,20
 1031 657 1031 657 968.126953125 1407.19238281 c 5,21,-1
 1169 1532.43847656 l 6,22,23
 1248.58799929 1581.74475772 1248.58799929 1581.74475772 1250.28613281 1488 c 6,24,-1
 1275.49902344 96.1328125 l 2,0,1
EndSplineSet
Substitution2: "'fina' Terminal Forms in Arabic lookup 9 subtable" uniFEDE
Substitution2: "'medi' Medial Forms in Arabic lookup 11 subtable" uniFEE0
Substitution2: "'init' Initial Forms in Arabic lookup 13 subtable" uniFEDF
EndChar

StartChar: uni0645
Encoding: 1605 1605 37
Width: 1175
VWidth: 3783
GlyphClass: 2
Flags: W
AnchorPoint: "Anchor-10" 626.993 1305.53 basechar 0
AnchorPoint: "Anchor-7" 248.265 -846.432 basechar 0
LayerCount: 2
Fore
SplineSet
701.862304688 862.466796875 m 1048,0,-1
306.05859375 89.890625 m 1,1,-1
 321.46484375 -417.46484375 l 6,2,3
 326 -550 326 -550 176.3359375 -689 c 4,4,5
 112.969435297 -748.028472264 112.969435297 -748.028472264 109.525390625 -662 c 6,6,-1
 95.9599609375 -323.150390625 l 6,7,8
 82 29 82 29 112.723632812 149.848632812 c 0,9,10
 160 333 160 333 334.247070312 398.030273438 c 1,11,12
 394 627 394 627 482.455078125 739.1953125 c 0,13,14
 580 863 580 863 701.862304688 862.466796875 c 0,15,16
 973 861 973 861 1087.53320312 462.848632812 c 0,17,18
 1101 416 1101 416 1074.87011719 320.8046875 c 0,19,20
 1043 207 1043 207 994.348632812 142.416992188 c 0,21,22
 942 74 942 74 904.52734375 56.3525390625 c 0,23,24
 889 49 889 49 860.794921875 53.873046875 c 0,25,26
 416 130 416 130 306.05859375 89.890625 c 1,1,-1
910.658203125 368.154296875 m 0,27,28
 904.52734375 458.6640625 904.52734375 458.6640625 814.306640625 547.971679688 c 0,29,30
 735.995117188 625.0625 735.995117188 625.0625 647.189453125 608.447265625 c 0,31,32
 595.196289062 598.396484375 595.196289062 598.396484375 547.470703125 532.576171875 c 0,33,34
 494.930664062 460.796875 494.930664062 460.796875 478.250976562 406.674804688 c 1,35,36
 634.651367188 396.934570312 634.651367188 396.934570312 724.057617188 382.14453125 c 0,37,38
 840.528320312 362.6640625 840.528320312 362.6640625 857.720703125 360.508789062 c 0,39,40
 888.52734375 356.264648438 888.52734375 356.264648438 889.594726562 356.442382812 c 0,41,42
 910.927734375 357.331054688 910.927734375 357.331054688 910.658203125 368.154296875 c 0,27,28
EndSplineSet
Substitution2: "'init' Initial Forms in Arabic lookup 13 subtable" uniFEE3
Substitution2: "'medi' Medial Forms in Arabic lookup 11 subtable" uniFEE4
Substitution2: "'fina' Terminal Forms in Arabic lookup 9 subtable" uniFEE2
EndChar

StartChar: uni0647
Encoding: 1607 1607 39
Width: 893
VWidth: 3746
GlyphClass: 2
Flags: W
AnchorPoint: "Anchor-10" 380.569 1299.48 basechar 0
AnchorPoint: "Anchor-7" 436.886 -216.833 basechar 0
LayerCount: 2
Fore
SplineSet
376.999023438 630.21484375 m 1,0,1
 222 424 222 424 278.994140625 358.59765625 c 0,2,3
 321 310 321 310 449.438476562 310.532226562 c 0,4,5
 616.924207929 310.99701458 616.924207929 310.99701458 639.177734375 406.046875 c 4,6,7
 649 447 649 447 618.6328125 490.791992188 c 0,8,9
 587 538 587 538 503 577.882584508 c 0,10,11
 498.468313523 578.740582527 498.468313523 578.740582527 410.23828125 616.73046875 c 0,12,13
 398 622 398 622 376.999023438 630.21484375 c 1,0,1
814.286132812 448.146484375 m 0,14,15
 822 241 822 241 716.874023438 120.763671875 c 0,16,17
 613 2 613 2 445.875976562 5.89453125 c 0,18,19
 272 10 272 10 184.440429688 105.731445312 c 0,20,21
 93 205 93 205 92.2705078125 395.118164062 c 0,22,23
 91 599 91 599 320.274414062 886.396484375 c 0,24,25
 352 926 352 926 394.9140625 910.887695312 c 0,26,27
 663 814 663 814 769.157226562 604.279296875 c 0,28,29
 812 520 812 520 814.286132812 448.146484375 c 0,14,15
EndSplineSet
Substitution2: "'fina' Terminal Forms in Arabic lookup 9 subtable" uniFEEA
Substitution2: "'medi' Medial Forms in Arabic lookup 11 subtable" uniFEEC
Substitution2: "'init' Initial Forms in Arabic lookup 13 subtable" uniFEEB
EndChar

StartChar: uni0648
Encoding: 1608 1608 40
Width: 864
VWidth: 3781
GlyphClass: 2
Flags: W
AnchorPoint: "Anchor-10" 418.254 1175.47 basechar 0
AnchorPoint: "Anchor-7" 335.318 -714.909 basechar 0
LayerCount: 2
Fore
SplineSet
722.2734375 -145.512695312 m 4,0,1
 623 -442 623 -442 245.239257812 -591.474609375 c 0,2,3
 221 -601 221 -601 208.165039062 -582.963867188 c 0,4,5
 66 -383 66 -383 64.6220703125 -380.475585938 c 0,6,7
 51 -352 51 -352 84.7509765625 -338.803710938 c 0,8,9
 478 -189 478 -189 541 -2 c 9,10,-1
 458.74609375 -2.5302734375 l 2,11,12
 253 -4 253 -4 168.731445312 94.9326171875 c 0,13,14
 65 217 65 217 147.3984375 502.396484375 c 0,15,16
 193 660 193 660 271.130859375 732.795898438 c 0,17,18
 334 791 334 791 425.686523438 793.365234375 c 0,19,20
 605 798 605 798 695.708007812 597.471679688 c 0,21,22
 775 423 775 423 774.236328125 172 c 0,23,24
 773.824483362 9.93057651539 773.824483362 9.93057651539 722.2734375 -145.512695312 c 4,0,1
588.087890625 320.495117188 m 1,25,26
 531 550 531 550 374.59765625 525.86328125 c 0,27,28
 313 516 313 516 288.198242188 442.6640625 c 0,29,30
 253 336 253 336 382.063476562 322.130859375 c 0,31,32
 450.838867188 314.248046875 450.838867188 314.248046875 506.86328125 316.797851562 c 2,33,-1
 588.087890625 320.495117188 l 1,25,26
EndSplineSet
Substitution2: "'fina' Terminal Forms in Arabic lookup 9 subtable" uniFEEE
EndChar

StartChar: uni0649
Encoding: 1609 1609 41
Width: 1523
VWidth: 3753
GlyphClass: 2
Flags: W
AnchorPoint: "Anchor-10" 605.179 1101.74 basechar 0
AnchorPoint: "Anchor-7" 542.738 -695.22 basechar 0
LayerCount: 2
Fore
SplineSet
698.869140625 -503.208007812 m 0,0,1
 382 -506 382 -506 224.418945312 -340.608398438 c 0,2,3
 96.2174948318 -206.732127713 96.2174948318 -206.732127713 94.6229801829 15 c 0,4,5
 93 263 93 263 206.90625 468.877929688 c 5,6,-1
 345.061523438 432.513671875 l 1,7,8
 241 124 241 124 308.290039062 -19.16015625 c 0,9,10
 392 -199 392 -199 719 -200.830078125 c 0,11,12
 1051 -203 1051 -203 1199.95214844 -11.20703125 c 0,13,14
 1222.21217661 17.2714492316 1222.21217661 17.2714492316 1193.88378906 22.4697265625 c 2,15,-1
 997.959960938 58.421875 l 16,16,17
 873 79 873 79 820 92.2275390625 c 0,18,19
 735 114 735 114 726.146484375 188 c 0,20,21
 716 274 716 274 756.38671875 422.965820312 c 0,22,23
 834 711 834 711 1048.67675781 811.546875 c 0,24,25
 1233 898 1233 898 1452.12109375 826.237304688 c 1,26,27
 1430 614 1430 614 1411.14941406 536.366210938 c 1,28,-1
 1356.86621094 541.569335938 l 2,29,30
 1044.87877437 572.011828714 1044.87877437 572.011828714 926.287109375 389 c 2,31,-1
 915.291992188 372.032226562 l 1,32,-1
 1236 314 l 2,33,34
 1387 287 1387 287 1400 142 c 0,35,36
 1419 -79 1419 -79 1261 -260.51953125 c 0,37,38
 1053 -500 1053 -500 698.869140625 -503.208007812 c 0,0,1
EndSplineSet
Substitution2: "'fina' Terminal Forms in Arabic lookup 9 subtable" uniFEF0
Substitution2: "'medi' Medial Forms in Arabic lookup 11 subtable" uniFBE9
Substitution2: "'init' Initial Forms in Arabic lookup 13 subtable" uniFBE8
EndChar

StartChar: uni064B
Encoding: 1611 1611 43
Width: -25
VWidth: 2410
GlyphClass: 4
Flags: W
AnchorPoint: "Anchor-10" 637 1160.96 mark 0
AnchorPoint: "Anchor-9" 637 1160.96 mark 0
AnchorPoint: "Anchor-1" 595.196 1734.67 basemark 0
AnchorPoint: "Anchor-1" 637 1160.96 mark 0
LayerCount: 2
Fore
SplineSet
316.614257812 1106.1953125 m 1,0,-1
 316.614257812 1223.98730469 l 1,1,-1
 841.026367188 1438.42578125 l 1,2,-1
 841.026367188 1320.62890625 l 1,3,-1
 316.614257812 1106.1953125 l 1,0,-1
316.614257812 1392.03222656 m 1,4,-1
 316.614257812 1509.82421875 l 1,5,-1
 841.026367188 1724.25878906 l 1,6,-1
 841.026367188 1606.46582031 l 1,7,-1
 316.614257812 1392.03222656 l 1,4,-1
EndSplineSet
EndChar

StartChar: uni064C
Encoding: 1612 1612 44
Width: -25
VWidth: 2410
GlyphClass: 4
Flags: W
AnchorPoint: "Anchor-10" 706.932 1270 mark 0
AnchorPoint: "Anchor-9" 706.932 1270 mark 0
AnchorPoint: "Anchor-1" 593.593 1993.41 basemark 0
AnchorPoint: "Anchor-1" 706.932 1270 mark 0
LayerCount: 2
Fore
SplineSet
682.081054688 1805.66210938 m 0,0,1
 660.557617188 1805.66210938 660.557617188 1805.66210938 644.879882812 1801.59765625 c 128,-1,2
 629.202148438 1797.53515625 629.202148438 1797.53515625 619.087890625 1788.40917969 c 0,3,4
 599.491210938 1770.72753906 599.491210938 1770.72753906 599.491210938 1732.44335938 c 0,5,6
 599.491210938 1704.45019531 599.491210938 1704.45019531 618.01953125 1683.49121094 c 0,7,8
 621.099609375 1680.00683594 621.099609375 1680.00683594 624.765625 1676.73535156 c 128,-1,9
 628.432617188 1673.46289062 628.432617188 1673.46289062 632.646484375 1670.43457031 c 128,-1,10
 636.860351562 1667.40527344 636.860351562 1667.40527344 641.594726562 1664.58105469 c 128,-1,11
 646.329101562 1661.75683594 646.329101562 1661.75683594 651.655273438 1659.11132812 c 128,-1,12
 656.98046875 1656.46582031 656.98046875 1656.46582031 662.752929688 1654.02148438 c 128,-1,13
 668.526367188 1651.578125 668.526367188 1651.578125 674.92578125 1649.25097656 c 0,14,15
 690.80859375 1643.47363281 690.80859375 1643.47363281 719.922851562 1634.2421875 c 2,16,-1
 729.141601562 1631.31933594 l 1,17,-1
 741.2421875 1659.5546875 l 2,18,19
 743.208984375 1664.13964844 743.208984375 1664.13964844 744.838867188 1668.59082031 c 128,-1,20
 746.469726562 1673.04199219 746.469726562 1673.04199219 747.783203125 1677.4296875 c 128,-1,21
 749.096679688 1681.81835938 749.096679688 1681.81835938 750.069335938 1686.0859375 c 0,22,23
 753.012695312 1699.00683594 753.012695312 1699.00683594 753.012695312 1710.78710938 c 0,24,25
 753.012695312 1750.50292969 753.012695312 1750.50292969 739.448242188 1772.296875 c 0,26,27
 725.354492188 1794.9453125 725.354492188 1794.9453125 696.6484375 1803.45605469 c 2,28,-1
 689.288085938 1805.11230469 l 2,29,30
 687.474609375 1805.38574219 687.474609375 1805.38574219 685.671875 1805.52441406 c 128,-1,31
 683.8671875 1805.66210938 683.8671875 1805.66210938 682.081054688 1805.66210938 c 0,0,1
340.79296875 1577.25292969 m 2,32,33
 343.0234375 1544.6171875 343.0234375 1544.6171875 345.484375 1520.01660156 c 128,-1,34
 347.944335938 1495.41601562 347.944335938 1495.41601562 350.864257812 1477.29394531 c 128,-1,35
 353.78515625 1459.171875 353.78515625 1459.171875 357.178710938 1448.05175781 c 0,36,37
 372.751953125 1397.02539062 372.751953125 1397.02539062 397.809570312 1374.20800781 c 0,38,39
 423.864257812 1350.48339844 423.864257812 1350.48339844 461.12109375 1351.37207031 c 0,40,41
 474.05859375 1351.6796875 474.05859375 1351.6796875 487.071289062 1354.04589844 c 128,-1,42
 500.083984375 1356.41113281 500.083984375 1356.41113281 513.017578125 1360.77441406 c 128,-1,43
 525.950195312 1365.13867188 525.950195312 1365.13867188 538.892578125 1371.5 c 0,44,45
 577.370117188 1390.41210938 577.370117188 1390.41210938 616.481445312 1428.26074219 c 0,46,47
 639.139648438 1450.30664062 639.139648438 1450.30664062 656.97265625 1474.29589844 c 128,-1,48
 674.806640625 1498.28515625 674.806640625 1498.28515625 687.754882812 1524.18359375 c 2,49,-1
 695.950195312 1540.58203125 l 1,50,-1
 678.014648438 1544.38574219 l 2,51,52
 546.6640625 1572.22753906 546.6640625 1572.22753906 503.244140625 1678.71679688 c 0,53,54
 499.188476562 1688.66015625 499.188476562 1688.66015625 497.427734375 1701.27050781 c 0,55,56
 496.514648438 1707.80957031 496.514648438 1707.80957031 496.049804688 1715.44726562 c 128,-1,57
 495.584960938 1723.08496094 495.584960938 1723.08496094 495.584960938 1731.76171875 c 0,58,59
 495.584960938 1736.55078125 495.584960938 1736.55078125 495.771484375 1741.20800781 c 128,-1,60
 495.95703125 1745.86035156 495.95703125 1745.86035156 496.33203125 1750.43164062 c 128,-1,61
 496.708007812 1754.99902344 496.708007812 1754.99902344 497.271484375 1759.43359375 c 128,-1,62
 497.833007812 1763.86328125 497.833007812 1763.86328125 498.58984375 1768.20800781 c 128,-1,63
 499.345703125 1772.54394531 499.345703125 1772.54394531 500.290039062 1776.75195312 c 128,-1,64
 501.233398438 1780.95410156 501.233398438 1780.95410156 502.376953125 1785.06738281 c 128,-1,65
 503.517578125 1789.17089844 503.517578125 1789.17089844 504.850585938 1793.14941406 c 0,66,67
 514.295898438 1821.33105469 514.295898438 1821.33105469 529.915039062 1842.81933594 c 128,-1,68
 545.404296875 1864.12792969 545.404296875 1864.12792969 566.268554688 1878.28710938 c 0,69,70
 573.241210938 1883.01855469 573.241210938 1883.01855469 580.795898438 1886.97851562 c 128,-1,71
 588.3515625 1890.94042969 588.3515625 1890.94042969 596.559570312 1894.15527344 c 128,-1,72
 604.76953125 1897.36914062 604.76953125 1897.36914062 613.6015625 1899.81738281 c 0,73,74
 640.26953125 1907.20703125 640.26953125 1907.20703125 671.807617188 1907.20703125 c 0,75,76
 687.68359375 1907.20703125 687.68359375 1907.20703125 702.268554688 1905.42285156 c 128,-1,77
 716.853515625 1903.63867188 716.853515625 1903.63867188 730.112304688 1900.08398438 c 128,-1,78
 743.370117188 1896.52832031 743.370117188 1896.52832031 755.3359375 1891.25585938 c 128,-1,79
 767.302734375 1885.984375 767.302734375 1885.984375 778.094726562 1878.95996094 c 0,80,81
 799.659179688 1864.92675781 799.659179688 1864.92675781 815.517578125 1844.34960938 c 128,-1,82
 831.375976562 1823.77441406 831.375976562 1823.77441406 841.69921875 1796.21972656 c 0,83,84
 854.559570312 1761.88964844 854.559570312 1761.88964844 854.559570312 1717.96484375 c 0,85,86
 854.559570312 1696.23144531 854.559570312 1696.23144531 851.177734375 1674.6328125 c 128,-1,87
 847.79296875 1653.0078125 847.79296875 1653.0078125 841.048828125 1631.609375 c 2,88,-1
 835.53125 1614.15527344 l 1,89,-1
 853.821289062 1613.19140625 l 2,90,91
 857.268554688 1613.00976562 857.268554688 1613.00976562 861.227539062 1612.83203125 c 128,-1,92
 865.186523438 1612.65332031 865.186523438 1612.65332031 869.668945312 1612.47851562 c 0,93,94
 878.608398438 1612.12988281 878.608398438 1612.12988281 889.692382812 1611.79199219 c 128,-1,95
 900.767578125 1611.45410156 900.767578125 1611.45410156 913.823242188 1611.13378906 c 2,96,-1
 924.229492188 1610.87890625 l 1,97,-1
 924.229492188 1509.22167969 l 1,98,-1
 913.392578125 1509.39550781 l 2,99,100
 907.142578125 1509.49609375 907.142578125 1509.49609375 901.515625 1509.62207031 c 128,-1,101
 895.88671875 1509.74804688 895.88671875 1509.74804688 890.912109375 1509.8984375 c 128,-1,102
 885.9375 1510.05078125 885.9375 1510.05078125 881.59765625 1510.22851562 c 0,103,104
 868.719726562 1510.75195312 868.719726562 1510.75195312 860.600585938 1511.56738281 c 2,105,-1
 788.852539062 1518.46386719 l 1,106,-1
 785.657226562 1511.66210938 l 2,107,108
 754.583007812 1445.5078125 754.583007812 1445.5078125 709.958007812 1392.48339844 c 0,109,110
 698.8046875 1379.22949219 698.8046875 1379.22949219 686.720703125 1366.67285156 c 128,-1,111
 674.63671875 1354.11523438 674.63671875 1354.11523438 661.608398438 1342.2421875 c 128,-1,112
 648.581054688 1330.37109375 648.581054688 1330.37109375 634.608398438 1319.18554688 c 128,-1,113
 620.634765625 1307.99902344 620.634765625 1307.99902344 605.717773438 1297.50195312 c 0,114,115
 584.107421875 1282.29589844 584.107421875 1282.29589844 561.845703125 1272.17773438 c 128,-1,116
 539.583007812 1262.05859375 539.583007812 1262.05859375 516.700195312 1256.99511719 c 128,-1,117
 493.817382812 1251.93164062 493.817382812 1251.93164062 470.083984375 1251.82128906 c 0,118,119
 419.283203125 1251.58496094 419.283203125 1251.58496094 381.7734375 1271.68554688 c 128,-1,120
 344.264648438 1291.78808594 344.264648438 1291.78808594 318.620117188 1332.84863281 c 0,121,122
 266.134765625 1416.88867188 266.134765625 1416.88867188 263.116210938 1576.32324219 c 2,123,-1
 262.911132812 1587.19238281 l 1,124,-1
 340.112304688 1587.19238281 l 1,125,-1
 340.79296875 1577.25292969 l 2,32,33
EndSplineSet
EndChar

StartChar: uni064D
Encoding: 1613 1613 45
Width: -24
VWidth: 2238
GlyphClass: 4
Flags: W
AnchorPoint: "Anchor-7" 534.761 78.3467 mark 0
AnchorPoint: "Anchor-6" 534.761 78.3467 mark 0
AnchorPoint: "Anchor-0" 614.975 -447.912 basemark 0
AnchorPoint: "Anchor-0" 534.761 78.3467 mark 0
LayerCount: 2
Fore
SplineSet
292.295898438 -501.247070312 m 1,0,-1
 292.295898438 -379.267578125 l 1,1,-1
 789.810546875 -175.830078125 l 1,2,-1
 789.810546875 -297.807617188 l 1,3,-1
 292.295898438 -501.247070312 l 1,0,-1
292.295898438 -236.584960938 m 1,4,-1
 292.295898438 -114.604492188 l 1,5,-1
 789.810546875 88.8330078125 l 1,6,-1
 789.810546875 -33.1455078125 l 1,7,-1
 292.295898438 -236.584960938 l 1,4,-1
EndSplineSet
EndChar

StartChar: uni064E
Encoding: 1614 1614 46
Width: -24
VWidth: 2238
GlyphClass: 4
Flags: W
AnchorPoint: "Anchor-10" 541.027 1322.21 mark 0
AnchorPoint: "Anchor-9" 541.027 1322.21 mark 0
AnchorPoint: "Anchor-1" 520.452 1636.68 basemark 0
AnchorPoint: "Anchor-1" 541.027 1322.21 mark 0
LayerCount: 2
Fore
SplineSet
257.552734375 1284.96972656 m 1,0,-1
 257.552734375 1406.95019531 l 1,1,-1
 755.068359375 1610.38769531 l 1,2,-1
 755.068359375 1488.40917969 l 1,3,-1
 257.552734375 1284.96972656 l 1,0,-1
EndSplineSet
EndChar

StartChar: uni064F
Encoding: 1615 1615 47
Width: -24
VWidth: 2238
GlyphClass: 4
Flags: W
AnchorPoint: "Anchor-10" 597.961 1269.3 mark 0
AnchorPoint: "Anchor-9" 597.961 1269.3 mark 0
AnchorPoint: "Anchor-1" 528.853 1866.09 basemark 0
AnchorPoint: "Anchor-1" 597.961 1269.3 mark 0
LayerCount: 2
Fore
SplineSet
801.198242188 1416.79785156 m 1,0,-1
 670.861328125 1425.10449219 l 1,1,2
 535.331538268 1245.37305247 535.331538268 1245.37305247 295.880859375 1232.47363281 c 1,3,-1
 295.880859375 1328.54003906 l 1,4,5
 454.280933268 1335.9662314 454.280933268 1335.9662314 547.580078125 1437.87109375 c 1,6,-1
 562.380859375 1453.45898438 l 1,7,8
 491.268159188 1476.53889213 491.268159188 1476.53889213 467.583298344 1497.33145778 c 0,9,10
 402.835747102 1554.17231149 402.835747102 1554.17231149 402.634670426 1609.62521824 c 0,11,12
 402.282826597 1706.65667625 402.282826597 1706.65667625 470.28515625 1762.04296875 c 0,13,14
 506.891601562 1792.03027344 506.891601562 1792.03027344 569.723632812 1792.21679688 c 0,15,16
 636.022708567 1792.04140235 636.022708567 1792.04140235 688.162109375 1740.90429688 c 0,17,18
 736.407302764 1692.86458954 736.407302764 1692.86458954 736.688476562 1611.32128906 c 0,19,20
 736.409462639 1577.25368859 736.409462639 1577.25368859 717.333984375 1515.98339844 c 1,21,-1
 801.198242188 1512.89746094 l 1,22,-1
 801.198242188 1416.79785156 l 1,0,-1
618.934570312 1531.99316406 m 1,23,24
 676.709123408 1683.77163103 676.709123408 1683.77163103 573.666992188 1691.02441406 c 0,25,26
 544.894459733 1693.06010751 544.894459733 1693.06010751 533.248499397 1682.54177251 c 0,27,28
 506.513601508 1658.39549309 506.513601508 1658.39549309 500.09127341 1628.20262935 c 128,-1,29
 493.668945312 1598.00976562 493.668945312 1598.00976562 516.119140625 1578.47705078 c 128,-1,30
 538.569335938 1558.94433594 538.569335938 1558.94433594 563.426269531 1550.41308594 c 128,-1,31
 588.283203125 1541.88183594 588.283203125 1541.88183594 592.151367188 1540.58203125 c 0,32,33
 599.843681942 1537.99721152 599.843681942 1537.99721152 618.934570312 1531.99316406 c 1,23,24
EndSplineSet
EndChar

StartChar: uni0650
Encoding: 1616 1616 48
Width: -24
VWidth: 2238
GlyphClass: 4
Flags: W
AnchorPoint: "Anchor-7" 549.05 -10.6104 mark 0
AnchorPoint: "Anchor-6" 549.05 -10.6104 mark 0
AnchorPoint: "Anchor-0" 595.143 -311.309 basemark 0
AnchorPoint: "Anchor-0" 549.05 -10.6104 mark 0
LayerCount: 2
Fore
SplineSet
302.514648438 -343.879882812 m 1,0,-1
 302.514648438 -221.899414062 l 1,1,-1
 800.029296875 -18.4638671875 l 1,2,-1
 800.029296875 -140.440429688 l 1,3,-1
 302.514648438 -343.879882812 l 1,0,-1
EndSplineSet
EndChar

StartChar: uni0651
Encoding: 1617 1617 49
Width: -24
VWidth: 2238
GlyphClass: 4
Flags: W
AnchorPoint: "Anchor-10" 589.815 1350.35 mark 0
AnchorPoint: "Anchor-9" 589.815 1350.35 mark 0
AnchorPoint: "Anchor-1" 560.134 1785.91 basemark 0
AnchorPoint: "Anchor-1" 589.815 1350.35 mark 0
LayerCount: 2
Fore
SplineSet
332.797851562 1621.32324219 m 1,0,1
 334.483398438 1542.14941406 l 2,2,3
 337.064453125 1439.99121094 337.064453125 1439.99121094 420.564453125 1442.71484375 c 0,4,5
 502.158203125 1445.31640625 502.158203125 1445.31640625 502.795898438 1560.97363281 c 2,6,7
 503.463867188 1682.12304688 l 1,8,9
 538.663085938 1693.85644531 538.663085938 1693.85644531 597.237304688 1699.6484375 c 1,10,11
 598.9296875 1612.25683594 l 2,12,13
 600.529296875 1518.92382812 600.529296875 1518.92382812 684.334960938 1518.70898438 c 0,14,15
 769.318359375 1518.92480469 769.318359375 1518.92480469 765.328125 1625.05664062 c 2,16,17
 762.662109375 1695.98925781 l 1,18,19
 840.528320312 1747.18945312 840.528320312 1747.18945312 856.057617188 1757.20019531 c 1,20,21
 860.794921875 1699.18945312 l 6,22,23
 886.39453125 1380.2578125 886.39453125 1380.2578125 699.999023438 1380.79101562 c 0,24,25
 622.9296875 1381.32421875 622.9296875 1381.32421875 569.970703125 1434.99414062 c 1,26,27
 521.596679688 1319.45800781 521.596679688 1319.45800781 406.82421875 1319.9921875 c 0,28,29
 224.926757812 1320.52539062 224.926757812 1320.52539062 243.830078125 1581.76074219 c 2,30,-1
 249.16015625 1655.42285156 l 1,31,32
 312.53125 1629.85644531 312.53125 1629.85644531 332.797851562 1621.32324219 c 1,0,1
EndSplineSet
EndChar

StartChar: uni0652
Encoding: 1618 1618 50
Width: -31
VWidth: 2796
GlyphClass: 4
Flags: W
AnchorPoint: "Anchor-10" 711.878 1496.59 mark 0
AnchorPoint: "Anchor-9" 711.878 1496.59 mark 0
AnchorPoint: "Anchor-1" 702.956 2089.12 basemark 0
AnchorPoint: "Anchor-1" 711.878 1496.59 mark 0
LayerCount: 2
Fore
SplineSet
810.8359375 1670.25585938 m 0,0,1
 820.818359375 1680.23925781 820.818359375 1680.23925781 828.318359375 1691.26269531 c 128,-1,2
 835.818359375 1702.28515625 835.818359375 1702.28515625 840.735351562 1714.27636719 c 0,3,4
 850.532226562 1738.17285156 850.532226562 1738.17285156 850.532226562 1767.15136719 c 0,5,6
 850.532226562 1824.35253906 850.532226562 1824.35253906 810.837890625 1864.04980469 c 128,-1,7
 771.143554688 1903.74511719 771.143554688 1903.74511719 713.099609375 1903.74511719 c 0,8,9
 698.7578125 1903.74511719 698.7578125 1903.74511719 685.422851562 1901.27246094 c 128,-1,10
 672.0859375 1898.79882812 672.0859375 1898.79882812 659.879882812 1893.88769531 c 128,-1,11
 647.672851562 1888.97753906 647.672851562 1888.97753906 636.609375 1881.60351562 c 128,-1,12
 625.544921875 1874.22851562 625.544921875 1874.22851562 615.787109375 1864.46972656 c 0,13,14
 596.267578125 1844.95019531 596.267578125 1844.95019531 586.388671875 1820.42089844 c 128,-1,15
 576.510742188 1795.89160156 576.510742188 1795.89160156 576.510742188 1767.15136719 c 0,16,17
 576.510742188 1709.10839844 576.510742188 1709.10839844 615.787109375 1669.83398438 c 0,18,19
 635.306640625 1650.31445312 635.306640625 1650.31445312 659.8359375 1640.4375 c 128,-1,20
 684.364257812 1630.55957031 684.364257812 1630.55957031 713.103515625 1630.55957031 c 128,-1,21
 741.85546875 1630.55957031 741.85546875 1630.55957031 766.48828125 1640.54785156 c 128,-1,22
 791.119140625 1650.53613281 791.119140625 1650.53613281 810.8359375 1670.25585938 c 0,0,1
947.844726562 1767.70703125 m 0,23,24
 947.844726562 1743 947.844726562 1743 943.629882812 1720.32421875 c 128,-1,25
 939.413085938 1697.6484375 939.413085938 1697.6484375 930.939453125 1676.8671875 c 128,-1,26
 922.463867188 1656.0859375 922.463867188 1656.0859375 909.7421875 1637.19335938 c 128,-1,27
 897.020507812 1618.30175781 897.020507812 1618.30175781 879.977539062 1601.1484375 c 0,28,29
 846.299804688 1567.25878906 846.299804688 1567.25878906 804.490234375 1550.08105469 c 0,30,31
 783.567382812 1541.48535156 783.567382812 1541.48535156 760.956054688 1537.18457031 c 128,-1,32
 738.344726562 1532.88378906 738.344726562 1532.88378906 713.916015625 1532.88378906 c 0,33,34
 681.438476562 1532.88378906 681.438476562 1532.88378906 651.956054688 1540.53710938 c 128,-1,35
 622.572265625 1548.16601562 622.572265625 1548.16601562 596.466796875 1563.34375 c 128,-1,36
 570.3125 1578.54980469 570.3125 1578.54980469 547.857421875 1601.14941406 c 0,37,38
 479.987304688 1669.45214844 479.987304688 1669.45214844 479.987304688 1767.70703125 c 128,-1,39
 479.987304688 1865.93847656 479.987304688 1865.93847656 547.831054688 1933.79492188 c 128,-1,40
 615.672851562 2001.63671875 615.672851562 2001.63671875 713.916015625 2001.63671875 c 0,41,42
 738.348632812 2001.63671875 738.348632812 2001.63671875 760.96484375 1997.36230469 c 128,-1,43
 783.580078125 1993.08886719 783.580078125 1993.08886719 804.505859375 1984.546875 c 0,44,45
 846.315429688 1967.48046875 846.315429688 1967.48046875 880.000976562 1933.79394531 c 0,46,47
 884.827148438 1928.96679688 884.827148438 1928.96679688 889.314453125 1923.96777344 c 128,-1,48
 893.80078125 1918.96972656 893.80078125 1918.96972656 897.950195312 1913.79882812 c 0,49,50
 906.23828125 1903.46972656 906.23828125 1903.46972656 913.138671875 1892.51269531 c 0,51,52
 915.439453125 1888.86132812 915.439453125 1888.86132812 917.587890625 1885.140625 c 128,-1,53
 919.737304688 1881.41796875 919.737304688 1881.41796875 921.736328125 1877.62792969 c 128,-1,54
 923.733398438 1873.83691406 923.733398438 1873.83691406 925.58203125 1869.97460938 c 0,55,56
 928.353515625 1864.18359375 928.353515625 1864.18359375 930.778320312 1858.24316406 c 128,-1,57
 933.202148438 1852.30371094 933.202148438 1852.30371094 935.282226562 1846.2109375 c 128,-1,58
 937.365234375 1840.11230469 937.365234375 1840.11230469 939.104492188 1833.86816406 c 128,-1,59
 940.84375 1827.62304688 940.84375 1827.62304688 942.241210938 1821.23046875 c 2,60,-1
 946.439453125 1795.0546875 l 2,61,62
 946.719726562 1792.37402344 946.719726562 1792.37402344 946.9453125 1789.67382812 c 128,-1,63
 947.169921875 1786.97363281 947.169921875 1786.97363281 947.338867188 1784.24902344 c 128,-1,64
 947.5078125 1781.52539062 947.5078125 1781.52539062 947.620117188 1778.78027344 c 128,-1,65
 947.732421875 1776.03515625 947.732421875 1776.03515625 947.7890625 1773.265625 c 128,-1,66
 947.844726562 1770.49707031 947.844726562 1770.49707031 947.844726562 1767.70703125 c 0,23,24
EndSplineSet
EndChar

StartChar: uni0653
Encoding: 1619 1619 51
Width: -3
VWidth: 2763
GlyphClass: 4
Flags: W
AnchorPoint: "Anchor-10" 485.314 1570.07 mark 0
AnchorPoint: "Anchor-9" 485.314 1570.07 mark 0
AnchorPoint: "Anchor-1" 455.074 2045.65 basemark 0
AnchorPoint: "Anchor-1" 485.314 1570.07 mark 0
LayerCount: 2
Fore
SplineSet
361.947265625 1668.20605469 m 1,0,1
 276.264648438 1667.18945312 276.264648438 1667.18945312 178.052734375 1578.7578125 c 1,2,3
 145.065429688 1599.99023438 145.065429688 1599.99023438 127.016601562 1624.33496094 c 1,4,5
 186.665039062 1779.18847656 186.665039062 1779.18847656 224.00390625 1814.39550781 c 0,6,7
 270.931640625 1860.25488281 270.931640625 1860.25488281 326.908203125 1859.84277344 c 0,8,9
 382.930664062 1860.25488281 382.930664062 1860.25488281 494.076171875 1845.51660156 c 0,10,11
 652.795898438 1825.05566406 652.795898438 1825.05566406 768.463867188 1853.99023438 c 0,12,13
 831.293945312 1869.67578125 831.293945312 1869.67578125 838.114257812 1855.06347656 c 4,14,15
 842.661132812 1845.32226562 842.661132812 1845.32226562 824.912109375 1816.68847656 c 0,16,17
 774.395507812 1738.65625 774.395507812 1738.65625 717.329101562 1692.25585938 c 128,-1,18
 660.262695312 1645.85644531 660.262695312 1645.85644531 361.947265625 1668.20605469 c 1,0,1
EndSplineSet
EndChar

StartChar: uni0657
Encoding: 1623 1623 54
Width: -34
VWidth: 3019
GlyphClass: 4
Flags: W
AnchorPoint: "Anchor-10" 743.995 1766.13 mark 0
AnchorPoint: "Anchor-9" 743.995 1766.13 mark 0
AnchorPoint: "Anchor-1" 743.995 2725.59 basemark 0
AnchorPoint: "Anchor-1" 743.995 1766.13 mark 0
LayerCount: 2
Fore
SplineSet
331.073242188 2367.95800781 m 1,0,-1
 506.10546875 2356.64648438 l 1,1,2
 578.007550855 2455.44858726 578.007550855 2455.44858726 683.27037699 2519.46794597 c 128,-1,3
 788.533203125 2583.48730469 788.533203125 2583.48730469 845.87109375 2608.62988282 c 128,-1,4
 903.208984375 2633.77246094 903.208984375 2633.77246094 928.913085938 2642.68945312 c 0,5,6
 979.916694295 2660.38375206 979.916694295 2660.38375206 1030.55957031 2664.78710938 c 1,7,-1
 1030.55957031 2538.50976562 l 1,8,9
 901.873024595 2531.21619587 901.873024595 2531.21619587 734.336914062 2400.359375 c 0,10,11
 699.703125 2373.5546875 699.703125 2373.5546875 670.383789062 2342.49804688 c 2,12,-1
 648.336914062 2319.29003906 l 1,13,-1
 679.380859375 2312.37988281 l 2,14,15
 692.34460752 2309.83120801 692.34460752 2309.83120801 741.739198291 2283.49031103 c 0,16,17
 839.111532047 2231.56408649 839.111532047 2231.56408649 861.866210938 2136.63574219 c 0,18,19
 866.072265625 2119.09765625 866.072265625 2119.09765625 866.131835938 2101.39746094 c 0,20,21
 865.950467834 1869.25417826 865.950467834 1869.25417826 641.456054688 1871.32324219 c 0,22,23
 485.679924679 1872.33499763 485.679924679 1872.33499763 434.25 2009.56835938 c 0,24,25
 401.318719512 2097.49152609 401.318719512 2097.49152609 438.010742188 2215.40234375 c 2,26,-1
 444.87890625 2237.47460938 l 1,27,-1
 421.79296875 2238.83886719 l 2,28,29
 378.406015494 2241.40119697 378.406015494 2241.40119697 331.073242188 2241.75488281 c 1,30,-1
 331.073242188 2367.95800781 l 1,0,-1
627.271484375 1997.50878906 m 0,31,32
 736.995117188 1997.50878906 736.995117188 1997.50878906 736.995117188 2089.40332031 c 0,33,34
 736.995117188 2165.25933602 736.995117188 2165.25933602 574.364257812 2216.29296875 c 1,35,-1
 559.092773438 2180.66699219 l 2,36,37
 544.345703125 2146.25976562 544.345703125 2146.25976562 544.345703125 2109.05273437 c 0,38,39
 544.345703125 2032.50749529 544.345703125 2032.50749529 604.412109375 2003.51953125 c 0,40,41
 616.852063128 1997.50878906 616.852063128 1997.50878906 627.271484375 1997.50878906 c 0,31,32
EndSplineSet
EndChar

StartChar: uni065A
Encoding: 1626 1626 55
Width: 1473
VWidth: 3019
GlyphClass: 4
Flags: W
AnchorPoint: "Anchor-10" 743.995 1766.13 mark 0
AnchorPoint: "Anchor-9" 743.995 1766.13 mark 0
AnchorPoint: "Anchor-1" 741.044 2430.38 basemark 0
AnchorPoint: "Anchor-1" 743.995 1766.13 mark 0
LayerCount: 2
Fore
SplineSet
645.026367188 1875.75097656 m 1,0,-1
 378.834960938 2320.76855469 l 1,1,-1
 542.42578125 2320.76855469 l 1,2,-1
 743.995117188 2018.40429688 l 1,3,-1
 945.56640625 2320.76855469 l 1,4,-1
 1109.16015625 2320.76855469 l 1,5,-1
 842.963867188 1875.75097656 l 1,6,-1
 645.026367188 1875.75097656 l 1,0,-1
EndSplineSet
EndChar

StartChar: afii57392
Encoding: 1632 1632 56
Width: 973
VWidth: 3399
GlyphClass: 2
Flags: W
LayerCount: 2
Fore
SplineSet
490.950195312 894.813476562 m 5,0,-1
 758.455078125 627.309570312 l 5,1,-1
 485.200195312 354.053710938 l 5,2,-1
 217.6953125 621.559570312 l 5,3,-1
 490.950195312 894.813476562 l 5,0,-1
EndSplineSet
EndChar

StartChar: afii57393
Encoding: 1633 1633 57
Width: 835
VWidth: 3386
GlyphClass: 2
Flags: W
LayerCount: 2
Fore
SplineSet
630.760742188 301.158203125 m 0,0,1
 634.395507812 99.19921875 634.395507812 99.19921875 621.53125 45.7958984375 c 0,2,3
 617.329101562 28.7998046875 617.329101562 28.7998046875 592.483398438 24.0634765625 c 0,4,5
 568.262695312 19.2001953125 568.262695312 19.2001953125 441.174804688 -2.236328125 c 1,6,-1
 440.307617188 11.61328125 l 2,7,8
 405.063476562 571.729492188 405.063476562 571.729492188 132.797851562 1320.99023438 c 1,9,-1
 317.46875 1483.65722656 l 2,10,11
 334.6640625 1498.65722656 334.6640625 1498.65722656 338.760742188 1497.61035156 c 0,12,13
 351.73046875 1494.390625 351.73046875 1494.390625 359.094726562 1475.28320312 c 0,14,15
 622.662109375 716.795898438 622.662109375 716.795898438 630.760742188 301.158203125 c 0,0,1
EndSplineSet
EndChar

StartChar: afii57394
Encoding: 1634 1634 58
Width: 1175
VWidth: 3386
GlyphClass: 2
Flags: W
LayerCount: 2
Fore
SplineSet
416.086914062 -2.189453125 m 1,0,1
 379.731445312 577.063476562 379.731445312 577.063476562 108.81640625 1324.609375 c 1,2,-1
 293.4765625 1487.29394531 l 2,3,4
 319.998046875 1510.390625 319.998046875 1510.390625 332.09375 1482.83203125 c 0,5,6
 338.130859375 1468.79101562 338.130859375 1468.79101562 350.915039062 1428.85253906 c 128,-1,7
 363.731445312 1388.79101562 363.731445312 1388.79101562 398.681640625 1299.86035156 c 0,8,9
 460.796875 1144.52636719 460.796875 1144.52636719 658.874023438 1147.0859375 c 0,10,11
 893.666992188 1150.92285156 893.666992188 1150.92285156 929.294921875 1443.52050781 c 2,12,-1
 933.958984375 1481.8203125 l 1,13,-1
 1086.55273438 1461.82421875 l 1,14,-1
 1085.4765625 1433.59082031 l 2,15,16
 1062.39355469 817.061523438 1062.39355469 817.061523438 669.713867188 806.258789062 c 0,17,18
 598.396484375 804.26171875 598.396484375 804.26171875 518.091796875 812.215820312 c 1,19,20
 630.396484375 267.731445312 630.396484375 267.731445312 596.323242188 44.2822265625 c 0,21,22
 594.129882812 29.8662109375 594.129882812 29.8662109375 572.262695312 25.06640625 c 128,-1,23
 550.396484375 20.2666015625 550.396484375 20.2666015625 416.086914062 -2.189453125 c 1,0,1
EndSplineSet
EndChar

StartChar: afii57395
Encoding: 1635 1635 59
Width: 1364
VWidth: 3386
GlyphClass: 2
Flags: W
LayerCount: 2
Fore
SplineSet
417.155273438 -2.1875 m 1,0,1
 382 576 382 576 108.764648438 1324.61035156 c 1,2,-1
 293.400390625 1487.26464844 l 2,3,4
 316 1507 316 1507 324.264648438 1495.45703125 c 0,5,6
 334 1480 334 1480 339.198242188 1462.92382812 c 0,7,8
 375 1350 375 1350 395.764648438 1300.93945312 c 4,9,10
 462 1144 462 1144 580.262695312 1144.89453125 c 0,11,12
 595 1145 595 1145 611.95703125 1147.08691406 c 0,13,14
 705.662597329 1155.96802207 705.662597329 1155.96802207 720.885742188 1297.47949219 c 2,15,-1
 736.223632812 1440.05761719 l 1,16,-1
 889.81640625 1433.93554688 l 1,17,-1
 894.767578125 1288.3359375 l 2,18,19
 900 1134 900 1134 1013.70605469 1134.54980469 c 0,20,21
 1076 1135 1076 1135 1097.36621094 1218.12597656 c 0,22,23
 1114.40170432 1280.79889349 1114.40170432 1280.79889349 1121.05957031 1397.32421875 c 2,24,-1
 1124.90820312 1464.68261719 l 1,25,-1
 1277.01660156 1458.31738281 l 1,26,-1
 1278.02929688 1400.52441406 l 2,27,28
 1288 824 1288 824 995.314453125 822.552734375 c 0,29,30
 863 822 863 822 786.797851562 967.185546875 c 1,31,32
 729 803 729 803 516.990234375 818.376953125 c 1,33,34
 631 257 631 257 597.350585938 44.0322265625 c 0,35,36
 595 29 595 29 573.330078125 24.533203125 c 0,37,38
 551 20 551 20 417.155273438 -2.1875 c 1,0,1
EndSplineSet
EndChar

StartChar: afii57396
Encoding: 1636 1636 60
Width: 1002
VWidth: 3393
GlyphClass: 2
Flags: W
LayerCount: 2
Fore
SplineSet
439.280273438 988.71875 m 0,0,1
 594.233398438 895.025390625 594.233398438 895.025390625 731.106445312 835.463867188 c 1,2,3
 733.614257812 796.743164062 733.614257812 796.743164062 735.91796875 760.1875 c 128,-1,4
 738.223632812 723.6328125 738.223632812 723.6328125 740.547851562 685.747070312 c 1,5,6
 699.59765625 668.041992188 699.59765625 668.041992188 662.837890625 650.549804688 c 128,-1,7
 626.076171875 633.059570312 626.076171875 633.059570312 593.24609375 615.65234375 c 128,-1,8
 560.416015625 598.245117188 560.416015625 598.245117188 531.587890625 580.935546875 c 128,-1,9
 502.76171875 563.626953125 502.76171875 563.626953125 477.797851562 546.342773438 c 128,-1,10
 452.833984375 529.056640625 452.833984375 529.056640625 431.685546875 511.75390625 c 0,11,12
 411.620117188 495.510742188 411.620117188 495.510742188 400.1484375 481.584960938 c 128,-1,13
 388.676757812 467.658203125 388.676757812 467.658203125 385.526367188 454.219726562 c 0,14,15
 380.604492188 433.221679688 380.604492188 433.221679688 396.4765625 419.65234375 c 128,-1,16
 412.349609375 406.083984375 412.349609375 406.083984375 442.577148438 399.459960938 c 0,17,18
 650.48828125 355.22265625 650.48828125 355.22265625 874.666992188 362.96875 c 2,19,-1
 885.999023438 363.360351562 l 1,20,-1
 881.11328125 109.096679688 l 2,21,22
 880.116210938 76.6689453125 880.116210938 76.6689453125 864.487304688 58.7421875 c 0,23,24
 849.708984375 41.7900390625 849.708984375 41.7900390625 822.912109375 42.833984375 c 0,25,26
 372.319335938 60.6787109375 372.319335938 60.6787109375 226.438476562 151.986328125 c 0,27,28
 219.904296875 156.056640625 219.904296875 156.056640625 213.858398438 160.265625 c 128,-1,29
 207.8125 164.474609375 207.8125 164.474609375 202.255859375 168.819335938 c 0,30,31
 167.411132812 196.068359375 167.411132812 196.068359375 151.280273438 228.967773438 c 128,-1,32
 135.150390625 261.8671875 135.150390625 261.8671875 137.680664062 301.474609375 c 128,-1,33
 140.211914062 341.08203125 140.211914062 341.08203125 162.530273438 387.754882812 c 128,-1,34
 184.849609375 434.428710938 184.849609375 434.428710938 227.081054688 488.376953125 c 0,35,36
 327.208007812 616.9609375 327.208007812 616.9609375 458.705078125 696.7265625 c 2,37,-1
 475.93359375 707.176757812 l 1,38,-1
 457.60546875 715.548828125 l 2,39,40
 258.2890625 806.592773438 258.2890625 806.592773438 176.438476562 901.650390625 c 0,41,42
 69.548828125 1027.11230469 69.548828125 1027.11230469 177.646484375 1151.08105469 c 0,43,44
 194.502929688 1170.45800781 194.502929688 1170.45800781 215.37109375 1190.2421875 c 128,-1,45
 236.240234375 1210.02636719 236.240234375 1210.02636719 261.129882812 1230.22851562 c 128,-1,46
 286.01953125 1250.43066406 286.01953125 1250.43066406 314.947265625 1271.03222656 c 128,-1,47
 343.875976562 1291.63574219 343.875976562 1291.63574219 376.787109375 1312.61328125 c 128,-1,48
 409.69921875 1333.59277344 409.69921875 1333.59277344 446.682617188 1354.96875 c 128,-1,49
 483.666015625 1376.34570312 483.666015625 1376.34570312 524.595703125 1398.05664062 c 128,-1,50
 565.524414062 1419.76855469 565.524414062 1419.76855469 610.557617188 1441.87304688 c 128,-1,51
 655.590820312 1463.97949219 655.590820312 1463.97949219 704.536132812 1486.37988281 c 0,52,53
 716.35546875 1491.77832031 716.35546875 1491.77832031 725.923828125 1494.55078125 c 0,54,55
 754.185546875 1502.74121094 754.185546875 1502.74121094 758.909179688 1486.12597656 c 0,56,57
 762.416992188 1473.54296875 762.416992188 1473.54296875 760.494140625 1462.03320312 c 0,58,59
 730.557617188 1301.08203125 730.557617188 1301.08203125 700.793945312 1140.42382812 c 1,60,61
 680.952148438 1139.21289062 680.952148438 1139.21289062 660.692382812 1137.00683594 c 128,-1,62
 640.434570312 1134.79882812 640.434570312 1134.79882812 619.71484375 1131.58984375 c 128,-1,63
 598.994140625 1128.38085938 598.994140625 1128.38085938 577.81640625 1124.17871094 c 128,-1,64
 556.63671875 1119.97558594 556.63671875 1119.97558594 534.905273438 1114.7578125 c 128,-1,65
 513.171875 1109.5390625 513.171875 1109.5390625 490.943359375 1103.33105469 c 128,-1,66
 468.71484375 1097.12207031 468.71484375 1097.12207031 445.842773438 1089.88671875 c 0,67,68
 426.635742188 1083.80273438 426.635742188 1083.80273438 414.315429688 1076.61523438 c 128,-1,69
 401.994140625 1069.42871094 401.994140625 1069.42871094 395.991210938 1059.55273438 c 0,70,71
 376.116210938 1026.85742188 376.116210938 1026.85742188 439.280273438 988.71875 c 0,0,1
EndSplineSet
EndChar

StartChar: afii57397
Encoding: 1637 1637 61
Width: 1236
VWidth: 3735
GlyphClass: 2
Flags: W
LayerCount: 2
Fore
SplineSet
583.6484375 1067.265625 m 5,0,1
 311.34765625 732.40625 311.34765625 732.40625 312.860351562 577.063476562 c 24,2,3
 313.59765625 472.530273438 313.59765625 472.530273438 370.005859375 424.436523438 c 0,4,5
 441.59765625 361.59765625 441.59765625 361.59765625 584.805664062 362.859375 c 0,6,7
 767.995117188 364.797851562 767.995117188 364.797851562 835.470703125 417.536132812 c 0,8,9
 923.727539062 485.330078125 923.727539062 485.330078125 921.061523438 596.4453125 c 0,10,11
 918.39453125 758.395507812 918.39453125 758.395507812 583.6484375 1067.265625 c 5,0,1
180.818359375 241.360351562 m 0,12,13
 122.626953125 337.958984375 122.626953125 337.958984375 120.813476562 478.515625 c 0,14,15
 117.375 785.57421875 117.375 785.57421875 438.306640625 1160.28515625 c 6,16,-1
 459.478515625 1185.00488281 l 5,17,-1
 377.282226562 1246.65332031 l 5,18,-1
 520.1015625 1507.57910156 l 1,19,20
 977.197265625 1085.35546875 977.197265625 1085.35546875 1063.83300781 768.458007812 c 0,21,22
 1188.00390625 320.7578125 1188.00390625 320.7578125 913.2109375 127.202148438 c 0,23,24
 787.331054688 39.89453125 787.331054688 39.89453125 577.772460938 41.2861328125 c 0,25,26
 300.450195312 40.548828125 300.450195312 40.548828125 180.818359375 241.360351562 c 0,12,13
EndSplineSet
EndChar

StartChar: afii57398
Encoding: 1638 1638 62
Width: 1308
VWidth: 3396
GlyphClass: 2
Flags: W
LayerCount: 2
Fore
SplineSet
1004.41992188 618.090820312 m 0,0,1
 1018.36132812 527.22265625 1018.36132812 527.22265625 1061 464.127929688 c 128,-1,2
 1103.63769531 401.03515625 1103.63769531 401.03515625 1174.59570312 367.051757812 c 2,3,-1
 1180.125 364.404296875 l 1,4,-1
 1197.11425781 -5.1982421875 l 1,5,-1
 1184.43261719 -3.95703125 l 2,6,7
 883.596679688 25.833984375 883.596679688 25.833984375 821.237304688 342.612304688 c 0,8,9
 761.577148438 647.520507812 761.577148438 647.520507812 752.717773438 1159.82128906 c 2,10,-1
 752.500976562 1172.41992188 l 1,11,-1
 740.111328125 1170.125 l 2,12,13
 555.958007812 1136.01855469 555.958007812 1136.01855469 346.353515625 1141.57617188 c 0,14,15
 199.721679688 1145.4765625 199.721679688 1145.4765625 150.059570312 1194.95019531 c 0,16,17
 101.333984375 1242.86230469 101.333984375 1242.86230469 101.401367188 1503.58007812 c 0,18,19
 101.34765625 1537.32714844 101.34765625 1537.32714844 120.526367188 1539.89648438 c 0,20,21
 130.004882812 1541.08886719 130.004882812 1541.08886719 141.369140625 1537.02441406 c 0,22,23
 455.536132812 1415.65527344 455.536132812 1415.65527344 943.333007812 1488.44726562 c 1,24,25
 963.66796875 883.55859375 963.66796875 883.55859375 1004.41992188 618.090820312 c 0,0,1
EndSplineSet
EndChar

StartChar: afii57399
Encoding: 1639 1639 63
Width: 1376
VWidth: 3397
GlyphClass: 2
Flags: W
LayerCount: 2
Fore
SplineSet
1110.40332031 1482.47070312 m 6,0,-1
 1309.40136719 1303.88964844 l 5,1,2
 920 525 920 525 789.885742188 -2.5146484375 c 5,3,-1
 595.931640625 -2.5146484375 l 5,4,5
 429 639 429 639 66.4267578125 1304.20507812 c 5,6,-1
 244.259765625 1482.4609375 l 6,7,8
 260 1499 260 1499 271.568359375 1489.62304688 c 4,9,10
 275 1487 275 1487 278.024414062 1484.27636719 c 4,11,12
 281 1482 281 1482 282.734375 1478.38964844 c 4,13,14
 473.60436275 1148.95689791 473.60436275 1148.95689791 670.525390625 459.221679688 c 6,15,-1
 681.42578125 421.041992188 l 5,16,-1
 691.125976562 459.543945312 l 6,17,18
 831 1015 831 1015 1069.89160156 1472.71582031 c 4,19,20
 1081 1494 1081 1494 1090.86816406 1492.50976562 c 4,21,22
 1093 1492 1093 1492 1095.47558594 1491.2734375 c 4,23,24
 1097 1490 1097 1490 1099.74511719 1489.63671875 c 4,25,26
 1102 1489 1102 1489 1103.66113281 1487.61425781 c 4,27,28
 1105.14393939 1485.80784693 1105.14393939 1485.80784693 1107.21972656 1485.22070312 c 4,29,30
 1107 1485 1107 1485 1110.40332031 1482.47070312 c 6,0,-1
EndSplineSet
EndChar

StartChar: afii57400
Encoding: 1640 1640 64
Width: 1376
VWidth: 3397
GlyphClass: 2
Flags: W
LayerCount: 2
Fore
SplineSet
1110.40332031 7.5244140625 m 6,0,1
 1107 4.9951171875 1107 4.9951171875 1107.21972656 4.7744140625 c 4,2,3
 1105.14355469 4.1875 1105.14355469 4.1875 1103.66113281 2.380859375 c 4,4,5
 1102 0.9951171875 1102 0.9951171875 1099.74511719 0.3583984375 c 4,6,7
 1097 -0.0048828125 1097 -0.0048828125 1095.47558594 -1.2783203125 c 4,8,9
 1093 -2.0048828125 1093 -2.0048828125 1090.86816406 -2.5146484375 c 4,10,11
 1081 -4.0048828125 1081 -4.0048828125 1069.89160156 17.279296875 c 4,12,13
 831 474.995117188 831 474.995117188 691.125976562 1030.45117188 c 6,14,-1
 681.42578125 1068.953125 l 5,15,-1
 670.525390625 1030.7734375 l 6,16,17
 473.604492188 341.038085938 473.604492188 341.038085938 282.734375 11.60546875 c 4,18,19
 281 7.9951171875 281 7.9951171875 278.024414062 5.71875 c 4,20,21
 275 2.9951171875 275 2.9951171875 271.568359375 0.3720703125 c 4,22,23
 260 -9.0048828125 260 -9.0048828125 244.259765625 7.5341796875 c 6,24,-1
 66.4267578125 185.790039062 l 5,25,26
 429 850.995117188 429 850.995117188 595.931640625 1492.50976562 c 5,27,-1
 789.885742188 1492.50976562 l 5,28,29
 920 964.995117188 920 964.995117188 1309.40136719 186.10546875 c 5,30,-1
 1110.40332031 7.5244140625 l 6,0,1
EndSplineSet
EndChar

StartChar: afii57401
Encoding: 1641 1641 65
Width: 1097
VWidth: 3397
GlyphClass: 2
Flags: W
LayerCount: 2
Fore
SplineSet
642.236328125 664.479492188 m 1,0,1
 343.46484375 619.729492188 343.46484375 619.729492188 208.571289062 709.390625 c 0,2,3
 93.8662109375 786.12890625 93.8662109375 786.12890625 97.6123046875 968.579101562 c 0,4,5
 103.465820312 1240.52539062 103.465820312 1240.52539062 207.642578125 1388.29882812 c 0,6,7
 300.797851562 1519.99023438 300.797851562 1519.99023438 437.331054688 1530.12402344 c 0,8,9
 593.0625 1541.32324219 593.0625 1541.32324219 700.756835938 1418.50878906 c 0,10,11
 824.528320312 1277.85839844 824.528320312 1277.85839844 830.099609375 994.828125 c 0,12,13
 843.728515625 377.59765625 843.728515625 377.59765625 1012.26074219 214.3984375 c 1,14,-1
 831.995117188 0 l 1,15,16
 645.329101562 191.999023438 645.329101562 191.999023438 642.236328125 664.479492188 c 1,0,1
354.185546875 939.197265625 m 0,17,18
 444.796875 907.727539062 444.796875 907.727539062 630.571289062 944.078125 c 1,19,-1
 625.341796875 998.41015625 l 2,20,21
 598.396484375 1273.59179688 598.396484375 1273.59179688 446.338867188 1271.76269531 c 0,22,23
 341.331054688 1270.39160156 341.331054688 1270.39160156 307.271484375 1124.06542969 c 0,24,25
 269.865234375 967.4609375 269.865234375 967.4609375 354.185546875 939.197265625 c 0,17,18
EndSplineSet
EndChar

StartChar: afii57381
Encoding: 1642 1642 66
Width: 1517
VWidth: 3443
GlyphClass: 2
Flags: W
LayerCount: 2
Fore
SplineSet
253.865234375 1270.39160156 m 132,-1,1
 253.865234375 1345.05859375 253.865234375 1345.05859375 306.131835938 1397.32421875 c 132,-1,2
 358.397460938 1449.59082031 358.397460938 1449.59082031 433.063476562 1449.59082031 c 132,-1,3
 507.73046875 1449.59082031 507.73046875 1449.59082031 559.99609375 1397.32421875 c 132,-1,4
 612.262695312 1345.05859375 612.262695312 1345.05859375 612.262695312 1270.39160156 c 132,-1,5
 612.262695312 1195.72558594 612.262695312 1195.72558594 559.99609375 1143.45996094 c 132,-1,6
 507.73046875 1091.19335938 507.73046875 1091.19335938 433.063476562 1091.19335938 c 132,-1,7
 358.397460938 1091.19335938 358.397460938 1091.19335938 306.131835938 1143.45996094 c 132,-1,0
 253.865234375 1195.72558594 253.865234375 1195.72558594 253.865234375 1270.39160156 c 132,-1,1
898.234375 412.158203125 m 128,-1,9
 898.234375 486.82421875 898.234375 486.82421875 950.5 539.090820312 c 128,-1,10
 1002.76660156 591.356445312 1002.76660156 591.356445312 1077.43261719 591.356445312 c 128,-1,11
 1152.09863281 591.356445312 1152.09863281 591.356445312 1204.36523438 539.090820312 c 128,-1,12
 1256.63183594 486.82421875 1256.63183594 486.82421875 1256.63183594 412.158203125 c 128,-1,13
 1256.63183594 337.491210938 1256.63183594 337.491210938 1204.36523438 285.225585938 c 128,-1,14
 1152.09863281 232.958984375 1152.09863281 232.958984375 1077.43261719 232.958984375 c 128,-1,15
 1002.76660156 232.958984375 1002.76660156 232.958984375 950.5 285.225585938 c 128,-1,8
 898.234375 337.491210938 898.234375 337.491210938 898.234375 412.158203125 c 128,-1,9
985.59375 1544.5234375 m 1,16,-1
 1171.68554688 1436.28710938 l 1,17,-1
 439.758789062 18.892578125 l 1,18,-1
 251.305664062 121.880859375 l 1,19,-1
 985.59375 1544.5234375 l 1,16,-1
EndSplineSet
EndChar

StartChar: uni066B
Encoding: 1643 1643 67
Width: 938
VWidth: 3443
GlyphClass: 2
Flags: W
LayerCount: 2
Fore
SplineSet
635.590820312 660.6875 m 1,0,-1
 771.888671875 576.329101562 l 1,1,-1
 188.09765625 -396.537109375 l 1,2,-1
 49.9765625 -304.865234375 l 1,3,-1
 635.590820312 660.6875 l 1,0,-1
EndSplineSet
EndChar

StartChar: uni066C
Encoding: 1644 1644 68
Width: 539
VWidth: 3395
GlyphClass: 2
Flags: W
LayerCount: 2
Fore
SplineSet
239.869140625 -1.298828125 m 1,0,-1
 221.046875 1.623046875 l 1,1,2
 148.841796875 7.564453125 148.841796875 7.564453125 114.071289062 58.40234375 c 0,3,4
 77.25 112.278320312 77.25 112.278320312 92.78125 189.2578125 c 0,5,6
 105.77734375 252.791992188 105.77734375 252.791992188 160.03125 291.109375 c 0,7,8
 213.163085938 327.215820312 213.163085938 327.215820312 281.188476562 315.150390625 c 0,9,10
 297.016601562 312.340820312 297.016601562 312.340820312 311.35546875 306.701171875 c 128,-1,11
 325.693359375 301.0625 325.693359375 301.0625 338.68359375 292.552734375 c 128,-1,12
 351.67578125 284.040039062 351.67578125 284.040039062 363.087890625 272.831054688 c 128,-1,13
 374.500976562 261.62109375 374.500976562 261.62109375 384.255859375 247.758789062 c 0,14,15
 420.950195312 194.889648438 420.950195312 194.889648438 412.697265625 95.8388671875 c 0,16,17
 390.405273438 -165.58203125 390.405273438 -165.58203125 111.823242188 -330.94140625 c 0,18,19
 72.54296875 -354.247070312 72.54296875 -354.247070312 53.4375 -339.1796875 c 0,20,21
 50.2744140625 -336.576171875 50.2744140625 -336.576171875 48.0009765625 -333.780273438 c 128,-1,22
 45.7275390625 -330.983398438 45.7275390625 -330.983398438 44.423828125 -328.227539062 c 0,23,24
 41.8388671875 -322.763671875 41.8388671875 -322.763671875 42.12890625 -318.052734375 c 0,25,26
 42.4677734375 -312.53125 42.4677734375 -312.53125 45.0146484375 -306.806640625 c 0,27,28
 45.9287109375 -304.752929688 45.9287109375 -304.752929688 47 -302.83984375 c 128,-1,29
 48.0712890625 -300.924804688 48.0712890625 -300.924804688 49.2978515625 -299.149414062 c 128,-1,30
 50.5244140625 -297.373046875 50.5244140625 -297.373046875 51.921875 -295.709960938 c 0,31,32
 56.3515625 -290.435546875 56.3515625 -290.435546875 61.8037109375 -286.185546875 c 0,33,34
 139.190429688 -229.180664062 139.190429688 -229.180664062 193.49609375 -143.7265625 c 0,35,36
 240.272460938 -70.3212890625 240.272460938 -70.3212890625 239.922851562 -10.3828125 c 2,37,-1
 239.869140625 -1.298828125 l 1,0,-1
EndSplineSet
EndChar

StartChar: afii63167
Encoding: 1645 1645 69
Width: 1734
VWidth: 3194
GlyphClass: 2
Flags: W
LayerCount: 2
Fore
SplineSet
188.93359375 1176.17675781 m 1,0,-1
 707.16015625 1176.17675781 l 1,1,-1
 868.931640625 1668.70507812 l 1,2,-1
 1030.70117188 1176.17675781 l 1,3,-1
 1548.93066406 1176.17675781 l 1,4,-1
 1130.27539062 870.12890625 l 1,5,-1
 1290.46972656 377.9921875 l 1,6,-1
 868.931640625 682.6015625 l 1,7,-1
 447.390625 377.993164062 l 1,8,-1
 607.583984375 870.12890625 l 1,9,-1
 188.93359375 1176.17675781 l 1,0,-1
EndSplineSet
EndChar

StartChar: uni066E
Encoding: 1646 1646 70
Width: 1843
VWidth: 3753
GlyphClass: 2
Flags: MW
AnchorPoint: "Anchor-10" 782.573 1279.21 basechar 0
AnchorPoint: "Anchor-7" 640.479 -204.823 basechar 0
LayerCount: 2
Fore
SplineSet
303.561523438 839.610351562 m 1,0,1
 241 589 241 589 308.198242188 486.293945312 c 0,2,3
 409 332 409 332 798.93359375 322.102539062 c 0,4,5
 910 319 910 319 1001.76855469 321.15625 c 0,6,7
 1396 328 1396 328 1519.63671875 454.18359375 c 0,8,9
 1550 485 1550 485 1539.60058594 519.205078125 c 0,10,11
 1500 647 1500 647 1441.32324219 772.26171875 c 1,12,-1
 1586.38964844 953.59375 l 2,13,14
 1617 992 1617 992 1643.96386719 942.927734375 c 0,15,16
 1743 766 1743 766 1741.95507812 586.663085938 c 0,17,18
 1741 429 1741 429 1681.32226562 303.998046875 c 0,19,20
 1536 0 1536 0 857.4609375 0 c 4,21,22
 479 0 479 0 297.043945312 99.7861328125 c 0,23,24
 86 216 86 216 86.435546875 490.6640625 c 0,25,26
 87 686 87 686 185.948242188 882.259765625 c 1,27,-1
 303.561523438 839.610351562 l 1,0,1
EndSplineSet
Substitution2: "'init' Initial Forms in Arabic lookup 13 subtable" uni066E.init
Substitution2: "'medi' Medial Forms in Arabic lookup 11 subtable" uni066E.medi
Substitution2: "'fina' Terminal Forms in Arabic lookup 9 subtable" uni066E.fina
EndChar

StartChar: uni066F
Encoding: 1647 1647 71
Width: 1396
VWidth: 3781
GlyphClass: 2
Flags: W
AnchorPoint: "Anchor-10" 541.965 1173.97 basechar 0
AnchorPoint: "Anchor-7" 562.603 -688.546 basechar 0
LayerCount: 2
Fore
SplineSet
1131.14550781 372.791992188 m 1,0,1
 1086.26660156 562.771484375 1086.26660156 562.771484375 943.700195312 558.325195312 c 0,2,3
 871.868164062 556.37109375 871.868164062 556.37109375 842.6484375 478.1640625 c 0,4,5
 820.668945312 420.905273438 820.668945312 420.905273438 843.985351562 387.860351562 c 0,6,7
 869.735351562 352.639648438 869.735351562 352.639648438 971.848632812 352.831054688 c 0,8,9
 1075.60058594 353.706054688 1075.60058594 353.706054688 1131.14550781 372.791992188 c 1,0,1
1299.85058594 163.973632812 m 0,10,11
 1292 -30 1292 -30 1248.87597656 -134.638671875 c 0,12,13
 1124.72551695 -433.928797063 1124.72551695 -433.928797063 691.315429688 -434.130859375 c 4,14,15
 368 -434 368 -434 224.631835938 -279.428710938 c 0,16,17
 58 -100 58 -100 96.7783203125 209.092773438 c 0,18,19
 114 350 114 350 199.50390625 539.53515625 c 1,20,-1
 337.994140625 500.465820312 l 1,21,22
 229 142 229 142 348.421875 -5.2734375 c 0,23,24
 453 -134 453 -134 707.112304688 -133.268554688 c 0,25,26
 1042 -131 1042 -131 1124.984375 37.609375 c 0,27,28
 1135 58 1135 58 1138.73925781 98.60546875 c 1,29,30
 1021 80 1021 80 938.000976562 80.259765625 c 0,31,32
 702 81 702 81 676.669921875 247.040039062 c 0,33,34
 664 327 664 327 682.745117188 446.451171875 c 0,35,36
 710 625 710 625 794.603515625 724.624023438 c 0,37,38
 868 811 868 811 981.734375 811.303710938 c 0,39,40
 1095 812 1095 812 1164.64746094 723.989257812 c 0,41,42
 1315 535 1315 535 1299.85058594 163.973632812 c 0,10,11
EndSplineSet
Substitution2: "'init' Initial Forms in Arabic lookup 13 subtable" uni066F.init
Substitution2: "'medi' Medial Forms in Arabic lookup 11 subtable" uni066F.medi
Substitution2: "'fina' Terminal Forms in Arabic lookup 9 subtable" uni066F.fina
EndChar

StartChar: uni0670
Encoding: 1648 1648 72
Width: 0
VWidth: 2983
GlyphClass: 4
Flags: W
AnchorPoint: "Anchor-10" 756.062 1757.67 mark 0
AnchorPoint: "Anchor-9" 756.062 1757.67 mark 0
AnchorPoint: "Anchor-1" 744.304 2295.04 basemark 0
AnchorPoint: "Anchor-1" 756.062 1757.67 mark 0
LayerCount: 2
Fore
SplineSet
730.2890625 1804.25976562 m 1,0,-1
 674.0234375 2172.31933594 l 5,1,-1
 814.170898438 2255.7734375 l 5,2,-1
 814.170898438 1832.16113281 l 1,3,-1
 730.2890625 1804.25976562 l 1,0,-1
EndSplineSet
EndChar

StartChar: uni0674
Encoding: 1652 1652 73
Width: 802
VWidth: 2763
GlyphClass: 2
Flags: W
LayerCount: 2
Fore
SplineSet
193.499023438 1765.28027344 m 1,0,-1
 217.942382812 1932.86523438 l 1,1,2
 225.065429688 1935.98828125 225.065429688 1935.98828125 280.864257812 1962.21972656 c 2,3,-1
 302.837890625 1972.36230469 l 1,4,-1
 280.525390625 1981.73828125 l 2,5,6
 153.598632812 2035.1875 153.598632812 2035.1875 208.264648438 2214.41699219 c 0,7,8
 262.3984375 2393.58496094 262.3984375 2393.58496094 431.634765625 2393.06640625 c 0,9,10
 531.196289062 2392.51855469 531.196289062 2392.51855469 599.3984375 2330.49121094 c 1,11,-1
 615.150390625 2315.04394531 l 1,12,-1
 572.3515625 2219.36230469 l 1,13,14
 339.499023438 2281.87011719 339.499023438 2281.87011719 306.993164062 2156.45605469 c 0,15,16
 302.931640625 2140.78613281 302.931640625 2140.78613281 307.954101562 2128.69433594 c 0,17,18
 351.266601562 2029.39648438 351.266601562 2029.39648438 548.057617188 2077.32617188 c 0,19,20
 599.462890625 2089.58691406 599.462890625 2089.58691406 607.770507812 2083.61425781 c 28,21,22
 616.606445312 2077.80273438 616.606445312 2077.80273438 616.260742188 2039.9453125 c 2,23,-1
 615.344726562 1939.75585938 l 1,24,25
 421.331054688 1875.18847656 421.331054688 1875.18847656 193.499023438 1765.28027344 c 1,0,-1
EndSplineSet
EndChar

StartChar: uni06A1
Encoding: 1697 1697 77
Width: 1737
VWidth: 3781
GlyphClass: 2
Flags: W
AnchorPoint: "Anchor-10" 744.373 1455.85 basechar 0
AnchorPoint: "Anchor-7" 617.96 -190.295 basechar 0
LayerCount: 2
Fore
SplineSet
1466.0859375 729.4609375 m 5,0,1
 1421.20703125 919.440429688 1421.20703125 919.440429688 1278.640625 914.994140625 c 4,2,3
 1206.80859375 913.040039062 1206.80859375 913.040039062 1177.58886719 834.83203125 c 4,4,5
 1155.60839844 777.57421875 1155.60839844 777.57421875 1178.92578125 744.528320312 c 4,6,7
 1204.67480469 709.307617188 1204.67480469 709.307617188 1306.7890625 709.5 c 4,8,9
 1410.54101562 710.375 1410.54101562 710.375 1466.0859375 729.4609375 c 5,0,1
836.345703125 0 m 2,10,11
 487 0 487 0 300.244140625 104.052734375 c 0,12,13
 28 256 28 256 102.208984375 652.392578125 c 0,14,15
 121 753 121 753 185.948242188 882.258789062 c 1,16,-1
 303.756835938 839.514648438 l 1,17,18
 238 596 238 596 308.154296875 486.359375 c 0,19,20
 414 322 414 322 789 322 c 24,21,22
 797 322 797 322 864.40625 322.072265625 c 4,23,24
 1246 322 1246 322 1348.29394531 348.80078125 c 4,25,26
 1455.66454122 377.909056791 1455.66454122 377.909056791 1463.36425781 441.358398438 c 6,27,-1
 1465.08203125 455.513671875 l 5,28,29
 1346 436 1346 436 1271.81054688 437.16796875 c 4,30,31
 1037 439 1037 439 1010.47851562 603.948242188 c 4,32,33
 998 684 998 684 1016.5546875 803.359375 c 4,34,35
 1045 983 1045 983 1128.41210938 1081.53222656 c 4,36,37
 1202 1168 1202 1168 1315.54296875 1168.21191406 c 4,38,39
 1429 1168 1429 1168 1498.45703125 1080.89746094 c 4,40,41
 1659 882 1659 882 1641.73632812 473.970703125 c 4,42,43
 1632 237 1632 237 1466.65527344 118.322265625 c 4,44,45
 1301 0 1301 0 901.59375 0 c 6,46,-1
 836.345703125 0 l 2,10,11
EndSplineSet
Substitution2: "'init' Initial Forms in Arabic lookup 13 subtable" uni06A1.init
Substitution2: "'medi' Medial Forms in Arabic lookup 11 subtable" uni06A1.medi
Substitution2: "'fina' Terminal Forms in Arabic lookup 9 subtable" uni06A1.fina
EndChar

StartChar: uni06A9
Encoding: 1705 1705 78
Width: 1908
VWidth: 3732
GlyphClass: 2
Flags: W
AnchorPoint: "Anchor-10" 582.151 1467.71 basechar 0
AnchorPoint: "Anchor-7" 589.197 -230.921 basechar 0
LayerCount: 2
Fore
SplineSet
1175.07421875 1064.52050781 m 1,0,1
 1513 770 1513 770 1576.45605469 622.265625 c 0,2,3
 1601 565 1601 565 1601.953125 493.86328125 c 0,4,5
 1603 339 1603 339 1485.40234375 217.561523438 c 0,6,7
 1274 0 1274 0 812.74609375 0 c 4,8,9
 482 0 482 0 300.232421875 99.791015625 c 0,10,11
 89 215 89 215 89.9892578125 492.796875 c 0,12,13
 91 690 91 690 189.262695312 881.0859375 c 1,14,-1
 306.768554688 838.486328125 l 1,15,16
 244 587 244 587 311.3984375 486.293945312 c 0,17,18
 421 320 421 320 802.131835938 322.102539062 c 0,19,20
 1240 325 1240 325 1416.75390625 445.270507812 c 0,21,22
 1431 455 1431 455 1389.59082031 512.530273438 c 0,23,24
 1305 629 1305 629 915.403320312 959.029296875 c 1,25,-1
 989.567382812 1254.46386719 l 1,26,-1
 1818 1550.3125 l 2,27,28
 1867.15725212 1568.0567632 1867.15725212 1568.0567632 1858.51367188 1511 c 2,29,-1
 1825.05859375 1290.16113281 l 1,30,-1
 1175.07421875 1064.52050781 l 1,0,1
EndSplineSet
Substitution2: "'init' Initial Forms in Arabic lookup 13 subtable" uniFB90
Substitution2: "'medi' Medial Forms in Arabic lookup 11 subtable" uniFB91
Substitution2: "'fina' Terminal Forms in Arabic lookup 9 subtable" uniFB8F
EndChar

StartChar: afii57509
Encoding: 1711 1711 79
Width: 1929
VWidth: 3742
GlyphClass: 2
Flags: W
AnchorPoint: "Anchor-10" 592.817 1487.04 basechar 0
AnchorPoint: "Anchor-7" 578.531 -241.588 basechar 0
LayerCount: 2
Fore
SplineSet
1196.07421875 1004.52050781 m 1
 1395 849 1395 849 1482.08007812 720.728515625 c 0
 1574 585 1574 585 1567.18945312 457.063476562 c 24
 1561 327 1561 327 1448.06933594 211.161132812 c 0
 1243 0 1243 0 808.079101562 0 c 4
 483 0 483 0 301.298828125 99.791015625 c 0
 32 246 32 246 106.462890625 652.323242188 c 0
 125 754 125 754 190.329101562 881.0859375 c 1
 307.8359375 838.486328125 l 1
 245 587 245 587 312.46484375 486.293945312 c 0
 423 322 423 322 783.198242188 322.102539062 c 16
 1220 323 1220 323 1382.62109375 445.270507812 c 24
 1393 453 1393 453 1391.13964844 458.6640625 c 0
 1370 525 1370 525 1212.5234375 673.865234375 c 0
 1073 805 1073 805 937.860351562 903.9296875 c 1
 1010.56738281 1194.46386719 l 1
 1839 1490.3125 l 2
 1888.15725212 1508.0567632 1888.15725212 1508.0567632 1879.51367188 1451 c 2
 1846.05859375 1230.16113281 l 1
 1196.07421875 1004.52050781 l 1
EndSplineSet
Refer: 274 -1 N 1.1342 0 0 1.1342 1008.95 -603.254 2
Substitution2: "'init' Initial Forms in Arabic lookup 13 subtable" uniFB94
Substitution2: "'medi' Medial Forms in Arabic lookup 11 subtable" uniFB95
Substitution2: "'fina' Terminal Forms in Arabic lookup 9 subtable" uniFB93
EndChar

StartChar: afii57514
Encoding: 1722 1722 80
Width: 1406
VWidth: 3753
GlyphClass: 2
Flags: W
LayerCount: 2
Fore
SplineSet
1090.51660156 -280.879882812 m 4,0,1
 932 -399 932 -399 681.224609375 -398.930664062 c 4,2,3
 368 -399 368 -399 224.620117188 -244.232421875 c 0,4,5
 59 -65 59 -65 96.7685546875 244.286132812 c 0,6,7
 114 385 114 385 199.493164062 574.73046875 c 1,8,-1
 337.963867188 535.665039062 l 1,9,10
 229 177 229 177 348.411132812 29.921875 c 0,11,12
 453 -99 453 -99 687.110351562 -98.07421875 c 4,13,14
 985 -96 985 -96 1099.60351562 82.1884765625 c 4,15,16
 1141 146 1141 146 1121.36914062 215.448242188 c 4,17,18
 1083 351 1083 351 996.793945312 495.997070312 c 5,19,-1
 1138.75976562 706.12890625 l 6,20,21
 1159 736 1159 736 1185.52734375 693.329101562 c 4,22,23
 1338 450 1338 450 1327.4921875 163.908203125 c 4,24,25
 1317 -113 1317 -113 1090.51660156 -280.879882812 c 4,0,1
EndSplineSet
Substitution2: "'init' Initial Forms in Arabic lookup 13 subtable" uni06BA.init
Substitution2: "'medi' Medial Forms in Arabic lookup 11 subtable" uni06BA.medi
Substitution2: "'fina' Terminal Forms in Arabic lookup 9 subtable" uniFB9F
EndChar

StartChar: uni06F4
Encoding: 1780 1780 87
Width: 1228
VWidth: 3103
GlyphClass: 2
Flags: W
LayerCount: 2
Fore
SplineSet
410.748046875 8.3857421875 m 5,0,1
 377.59765625 572.796875 377.59765625 572.796875 102.375 1319.92285156 c 5,2,-1
 286.931640625 1482.49511719 l 6,3,4
 317.948242188 1509.39648438 317.948242188 1509.39648438 328.727539062 1474.12011719 c 6,5,-1
 356.73828125 1382.44628906 l 6,6,7
 410.727539062 1205.11523438 410.727539062 1205.11523438 519.064453125 1125.67675781 c 6,8,-1
 548.193359375 1104.31738281 l 5,9,10
 532.263671875 1145.59277344 532.263671875 1145.59277344 554.663085938 1262.92578125 c 4,11,12
 571.729492188 1351.45800781 571.729492188 1351.45800781 635.729492188 1420.10449219 c 4,13,14
 718.928710938 1509.32421875 718.928710938 1509.32421875 852.96875 1508.32714844 c 4,15,16
 1006.92675781 1508.25683594 1006.92675781 1508.25683594 1115.51269531 1376.18652344 c 5,17,-1
 1066.89453125 1263.47851562 l 5,18,19
 854.39453125 1346.125 854.39453125 1346.125 745.768554688 1230.81933594 c 4,20,21
 701.862304688 1183.9921875 701.862304688 1183.9921875 697.512695312 1098.66015625 c 4,22,23
 695.461914062 1059.19335938 695.461914062 1059.19335938 745.595703125 1032.95214844 c 4,24,25
 904.52734375 952.52734375 904.52734375 952.52734375 1122.74707031 1050.53125 c 5,26,-1
 1151.99316406 865.061523438 l 5,27,28
 1014.39355469 773.328125 1014.39355469 773.328125 853.328125 773.86328125 c 4,29,30
 631.462890625 774.395507812 631.462890625 774.395507812 509.033203125 852.421875 c 5,31,32
 637.862304688 309.331054688 637.862304688 309.331054688 588.642578125 55.181640625 c 4,33,34
 585.596679688 39.466796875 585.596679688 39.466796875 564.3671875 35.416015625 c 4,35,36
 542.9296875 30.93359375 542.9296875 30.93359375 410.748046875 8.3857421875 c 5,0,1
EndSplineSet
EndChar

StartChar: uni06F5
Encoding: 1781 1781 88
Width: 1290
VWidth: 3183
GlyphClass: 2
Flags: W
LayerCount: 2
Fore
SplineSet
680.916015625 560.608398438 m 1,0,1
 743 292 743 292 914.654296875 301.751953125 c 0,2,3
 919 302 919 302 923.888671875 303.247070312 c 0,4,5
 1025 323 1025 323 1000.1640625 459.260742188 c 0,6,7
 960 686 960 686 594.9453125 1066.75585938 c 1,8,9
 321 670 321 670 278.56640625 439.109375 c 0,10,11
 253 298 253 298 388.485351562 299.44921875 c 4,12,13
 532 301 532 301 596.400390625 562.147460938 c 1,14,-1
 680.916015625 560.608398438 l 1,0,1
365.862304688 9.302734375 m 0,15,16
 101 9 101 9 97.1396484375 322.049804688 c 0,17,18
 93 668 93 668 470.022460938 1240.40429688 c 1,19,-1
 427.796875 1288.53613281 l 1,20,-1
 553.439959151 1483 l 2,21,22
 567.121997254 1504.17635092 567.121997254 1504.17635092 589.562156422 1481 c 0,23,24
 1186.99593902 863.966275196 1186.99593902 863.966275196 1186.77832031 379.869140625 c 0,25,26
 1186 9 1186 9 918.938476562 9.98046875 c 0,27,28
 740.143706691 10.9991812076 740.143706691 10.9991812076 654.360351562 174.780273438 c 2,29,-1
 644.299804688 193.98828125 l 1,30,-1
 635.224609375 174.295898438 l 2,31,32
 559 9 559 9 365.862304688 9.302734375 c 0,15,16
EndSplineSet
EndChar

StartChar: uni06F6
Encoding: 1782 1782 89
Width: 1074
VWidth: 3397
GlyphClass: 2
Flags: W
LayerCount: 2
Fore
SplineSet
438.129882812 681.431640625 m 2,0,1
 121.599609375 737.659179688 121.599609375 737.659179688 121.563476562 1067.27441406 c 0,2,3
 121.599609375 1146.65917969 121.599609375 1146.65917969 156.8984375 1229.95996094 c 0,4,5
 279.46484375 1517.85742188 279.46484375 1517.85742188 554.3125 1517.70703125 c 0,6,7
 711.461914062 1517.85742188 711.461914062 1517.85742188 843.348632812 1400.80273438 c 1,8,-1
 785.998046875 1244.28222656 l 1,9,10
 639.99609375 1283.19238281 639.99609375 1283.19238281 578.663085938 1283.19238281 c 0,11,12
 419.197265625 1283.19238281 419.197265625 1283.19238281 339.301757812 1182.46386719 c 0,13,14
 262.3984375 1085.86035156 262.3984375 1085.86035156 308.265625 1019.26660156 c 0,15,16
 391.45703125 899.205078125 391.45703125 899.205078125 678.35546875 898.127929688 c 2,17,-1
 681.962890625 898.114257812 l 1,18,19
 813.861328125 975.994140625 813.861328125 975.994140625 949.327148438 1036.31054688 c 0,20,21
 986.14453125 1053.04394531 986.14453125 1053.04394531 981.84765625 994.315429688 c 2,22,-1
 966.546875 785.15234375 l 1,23,24
 787.1953125 682.662109375 787.1953125 682.662109375 525.86328125 376.583007812 c 0,25,26
 339.198242188 157.865234375 339.198242188 157.865234375 233.245117188 -8.6826171875 c 1,27,-1
 123.732421875 93.6376953125 l 2,28,29
 98.314453125 117.38671875 98.314453125 117.38671875 122.877929688 164.265625 c 4,30,31
 259.028320312 424.114257812 259.028320312 424.114257812 456.958984375 678.0859375 c 1,32,-1
 438.129882812 681.431640625 l 2,0,1
EndSplineSet
EndChar

StartChar: uniFB8F
Encoding: 64399 64399 104
Width: 2093
VWidth: 3732
GlyphClass: 2
Flags: W
AnchorPoint: "Anchor-7" 553.998 -230.921 basechar 0
AnchorPoint: "Anchor-10" 568.284 1467.71 basechar 0
LayerCount: 2
Fore
SplineSet
1169.07421875 1064.52050781 m 1,0,1
 1408 840 1408 840 1651.14355469 577.311523438 c 0,2,3
 1885.75463259 324.264648438 1885.75463259 324.264648438 2070.54101562 324.264648438 c 2,4,-1
 2105.33886719 324.264648438 l 1,5,-1
 2105.33886719 0 l 1,6,-1
 2070.984375 0 l 2,7,8
 1817 0 1817 0 1566.12304688 330.665039062 c 1,9,10
 1552 292 1552 292 1501.76074219 237.643554688 c 0,11,12
 1281 -1 1281 -1 812.74609375 0 c 4,13,14
 482 0 482 0 300.232421875 99.791015625 c 0,15,16
 31 246 31 246 105.396484375 652.323242188 c 0,17,18
 124 754 124 754 189.262695312 881.0859375 c 1,19,-1
 306.768554688 838.486328125 l 1,20,21
 244 587 244 587 311.3984375 486.293945312 c 0,22,23
 420 321 420 321 802.131835938 322.102539062 c 24,24,25
 1041 323 1041 323 1217.54980469 366.068359375 c 0,26,27
 1366 402 1366 402 1419.33886719 452.590820312 c 0,28,29
 1425 458 1425 458 1421.68847656 467.197265625 c 0,30,31
 1400 519 1400 519 909.609375 959.734375 c 1,32,-1
 983.567382812 1254.46386719 l 1,33,-1
 1812 1550.3125 l 2,34,35
 1861.15725212 1568.0567632 1861.15725212 1568.0567632 1852.51367188 1511 c 2,36,-1
 1819.05859375 1290.16113281 l 1,37,-1
 1169.07421875 1064.52050781 l 1,0,1
EndSplineSet
EndChar

StartChar: uniFB93
Encoding: 64403 64403 108
Width: 2036
VWidth: 3742
GlyphClass: 2
Flags: W
AnchorPoint: "Anchor-7" 578.531 -241.588 basechar 0
AnchorPoint: "Anchor-10" 592.817 1487.04 basechar 0
LayerCount: 2
Fore
SplineSet
1196.07421875 1004.52050781 m 1
 1345 882 1345 882 1631.41015625 574.645507812 c 0
 1863.75441595 324.264648438 1863.75441595 324.264648438 2012.94140625 324.264648438 c 2
 2047.73925781 324.264648438 l 1
 2047.73925781 0 l 1
 2013.38476562 0 l 2
 1795 0 1795 0 1546.92285156 328.53125 c 1
 1523 277 1523 277 1458.73632812 211.161132812 c 0
 1254 0 1254 0 798.079101562 0 c 4
 482 0 482 0 300.232421875 99.791015625 c 0
 31 246 31 246 105.396484375 652.323242188 c 0
 124 754 124 754 189.262695312 881.0859375 c 1
 306.768554688 838.486328125 l 1
 243 585 243 585 311.3984375 486.293945312 c 0
 425 322 425 322 802.131835938 322.102539062 c 0
 1242 322 1242 322 1382.62109375 445.270507812 c 24
 1388 450 1388 450 1387.88574219 455.463867188 c 0
 1388 476 1388 476 1355.99121094 515.197265625 c 0
 1289 598 1289 598 1208.25683594 673.865234375 c 0
 1042 831 1042 831 937.860351562 903.9296875 c 1
 1010.56738281 1194.46386719 l 1
 1839 1490.3125 l 2
 1888.15725212 1508.0567632 1888.15725212 1508.0567632 1879.51367188 1451 c 2
 1846.05859375 1230.16113281 l 1
 1196.07421875 1004.52050781 l 1
EndSplineSet
Refer: 274 -1 N 1.1342 0 0 1.1342 1007.89 -603.254 2
EndChar

StartChar: uniFB94
Encoding: 64404 64404 109
Width: 1004
VWidth: 3742
GlyphClass: 2
Flags: W
AnchorPoint: "Anchor-10" 289.998 1968.84 basechar 0
AnchorPoint: "Anchor-7" 334.15 -245.139 basechar 0
LayerCount: 2
Fore
SplineSet
286.07421875 1014.52050781 m 5
 467.197265625 870.39453125 467.197265625 870.39453125 582.619140625 722.862304688 c 0
 681.595703125 597.330078125 681.595703125 597.330078125 673.0625 435.73046875 c 0
 665.595703125 286.931640625 665.595703125 286.931640625 559.787109375 178.072265625 c 0
 387.197265625 0 387.197265625 0 11.2197265625 0 c 2
 -11.609375 0 l 1
 -11.609375 324.264648438 l 1
 33.6337890625 324.264648438 l 2
 348.797851562 324.264648438 348.797851562 324.264648438 435.119140625 389.159179688 c 0
 495.645507812 434.11328125 495.645507812 434.11328125 474.961914062 475.38671875 c 0
 419.197265625 586.663085938 419.197265625 586.663085938 33.06640625 871.9296875 c 1
 100.567382812 1204.46386719 l 5
 929 1500.3125 l 6
 978 1518 978 1518 969.513671875 1461 c 6
 936.05859375 1240.16113281 l 5
 286.07421875 1014.52050781 l 5
EndSplineSet
Refer: 274 -1 N 1.1342 0 0 1.1342 105.231 -603.254 2
EndChar

StartChar: uniFB95
Encoding: 64405 64405 110
Width: 1135
VWidth: 3742
GlyphClass: 2
Flags: W
AnchorPoint: "Anchor-10" 226.55 1966.33 basechar 0
AnchorPoint: "Anchor-7" 367.424 -218.488 basechar 0
LayerCount: 2
Fore
SplineSet
296.07421875 1004.52050781 m 5
 462 869 462 869 725.329101562 588.795898438 c 0
 973.751467582 324.264648438 973.751467582 324.264648438 1127.82617188 324.264648438 c 2
 1148.75878906 324.264648438 l 1
 1148.75878906 0 l 1
 1128.25878906 0 l 2
 902 0 902 0 648.529296875 334.931640625 c 1
 623 243 623 243 559.787109375 178.072265625 c 0
 388 0 388 0 11.2197265625 0 c 2
 -11.609375 0 l 257
 -11.609375 324.264648438 l 1
 33.6337890625 324.264648438 l 2
 349 324 349 324 435.119140625 389.159179688 c 0
 501 438 501 438 474.961914062 475.38671875 c 0
 369 630 369 630 33.06640625 882.596679688 c 1
 110.567382812 1194.46386719 l 5
 939 1490.3125 l 6
 988.157252123 1508.0567632 988.157252123 1508.0567632 979.513671875 1451 c 6
 946.05859375 1230.16113281 l 5
 296.07421875 1004.52050781 l 5
EndSplineSet
Refer: 274 -1 N 1.1342 0 0 1.1342 105.231 -603.254 2
EndChar

StartChar: uniFB9F
Encoding: 64415 64415 112
Width: 1503
VWidth: 3752
GlyphClass: 2
Flags: W
AnchorPoint: "Anchor-10" 575.322 1014.17 basechar 0
AnchorPoint: "Anchor-7" 450.537 -999.98 basechar 0
LayerCount: 2
Fore
SplineSet
1303.99121094 363.197265625 m 4,0,1
 1350.68261045 324.26464844 1350.68261045 324.26464844 1475.49414062 324.264648438 c 2,2,-1
 1514.93164062 324.264648438 l 5,3,-1
 1514.93164062 0 l 5,4,-1
 1475.265625 0 l 6,5,6
 1396 0 1396 0 1311.94921875 46.9755859375 c 5,7,8
 1301 -261 1301 -261 1090.52734375 -417.408203125 c 4,9,10
 932 -535 932 -535 681.1953125 -535.462890625 c 4,11,12
 368 -535 368 -535 224.62890625 -380.7578125 c 0,13,14
 59 -202 59 -202 96.7783203125 107.759765625 c 0,15,16
 114 249 114 249 199.50390625 438.202148438 c 1,17,-1
 337.973632812 399.137695312 l 1,18,19
 230 40 230 40 348.421875 -106.606445312 c 0,20,21
 453 -236 453 -236 687.120117188 -234.6015625 c 4,22,23
 983 -233 983 -233 1099.61328125 -54.3388671875 c 4,24,25
 1142 11 1142 11 1121.35839844 79.0244140625 c 4,26,27
 1078 222 1078 222 998.926757812 360.258789062 c 5,28,-1
 1137.91113281 568.529296875 l 6,29,30
 1157.11044732 598.170516158 1157.11044732 598.170516158 1178.14648438 557.86328125 c 6,31,-1
 1198.54003906 518.787109375 l 6,32,33
 1261 399 1261 399 1303.99121094 363.197265625 c 4,0,1
EndSplineSet
EndChar

StartChar: uniFBE8
Encoding: 64488 64488 115
Width: 645
VWidth: 3752
GlyphClass: 2
Flags: W
AnchorPoint: "Anchor-10" 323.261 1281.2 basechar 0
AnchorPoint: "Anchor-7" 350.876 -249.875 basechar 0
LayerCount: 2
Fore
SplineSet
97.6796875 324.264648438 m 2,0,1
 272.192267047 324.264648438 272.192267047 324.264648438 326.576171875 399.122070312 c 0,2,3
 340.120577337 418.612514487 340.120577337 418.612514487 329.4609375 474.698242188 c 4,4,5
 317 539 317 539 244.131835938 710.12890625 c 1,6,-1
 390.040039062 895.727539062 l 2,7,8
 421 935 421 935 444.6640625 895.727539062 c 0,9,10
 555 711 555 711 554.9296875 537.596679688 c 0,11,12
 555 291 555 291 446.157226562 149.509765625 c 0,13,14
 331 0 331 0 84.748046875 0 c 2,15,-1
 -12.08984375 0 l 1,16,-1
 -12.08984375 324.264648438 l 1,17,-1
 97.6796875 324.264648438 l 2,0,1
EndSplineSet
EndChar

StartChar: uniFBE9
Encoding: 64489 64489 116
Width: 728
VWidth: 3731
GlyphClass: 2
Flags: W
AnchorPoint: "Anchor-10" 396.951 1169.04 basechar 0
AnchorPoint: "Anchor-7" 371.317 -208.84 basechar 0
LayerCount: 2
Fore
SplineSet
352.883789062 664.310546875 m 1,0,-1
 496.211914062 664.374023438 l 1,1,-1
 515.724609375 475.174804688 l 2,2,3
 530.973258717 324.264648438 530.973258717 324.264648438 724.548828125 324.264648438 c 6,4,-1
 739.821289062 324.264648438 l 5,5,-1
 739.821289062 0 l 5,6,-1
 712.389648438 0 l 6,7,8
 519 0 519 0 412.943359375 168.827148438 c 1,9,10
 302 0 302 0 88.5009765625 0 c 2,11,-1
 -11.337890625 0 l 1,12,-1
 -11.337890625 324.264648438 l 1,13,-1
 63.849609375 324.264648438 l 2,14,15
 319.680383715 324.00033022 319.680383715 324.00033022 334.16796875 472.487304688 c 2,16,-1
 352.883789062 664.310546875 l 1,0,-1
EndSplineSet
EndChar

StartChar: uniFE73
Encoding: 65139 65139 124
Width: 895
VWidth: 3443
GlyphClass: 2
Flags: W
AnchorPoint: "Anchor-10" 331.315 2023.42 basechar 0
AnchorPoint: "Anchor-7" 331.315 -162.932 basechar 0
LayerCount: 2
Fore
SplineSet
460.806640625 563.60546875 m 2,0,1
 460.806640625 550.740234375 460.806640625 550.740234375 462.133789062 538.1640625 c 128,-1,2
 463.4609375 525.588867188 463.4609375 525.588867188 466.116210938 513.32421875 c 0,3,4
 471.424804688 488.806640625 471.424804688 488.806640625 482.107421875 465.235351562 c 0,5,6
 503.55859375 417.905273438 503.55859375 417.905273438 546.400390625 375.064453125 c 0,7,8
 589.458007812 332.005859375 589.458007812 332.005859375 655.2265625 310.737304688 c 128,-1,9
 720.993164062 289.46875 720.993164062 289.46875 808.9453125 289.46875 c 2,10,-1
 909.849609375 289.46875 l 1,11,-1
 909.849609375 30.4833984375 l 1,12,-1
 716.446289062 30.4833984375 l 2,13,14
 488.0859375 30.4833984375 488.0859375 30.4833984375 344.952148438 173.616210938 c 128,-1,15
 201.822265625 316.748046875 201.822265625 316.748046875 201.822265625 543.426757812 c 2,16,-1
 201.822265625 590.508789062 l 1,17,-1
 460.806640625 590.508789062 l 1,18,-1
 460.806640625 563.60546875 l 2,0,1
EndSplineSet
EndChar

StartChar: uniFE8E
Encoding: 65166 65166 150
Width: 589
VWidth: 3713
GlyphClass: 2
Flags: W
AnchorPoint: "Anchor-10" 276.829 1705.84 basechar 0
AnchorPoint: "Anchor-7" 341.406 -219.797 basechar 0
LayerCount: 2
Fore
SplineSet
408.595703125 1494 m 0,0,1
 415 1280 415 1280 396.044921875 723.49609375 c 0,2,3
 387 464 387 464 429.31640625 396.045898438 c 0,4,5
 473.835862366 324.264648438 473.835862366 324.264648438 577.482421875 324.264648438 c 2,6,-1
 601.469726562 324.264648438 l 1,7,-1
 600.803710938 0 l 1,8,-1
 541.87109375 0 l 6,9,10
 255 0 255 0 194.364257812 236.998046875 c 0,11,12
 164.088490694 350.116297645 164.088490694 350.116297645 165.999023438 568.529296875 c 0,13,14
 173 1245 173 1245 137.19921875 1425.12402344 c 1,15,-1
 349.864257812 1546.52050781 l 2,16,17
 406 1579 406 1579 408.595703125 1494 c 0,0,1
EndSplineSet
EndChar

StartChar: uniFEA2
Encoding: 65186 65186 170
Width: 1351
VWidth: 3747
GlyphClass: 2
Flags: W
AnchorPoint: "Anchor-10" 604.639 1260.69 basechar 0
AnchorPoint: "Anchor-7" 459.069 -834.974 basechar 0
LayerCount: 2
Fore
SplineSet
748.87109375 -649.381835938 m 0,0,1
 435 -647 435 -647 287.336914062 -508.037109375 c 0,2,3
 127 -358 127 -358 127.255859375 -125.077148438 c 4,4,5
 127 311 127 311 456.290039062 512.55859375 c 0,6,7
 595 597 595 597 718.928710938 619.729492188 c 1,8,9
 715 620 715 620 620.262695312 641.595703125 c 0,10,11
 471 676 471 676 400.891601562 676.16796875 c 0,12,13
 303 676 303 676 202.727539062 557.0390625 c 1,14,15
 146 592 146 592 89.8544921875 628.354492188 c 1,16,17
 131 734 131 734 196.84375 812.190429688 c 0,18,19
 300.070697606 935.276683661 300.070697606 935.276683661 428.663085938 935.099609375 c 0,20,21
 504.661256322 934.994958377 504.661256322 934.994958377 995.850585938 787.891601562 c 0,22,23
 1089.21602065 759.930145502 1089.21602065 759.930145502 1233.22851562 757.337890625 c 0,24,25
 1251.46025719 756.991249094 1251.46025719 756.991249094 1245.35253906 740.26171875 c 2,26,-1
 1153.05957031 487.463867188 l 1,27,28
 1079 485 1079 485 1013.32714844 464.171875 c 1,29,-1
 1014.22070312 454.07421875 l 2,30,31
 1025.97603389 324.264648438 1025.97603389 324.264648438 1336.56054688 324.264648438 c 2,32,-1
 1362.99609375 324.264648438 l 1,33,-1
 1362.99609375 0 l 1,34,-1
 1345.58007812 0 l 2,35,36
 910 0 910 0 872.528320312 427.568359375 c 1,37,38
 739 391 739 391 644.262695312 343.46484375 c 0,39,40
 303 171 303 171 302.967773438 -83.244140625 c 4,41,42
 303 -358 303 -358 775.9453125 -357.999023438 c 0,43,44
 941 -358 941 -358 1040.8828125 -342.524414062 c 0,45,46
 1148 -326 1148 -326 1181.11914062 -323.709960938 c 0,47,48
 1193 -323 1193 -323 1190.84765625 -354.931640625 c 0,49,50
 1174 -618 1174 -618 1137.47753906 -625.091796875 c 0,51,52
 1002 -651 1002 -651 748.87109375 -649.381835938 c 0,0,1
EndSplineSet
EndChar

StartChar: uniFEA3
Encoding: 65187 65187 171
Width: 1407
VWidth: 3753
GlyphClass: 2
Flags: W
AnchorPoint: "Anchor-10" 475.917 1323.01 basechar 0
AnchorPoint: "Anchor-7" 551.367 -217.229 basechar 0
LayerCount: 2
Fore
SplineSet
419.73046875 952.857421875 m 4,0,1
 536 959 536 959 761.712890625 854.32421875 c 4,2,3
 1092 701 1092 701 1250.16601562 688.251953125 c 4,4,5
 1277 686 1277 686 1322.52441406 686.206054688 c 4,6,7
 1339.22280283 685.997213479 1339.22280283 685.997213479 1333.07421875 667.0625 c 6,8,-1
 1253.19238281 421.064453125 l 5,9,10
 1051 374 1051 374 619.659179688 139.504882812 c 4,11,12
 362 0 362 0 102.451171875 0 c 6,13,-1
 -11.447265625 0 l 5,14,-1
 -11.447265625 324.264648438 l 5,15,-1
 125.759765625 324.264648438 l 6,16,17
 406.751201403 324.000234121 406.751201403 324.000234121 640.795898438 417.064453125 c 6,18,-1
 900.043945312 520.150390625 l 5,19,20
 767 560 767 560 639.870117188 609.841796875 c 4,21,22
 482 674 482 674 406.8984375 673.755859375 c 4,23,24
 282 674 282 674 171 540 c 5,25,-1
 64.7880859375 594.721679688 l 5,26,-1
 73.6904296875 617.771484375 l 6,27,28
 199 941 199 941 419.73046875 952.857421875 c 4,0,1
EndSplineSet
EndChar

StartChar: uniFEA4
Encoding: 65188 65188 172
Width: 1417
VWidth: 3753
GlyphClass: 2
Flags: W
AnchorPoint: "Anchor-10" 490.742 1340.34 basechar 0
AnchorPoint: "Anchor-7" 535.822 -213.864 basechar 0
LayerCount: 2
Fore
SplineSet
876 292.213867188 m 5,0,1
 751.045702003 210.641728861 751.045702003 210.641728861 619.659179688 139.504882812 c 0,2,3
 362 0 362 0 102.451171875 0 c 2,4,-1
 -11.447265625 0 l 1,5,-1
 -11.447265625 324.264648438 l 1,6,-1
 125.759765625 324.264648438 l 2,7,8
 406.751201403 324.000234121 406.751201403 324.000234121 640.795898438 417.064453125 c 2,9,-1
 900.043945312 520.150390625 l 1,10,11
 767 560 767 560 639.870117188 609.841796875 c 0,12,13
 476 674 476 674 406.8984375 673.755859375 c 0,14,15
 282 674 282 674 171 540 c 1,16,-1
 64.7880859375 594.721679688 l 1,17,-1
 73.6904296875 617.771484375 l 2,18,19
 199 941 199 941 419.73046875 952.857421875 c 0,20,21
 536 959 536 959 761.712890625 854.32421875 c 0,22,23
 1092 701 1092 701 1250.16601562 688.251953125 c 0,24,25
 1277 686 1277 686 1322.52441406 686.206054688 c 0,26,27
 1339.76887819 686.002725158 1339.76887819 686.002725158 1333.07421875 667.0625 c 2,28,-1
 1253.19238281 441.064453125 l 5,29,30
 1167 431 1167 431 1039 366.807617188 c 5,31,32
 1076 324 1076 324 1199.57128906 324.264648438 c 2,33,-1
 1435.93847656 324.264648438 l 1,34,-1
 1435.93847656 0 l 1,35,-1
 1326.93945312 0 l 2,36,37
 929 0 929 0 876 292.213867188 c 5,0,1
EndSplineSet
EndChar

StartChar: uniFEAA
Encoding: 65194 65194 178
Width: 1142
VWidth: 3745
GlyphClass: 2
Flags: W
AnchorPoint: "Anchor-10" 579.988 1473.41 basechar 0
AnchorPoint: "Anchor-7" 466.785 -253.689 basechar 0
LayerCount: 2
Fore
SplineSet
1115.92675781 0 m 2,0,1
 878 0 878 0 806.359375 223.583984375 c 1,2,3
 653 -0 653 -0 415.060546875 -0.2041015625 c 0,4,5
 89 -0 89 -0 87.2646484375 318.360351562 c 0,6,7
 87 364 87 364 109.764648438 459.969726562 c 1,8,-1
 223.926757812 447.481445312 l 1,9,-1
 225.02734375 418.547851562 l 2,10,11
 229 327 229 327 428.182617188 326.63671875 c 0,12,13
 559 326 559 326 632.392578125 364.961914062 c 0,14,15
 710 406 710 406 702.693359375 430.555664062 c 0,16,17
 700 440 700 440 700.28515625 440.959960938 c 2,18,-1
 539.196289062 970.66015625 l 1,19,-1
 680 1104.63422572 l 2,20,21
 732.525474689 1154.61196813 732.525474689 1154.61196813 753.690146389 1080 c 6,22,-1
 913.870117188 515.31640625 l 2,23,24
 967.925122005 324.264648438 967.925122005 324.264648438 1135.69726562 324.264648438 c 2,25,-1
 1154.53613281 324.264648438 l 1,26,-1
 1154.53613281 0 l 1,27,-1
 1115.92675781 0 l 2,0,1
EndSplineSet
EndChar

StartChar: uniFEAE
Encoding: 65198 65198 182
Width: 880
VWidth: 3752
GlyphClass: 2
Flags: W
AnchorPoint: "Anchor-10" 486.712 1095.48 basechar 0
AnchorPoint: "Anchor-7" 313.697 -775.481 basechar 0
LayerCount: 2
Fore
SplineSet
708.853515625 56 m 5,0,1
 701 -45 701 -45 666.2734375 -146.512695312 c 4,2,3
 567 -442 567 -442 185.239257812 -591.474609375 c 4,4,5
 161 -601 161 -601 148.165039062 -582.963867188 c 4,6,7
 16 -404 16 -404 4.6220703125 -380.475585938 c 4,8,9
 -9 -352 -9 -352 24.7509765625 -338.803710938 c 4,10,11
 496 -160 496 -160 495.340820312 76.474609375 c 4,12,13
 495 157 495 157 352.397460938 405.057617188 c 5,14,15
 494 587 494 587 524.662109375 627 c 4,16,17
 550 660 550 660 572.694335938 622.9296875 c 12,18,19
 641.526367188 468.948242188 641.526367188 468.948242188 652 448 c 4,20,21
 713.8671875 324.264648438 713.8671875 324.264648438 868.493164062 324.264648438 c 6,22,-1
 891.859375 324.264648438 l 5,23,-1
 891.859375 0 l 5,24,-1
 879.270507812 0 l 6,25,26
 758 0 758 0 708.853515625 56 c 5,0,1
EndSplineSet
PairPos2: "'kern' Horizontal Kerning lookup 15-1" uniFBFE dx=53 dy=0 dh=53 dv=0 dx=0 dy=0 dh=0 dv=0
PairPos2: "'kern' Horizontal Kerning lookup 15-1" uniFEF3 dx=53 dy=0 dh=53 dv=0 dx=0 dy=0 dh=0 dv=0
PairPos2: "'kern' Horizontal Kerning lookup 15-1" uniFB58 dx=53 dy=0 dh=53 dv=0 dx=0 dy=0 dh=0 dv=0
PairPos2: "'kern' Horizontal Kerning lookup 15-4" uni0621 dx=-196 dy=0 dh=-196 dv=0 dx=0 dy=0 dh=0 dv=0
PairPos2: "'kern' Horizontal Kerning lookup 15-3" uni0648 dx=-43 dy=0 dh=-43 dv=0 dx=0 dy=0 dh=0 dv=0
PairPos2: "'kern' Horizontal Kerning lookup 15-1" uni0644 dx=-43 dy=0 dh=-43 dv=0 dx=0 dy=0 dh=0 dv=0
PairPos2: "'kern' Horizontal Kerning lookup 15-1" uni0642 dx=-43 dy=0 dh=-43 dv=0 dx=0 dy=0 dh=0 dv=0
PairPos2: "'kern' Horizontal Kerning lookup 15-1" uni0632 dx=-43 dy=0 dh=-43 dv=0 dx=0 dy=0 dh=0 dv=0
PairPos2: "'kern' Horizontal Kerning lookup 15-1" uni0631 dx=-43 dy=0 dh=-43 dv=0 dx=0 dy=0 dh=0 dv=0
PairPos2: "'kern' Horizontal Kerning lookup 15-1" uniFB8A dx=-43 dy=0 dh=-43 dv=0 dx=0 dy=0 dh=0 dv=0
PairPos2: "'kern' Horizontal Kerning lookup 15-1" afii57508 dx=-43 dy=0 dh=-43 dv=0 dx=0 dy=0 dh=0 dv=0
PairPos2: "'kern' Horizontal Kerning lookup 15-1" uniFB7C dx=-128 dy=0 dh=-128 dv=0 dx=0 dy=0 dh=0 dv=0
PairPos2: "'kern' Horizontal Kerning lookup 15-1" uni06CC dx=-43 dy=0 dh=-43 dv=0 dx=0 dy=0 dh=0 dv=0
PairPos2: "'kern' Horizontal Kerning lookup 15-1" uniFEEB dx=-128 dy=0 dh=-128 dv=0 dx=0 dy=0 dh=0 dv=0
PairPos2: "'kern' Horizontal Kerning lookup 15-1" uniFEDF dx=-128 dy=0 dh=-128 dv=0 dx=0 dy=0 dh=0 dv=0
PairPos2: "'kern' Horizontal Kerning lookup 15-1" uniFB90 dx=-196 dy=0 dh=-196 dv=0 dx=0 dy=0 dh=0 dv=0
PairPos2: "'kern' Horizontal Kerning lookup 15-1" uni06A9 dx=-196 dy=0 dh=-196 dv=0 dx=0 dy=0 dh=0 dv=0
PairPos2: "'kern' Horizontal Kerning lookup 15-1" uni0649 dx=-43 dy=0 dh=-43 dv=0 dx=0 dy=0 dh=0 dv=0
PairPos2: "'kern' Horizontal Kerning lookup 15-1" uni0647 dx=-128 dy=0 dh=-128 dv=0 dx=0 dy=0 dh=0 dv=0
PairPos2: "'kern' Horizontal Kerning lookup 15-1" uniFEE7 dx=-128 dy=0 dh=-128 dv=0 dx=0 dy=0 dh=0 dv=0
PairPos2: "'kern' Horizontal Kerning lookup 15-1" uniFEE3 dx=-128 dy=0 dh=-128 dv=0 dx=0 dy=0 dh=0 dv=0
PairPos2: "'kern' Horizontal Kerning lookup 15-1" uni0645 dx=-128 dy=0 dh=-128 dv=0 dx=0 dy=0 dh=0 dv=0
PairPos2: "'kern' Horizontal Kerning lookup 15-1" uniFEDB dx=-196 dy=0 dh=-196 dv=0 dx=0 dy=0 dh=0 dv=0
PairPos2: "'kern' Horizontal Kerning lookup 15-1" uniFED7 dx=-128 dy=0 dh=-128 dv=0 dx=0 dy=0 dh=0 dv=0
PairPos2: "'kern' Horizontal Kerning lookup 15-1" uniFED3 dx=-128 dy=0 dh=-128 dv=0 dx=0 dy=0 dh=0 dv=0
PairPos2: "'kern' Horizontal Kerning lookup 15-1" uni0641 dx=-128 dy=0 dh=-128 dv=0 dx=0 dy=0 dh=0 dv=0
PairPos2: "'kern' Horizontal Kerning lookup 15-1" uniFECF dx=-128 dy=0 dh=-128 dv=0 dx=0 dy=0 dh=0 dv=0
PairPos2: "'kern' Horizontal Kerning lookup 15-1" uniFECB dx=-128 dy=0 dh=-128 dv=0 dx=0 dy=0 dh=0 dv=0
PairPos2: "'kern' Horizontal Kerning lookup 15-1" uniFEC7 dx=-128 dy=0 dh=-128 dv=0 dx=0 dy=0 dh=0 dv=0
PairPos2: "'kern' Horizontal Kerning lookup 15-1" uni0638 dx=-128 dy=0 dh=-128 dv=0 dx=0 dy=0 dh=0 dv=0
PairPos2: "'kern' Horizontal Kerning lookup 15-1" uniFEC3 dx=-128 dy=0 dh=-128 dv=0 dx=0 dy=0 dh=0 dv=0
PairPos2: "'kern' Horizontal Kerning lookup 15-1" uni0637 dx=-128 dy=0 dh=-128 dv=0 dx=0 dy=0 dh=0 dv=0
PairPos2: "'kern' Horizontal Kerning lookup 15-1" uniFEBF dx=-128 dy=0 dh=-128 dv=0 dx=0 dy=0 dh=0 dv=0
PairPos2: "'kern' Horizontal Kerning lookup 15-1" uni0636 dx=-128 dy=0 dh=-128 dv=0 dx=0 dy=0 dh=0 dv=0
PairPos2: "'kern' Horizontal Kerning lookup 15-1" uniFEBB dx=-128 dy=0 dh=-128 dv=0 dx=0 dy=0 dh=0 dv=0
PairPos2: "'kern' Horizontal Kerning lookup 15-1" uni0635 dx=-128 dy=0 dh=-128 dv=0 dx=0 dy=0 dh=0 dv=0
PairPos2: "'kern' Horizontal Kerning lookup 15-1" uniFEB7 dx=-128 dy=0 dh=-128 dv=0 dx=0 dy=0 dh=0 dv=0
PairPos2: "'kern' Horizontal Kerning lookup 15-1" uni0634 dx=-128 dy=0 dh=-128 dv=0 dx=0 dy=0 dh=0 dv=0
PairPos2: "'kern' Horizontal Kerning lookup 15-1" uniFEB3 dx=-128 dy=0 dh=-128 dv=0 dx=0 dy=0 dh=0 dv=0
PairPos2: "'kern' Horizontal Kerning lookup 15-1" uni0633 dx=-128 dy=0 dh=-128 dv=0 dx=0 dy=0 dh=0 dv=0
PairPos2: "'kern' Horizontal Kerning lookup 15-1" uni0630 dx=-128 dy=0 dh=-128 dv=0 dx=0 dy=0 dh=0 dv=0
PairPos2: "'kern' Horizontal Kerning lookup 15-1" uni062F dx=-128 dy=0 dh=-128 dv=0 dx=0 dy=0 dh=0 dv=0
PairPos2: "'kern' Horizontal Kerning lookup 15-1" uniFEA7 dx=-128 dy=0 dh=-128 dv=0 dx=0 dy=0 dh=0 dv=0
PairPos2: "'kern' Horizontal Kerning lookup 15-1" uniFEA3 dx=-128 dy=0 dh=-128 dv=0 dx=0 dy=0 dh=0 dv=0
PairPos2: "'kern' Horizontal Kerning lookup 15-1" uniFE9F dx=-128 dy=0 dh=-128 dv=0 dx=0 dy=0 dh=0 dv=0
PairPos2: "'kern' Horizontal Kerning lookup 15-1" uniFE9B dx=-128 dy=0 dh=-128 dv=0 dx=0 dy=0 dh=0 dv=0
PairPos2: "'kern' Horizontal Kerning lookup 15-1" uni062B dx=-128 dy=0 dh=-128 dv=0 dx=0 dy=0 dh=0 dv=0
PairPos2: "'kern' Horizontal Kerning lookup 15-1" uniFE97 dx=-128 dy=0 dh=-128 dv=0 dx=0 dy=0 dh=0 dv=0
PairPos2: "'kern' Horizontal Kerning lookup 15-1" uni062A dx=-128 dy=0 dh=-128 dv=0 dx=0 dy=0 dh=0 dv=0
PairPos2: "'kern' Horizontal Kerning lookup 15-1" uni0629 dx=-128 dy=0 dh=-128 dv=0 dx=0 dy=0 dh=0 dv=0
PairPos2: "'kern' Horizontal Kerning lookup 15-1" uni0628 dx=-128 dy=0 dh=-128 dv=0 dx=0 dy=0 dh=0 dv=0
PairPos2: "'kern' Horizontal Kerning lookup 15-1" uni0627 dx=-196 dy=0 dh=-196 dv=0 dx=0 dy=0 dh=0 dv=0
PairPos2: "'kern' Horizontal Kerning lookup 15-1" uni0622 dx=-196 dy=0 dh=-196 dv=0 dx=0 dy=0 dh=0 dv=0
PairPos2: "'kern' Horizontal Kerning lookup 15-1" uniFB94 dx=-196 dy=0 dh=-196 dv=0 dx=0 dy=0 dh=0 dv=0
PairPos2: "'kern' Horizontal Kerning lookup 15-1" afii57509 dx=-196 dy=0 dh=-196 dv=0 dx=0 dy=0 dh=0 dv=0
PairPos2: "'kern' Horizontal Kerning lookup 15-1" uniFB56 dx=-128 dy=0 dh=-128 dv=0 dx=0 dy=0 dh=0 dv=0
PairPos2: "'kern' Horizontal Kerning lookup 15-1" afii57506 dx=-128 dy=0 dh=-128 dv=0 dx=0 dy=0 dh=0 dv=0
EndChar

StartChar: uniFEB2
Encoding: 65202 65202 186
Width: 2519
VWidth: 3752
GlyphClass: 2
Flags: W
AnchorPoint: "Anchor-10" 648.869 989.425 basechar 0
AnchorPoint: "Anchor-7" 378.28 -775.066 basechar 0
LayerCount: 2
Fore
SplineSet
2097.31640625 501.639648438 m 6,0,-1
 2109.74511719 665.413085938 l 5,1,-1
 2261.2890625 665.413085938 l 5,2,-1
 2273.01953125 505.234375 l 6,3,4
 2285.9810452 324.264648438 2285.9810452 324.264648438 2484.95117188 324.264648438 c 6,5,-1
 2531.91503906 324.264648438 l 5,6,-1
 2531.91503906 0 l 5,7,-1
 2484.14746094 0 l 6,8,9
 2274 0 2274 0 2185.70703125 160.311523438 c 5,10,11
 2082 1 2082 1 1946.51757812 0.802734375 c 4,12,13
 1760 1 1760 1 1685.73339844 159.325195312 c 5,14,15
 1588 -2 1588 -2 1478.53320312 1.044921875 c 28,16,17
 1382 3 1382 3 1309.81542969 46.9755859375 c 5,18,19
 1299 -261 1299 -261 1088.39355469 -417.408203125 c 4,20,21
 930 -535 930 -535 669.091796875 -535.462890625 c 4,22,23
 366 -535 366 -535 222.495117188 -380.7578125 c 0,24,25
 57 -202 57 -202 94.6455078125 107.759765625 c 0,26,27
 112 249 112 249 197.37109375 438.202148438 c 1,28,-1
 335.840820312 399.137695312 l 1,29,30
 227 40 227 40 346.288085938 -106.606445312 c 0,31,32
 451 -236 451 -236 684.987304688 -234.6015625 c 4,33,34
 980 -233 980 -233 1097.48046875 -54.3388671875 c 4,35,36
 1140 10 1140 10 1119.22460938 79.0244140625 c 4,37,38
 1078 222 1078 222 995.7265625 362.6640625 c 5,39,-1
 1134.72265625 567.462890625 l 6,40,41
 1155.03701407 598.055742152 1155.03701407 598.055742152 1177.68359375 554.663085938 c 6,42,-1
 1196.40722656 518.787109375 l 6,43,44
 1251 414 1251 414 1286.1953125 378.579101562 c 4,45,46
 1340 324 1340 324 1445.0703125 326.440429688 c 20,47,48
 1591.73326482 330.991722586 1591.73326482 330.991722586 1607.40722656 484.924804688 c 6,49,-1
 1622.19824219 630.186523438 l 5,50,-1
 1764.62792969 630.186523438 l 5,51,-1
 1779.03125 492.244140625 l 6,52,53
 1796 328 1796 328 1953.45410156 325.502929688 c 4,54,55
 2084 323 2084 323 2097.31640625 501.639648438 c 6,0,-1
EndSplineSet
EndChar

StartChar: uniFEB3
Encoding: 65203 65203 187
Width: 1601
VWidth: 3752
GlyphClass: 2
Flags: W
AnchorPoint: "Anchor-10" 843.082 1220.07 basechar 0
AnchorPoint: "Anchor-7" 939.453 -257.922 basechar 0
LayerCount: 2
Fore
SplineSet
1168.64746094 -2.0087890625 m 16,0,1
 988 -3 988 -3 904.2578125 162.930664062 c 1,2,3
 796 -3 796 -3 667.87890625 -2.966796875 c 0,4,5
 505 -2 505 -2 417.771484375 159.748046875 c 1,6,7
 298 0 298 0 101.778320312 0 c 2,8,-1
 -11.9951171875 0 l 1,9,-1
 -11.9951171875 324.264648438 l 1,10,-1
 95.3203125 324.259765625 l 2,11,12
 321.495711943 324.000577893 321.495711943 324.000577893 338.318359375 488.001953125 c 2,13,-1
 353.109375 632.197265625 l 5,14,-1
 495.540039062 632.197265625 l 5,15,-1
 509.942382812 492.12109375 l 2,16,17
 527 325 527 325 672.78125 325.583007812 c 0,18,19
 808.817444413 325.999441162 808.817444413 325.999441162 824.452148438 484.067382812 c 2,20,21
 839.2421875 633.595703125 l 5,22,-1
 981.672851562 633.595703125 l 5,23,-1
 996.076171875 491.38671875 l 2,24,25
 1014 319 1014 319 1171.57910156 322.255859375 c 0,26,27
 1271 324 1271 324 1290.47558594 397.11328125 c 0,28,29
 1301.53392045 439.566952251 1301.53392045 439.566952251 1287.36035156 492.689453125 c 0,30,31
 1267 569 1267 569 1208.03125 688.120117188 c 1,32,-1
 1353.93945312 873.71875 l 2,33,34
 1385 913 1385 913 1408.56347656 873.71875 c 0,35,36
 1509 706 1509 706 1508.82910156 535.587890625 c 0,37,38
 1509 292 1509 292 1390.05664062 137.500976562 c 0,39,40
 1284 -1 1284 -1 1168.64746094 -2.0087890625 c 16,0,1
EndSplineSet
EndChar

StartChar: uniFEB4
Encoding: 65204 65204 188
Width: 1736
VWidth: 3752
GlyphClass: 2
Flags: W
AnchorPoint: "Anchor-7" 800.587 -272.922 basechar 0
AnchorPoint: "Anchor-10" 812.603 1169.8 basechar 0
LayerCount: 2
Fore
SplineSet
95.720703125 324.264648438 m 2,0,1
 332.714583723 324.264648438 332.714583723 324.264648438 349.385742188 488.001953125 c 2,2,-1
 364.17578125 633.263671875 l 5,3,-1
 506.606445312 633.263671875 l 5,4,-1
 521.009765625 484.654296875 l 2,5,6
 536 326 536 326 683.84765625 325.583007812 c 0,7,8
 819.564672889 325.001864082 819.564672889 325.001864082 835.518554688 485.134765625 c 2,9,-1
 850.309570312 633.595703125 l 5,10,-1
 992.739257812 633.595703125 l 5,11,-1
 1007.14257812 491.38671875 l 2,12,13
 1024 326 1024 326 1162.52636719 324.618164062 c 0,14,15
 1296.13750191 322.998332999 1296.13750191 322.998332999 1309.61621094 500.594726562 c 2,16,-1
 1322.04589844 664.369140625 l 1,17,-1
 1473.58984375 664.369140625 l 1,18,-1
 1485.31933594 508.856445312 l 2,19,20
 1498.98041417 324.264648441 1498.98041417 324.264648441 1712.25195312 324.264648438 c 2,21,-1
 1749.21484375 324.264648438 l 1,22,-1
 1749.21484375 0 l 1,23,-1
 1711.44726562 0 l 2,24,25
 1479 0 1479 0 1391.0078125 159.266601562 c 1,26,27
 1294 0 1294 0 1175.81738281 -0.2412109375 c 0,28,29
 1003 0 1003 0 918.033203125 162.546875 c 1,30,31
 815 0 815 0 684.662109375 0 c 0,32,33
 506 0 506 0 420.336914062 158.028320312 c 1,34,35
 300 0 300 0 109.44921875 0 c 2,36,-1
 -12.083984375 0 l 1,37,-1
 -12.083984375 324.264648438 l 1,38,-1
 95.720703125 324.264648438 l 2,0,1
EndSplineSet
EndChar

StartChar: uniFEBA
Encoding: 65210 65210 194
Width: 2686
VWidth: 3753
GlyphClass: 2
Flags: W
AnchorPoint: "Anchor-7" 366.003 -793.041 basechar 0
AnchorPoint: "Anchor-10" 648.869 989.425 basechar 0
LayerCount: 2
Fore
SplineSet
1606.83984375 326.057617188 m 5,0,-1
 1906.9453125 326.057617188 l 6,1,2
 2249.98144531 326.400390625 2249.98144531 326.400390625 2309.47460938 380.854492188 c 4,3,4
 2347.05175781 414.930664062 2347.05175781 414.930664062 2336.609375 471.922851562 c 4,5,6
 2311.8515625 613.329101562 2311.8515625 613.329101562 2116.31347656 610.240234375 c 4,7,8
 1888.38769531 606.9296875 1888.38769531 606.9296875 1606.83984375 326.057617188 c 5,0,-1
1581.61816406 0 m 6,9,10
 1415.02258697 -0.0097005738782 1415.02258697 -0.0097005738782 1311.87890625 44.2880859375 c 5,11,12
 1301 -261 1301 -261 1090.52734375 -417.408203125 c 4,13,14
 932 -535 932 -535 681.224609375 -535.462890625 c 4,15,16
 368 -535 368 -535 224.629882812 -380.759765625 c 0,17,18
 59 -202 59 -202 96.7783203125 107.759765625 c 0,19,20
 114 249 114 249 199.50390625 438.202148438 c 1,21,-1
 337.973632812 399.137695312 l 1,22,23
 230 40 230 40 348.421875 -106.606445312 c 0,24,25
 453 -236 453 -236 687.120117188 -234.6015625 c 4,26,27
 985 -233 985 -233 1099.61328125 -54.3388671875 c 4,28,29
 1141 10 1141 10 1121.37890625 78.9208984375 c 4,30,31
 1081 220 1081 220 999.993164062 360.258789062 c 5,32,-1
 1136.62890625 566.396484375 l 6,33,34
 1157.11428066 598.177293905 1157.11428066 598.177293905 1181.35644531 550.396484375 c 6,35,-1
 1202.79199219 508.147460938 l 6,36,37
 1292.13795255 332.729149436 1292.13795255 332.729149436 1427.72460938 327.46484375 c 6,38,-1
 1444.92871094 326.796875 l 5,39,40
 1543 464 1543 464 1642.6640625 574.223632812 c 4,41,42
 1929 892 1929 892 2194.66113281 891.5546875 c 4,43,44
 2409 891 2409 891 2498.09570312 725.489257812 c 4,45,46
 2539 650 2539 650 2533.32519531 535.82421875 c 4,47,48
 2529 431 2529 431 2474.80761719 341.98046875 c 4,49,50
 2470 334 2470 334 2464.84472656 324.264648438 c 5,51,-1
 2699.31738281 324.264648438 l 5,52,-1
 2699.31738281 0 l 5,53,-1
 2663.73925781 0 l 6,54,55
 2463 0 2463 0 2293.32714844 140.759765625 c 5,56,57
 2101.04132543 0.0302451171806 2101.04132543 0.0302451171806 1816.41601562 0.013671875 c 6,58,-1
 1581.61816406 0 l 6,9,10
EndSplineSet
EndChar

StartChar: uniFEBB
Encoding: 65211 65211 195
Width: 1745
VWidth: 3753
GlyphClass: 2
Flags: W
AnchorPoint: "Anchor-10" 1024.36 1343.58 basechar 0
AnchorPoint: "Anchor-7" 692.342 -237.901 basechar 0
LayerCount: 2
Fore
SplineSet
939.479492188 -2.080078125 m 6,0,-1
 704.681640625 -2.09375 l 6,1,2
 503 -2 503 -2 353.959960938 173.228515625 c 1,3,4
 214 0 214 0 28.1640625 0 c 2,5,-1
 -11.998046875 0 l 1,6,-1
 -11.998046875 324.264648438 l 1,7,-1
 9.40234375 324.264648438 l 2,8,9
 256.903790499 324.000102835 256.903790499 324.000102835 269.703125 487.697265625 c 2,10,-1
 282.5078125 651.462890625 l 1,11,-1
 419.755859375 651.462890625 l 1,12,-1
 434.744140625 487.909179688 l 2,13,14
 448 343 448 343 567.9921875 324.703125 c 5,15,16
 667 464 667 464 765.727539062 572.129882812 c 4,17,18
 1055 890 1055 890 1317.72460938 889.4609375 c 4,19,20
 1532 889 1532 889 1621.15917969 723.395507812 c 4,21,22
 1644 681 1644 681 1652.21191406 625.501953125 c 4,23,24
 1678 444 1678 444 1587.87207031 299.88671875 c 4,25,26
 1398 -2 1398 -2 939.479492188 -2.080078125 c 6,0,-1
729.903320312 323.963867188 m 5,27,-1
 1030.00878906 323.963867188 l 6,28,29
 1371 324 1371 324 1432.53808594 378.760742188 c 4,30,31
 1470 413 1470 413 1459.67285156 469.829101562 c 4,32,33
 1435 611 1435 611 1239.37695312 608.146484375 c 4,34,35
 1012 605 1012 605 729.903320312 323.963867188 c 5,27,-1
EndSplineSet
EndChar

StartChar: uniFEBC
Encoding: 65212 65212 196
Width: 1810
VWidth: 3753
GlyphClass: 2
Flags: W
AnchorPoint: "Anchor-10" 1029.6 1304.3 basechar 0
AnchorPoint: "Anchor-7" 709.471 -226.746 basechar 0
LayerCount: 2
Fore
SplineSet
729.903320312 323.963867188 m 1,0,-1
 1030.00878906 323.963867188 l 2,1,2
 1371.59082031 324.264648438 1371.59082031 324.264648438 1432.53808594 378.760742188 c 0,3,4
 1469.72363281 412.797851562 1469.72363281 412.797851562 1459.67285156 469.829101562 c 0,5,6
 1434.5234375 611.196289062 1434.5234375 611.196289062 1239.37695312 608.146484375 c 0,7,8
 1012.12597656 604.795898438 1012.12597656 604.795898438 729.903320312 323.963867188 c 1,0,-1
1590.04101562 324.264648438 m 5,9,10
 1822.38085938 324.264648438 l 5,11,-1
 1822.38085938 0 l 5,12,-1
 1786.80273438 0 l 6,13,14
 1586 0 1586 0 1416.390625 138.666015625 c 5,15,16
 1222.9125967 -2.06357430288 1222.9125967 -2.06357430288 939.479492188 -2.080078125 c 2,17,-1
 704.681640625 -2.09375 l 2,18,19
 501 -2 501 -2 352.264648438 171.997070312 c 1,20,21
 222 0 222 0 28.1640625 0 c 2,22,-1
 -11.998046875 0 l 1,23,-1
 -11.998046875 324.264648438 l 1,24,-1
 9.40234375 324.264648438 l 2,25,26
 256.903790499 324.000102835 256.903790499 324.000102835 269.703125 487.697265625 c 2,27,-1
 282.5078125 651.462890625 l 1,28,-1
 419.755859375 651.462890625 l 1,29,-1
 434.744140625 487.909179688 l 2,30,31
 448 343 448 343 567.9921875 324.703125 c 1,32,33
 659 455 659 455 765.727539062 572.129882812 c 0,34,35
 1054 890 1054 890 1317.72460938 889.4609375 c 0,36,37
 1533 889 1533 889 1621.15917969 723.395507812 c 0,38,39
 1661 649 1661 649 1661.13867188 566.796875 c 0,40,41
 1662 490 1662 490 1633.09472656 414.930664062 c 0,42,43
 1617 373 1617 373 1590.04101562 324.264648438 c 5,9,10
EndSplineSet
EndChar

StartChar: uniFEC2
Encoding: 65218 65218 202
Width: 1713
VWidth: 3753
GlyphClass: 2
Flags: W
AnchorPoint: "Anchor-10" 506.374 1659.59 basechar 0
AnchorPoint: "Anchor-7" 823.839 -226.802 basechar 0
LayerCount: 2
Fore
SplineSet
675.1953125 570.93359375 m 1,0,1
 970 892 970 892 1210.78417969 891.5546875 c 0,2,3
 1425 891 1425 891 1514.21875 725.489257812 c 0,4,5
 1537 683 1537 683 1545.27148438 627.595703125 c 0,6,7
 1570 460 1570 460 1490.93164062 341.98046875 c 0,8,9
 1485 333 1485 333 1478.390625 324.264648438 c 1,10,-1
 1724.61425781 324.264648438 l 1,11,-1
 1724.61425781 0 l 1,12,-1
 1689.0625 0 l 2,13,14
 1494 0 1494 0 1310.92480469 142.932617188 c 1,15,16
 1119.0407586 0.0303542496789 1119.0407586 0.0303542496789 832.540039062 0.013671875 c 2,17,-1
 597.741210938 0 l 2,18,-1
 292.168945312 -0.7431640625 l 1,19,20
 162 132 162 132 99.9697265625 228.2421875 c 0,21,22
 39.0700728456 323.889945014 39.0700728456 323.889945014 157.869140625 323.922851562 c 2,23,-1
 464.594726562 324.0078125 l 1,24,25
 463 588 463 588 438.698242188 973.860351562 c 0,26,27
 417 1317 417 1317 396.797851562 1417.85839844 c 5,28,-1
 616.529296875 1546.36425781 l 6,29,30
 675.1953125 1581.11569543 675.1953125 1581.11569543 675.1953125 1526.92382812 c 6,31,-1
 675.1953125 570.93359375 l 1,0,1
622.962890625 326.057617188 m 1,32,-1
 923.068359375 326.057617188 l 2,33,34
 1263.9921875 326.3984375 1263.9921875 326.3984375 1325.59765625 380.854492188 c 0,35,36
 1363.19140625 414.930664062 1363.19140625 414.930664062 1352.73242188 471.922851562 c 0,37,38
 1327.9921875 613.329101562 1327.9921875 613.329101562 1132.43652344 610.240234375 c 0,39,40
 904.52734375 606.9296875 904.52734375 606.9296875 622.962890625 326.057617188 c 1,32,-1
EndSplineSet
EndChar

StartChar: uniFEC3
Encoding: 65219 65219 203
Width: 1362
VWidth: 3753
GlyphClass: 2
Flags: W
AnchorPoint: "Anchor-7" 513.441 -220.401 basechar 0
AnchorPoint: "Anchor-10" 265.31 1656.39 basechar 0
LayerCount: 2
Fore
SplineSet
397.864257812 570.93359375 m 1,0,1
 694 892 694 892 934.51953125 891.5546875 c 0,2,3
 1149 891 1149 891 1237.95410156 725.489257812 c 0,4,5
 1261 683 1261 683 1269.00683594 627.595703125 c 0,6,7
 1295 447 1295 447 1204.66601562 301.98046875 c 0,8,9
 1016 0 1016 0 556.274414062 0 c 2,10,-1
 -11.6005859375 0 l 1,11,-1
 -11.001953125 324.264648438 l 1,12,-1
 187.263671875 324.0078125 l 1,13,14
 186 588 186 588 161.3671875 973.860351562 c 0,15,16
 140 1318 140 1318 119.465820312 1417.85839844 c 5,17,-1
 340.264648438 1547.17285156 l 6,18,19
 397.864257813 1580.91475462 397.864257813 1580.91475462 397.864257812 1516.92382812 c 6,20,-1
 397.864257812 570.93359375 l 1,0,1
346.698242188 326.057617188 m 1,21,-1
 646.803710938 326.057617188 l 2,22,23
 987.727539062 326.3984375 987.727539062 326.3984375 1049.33300781 380.854492188 c 0,24,25
 1086.92675781 414.930664062 1086.92675781 414.930664062 1076.46679688 471.922851562 c 0,26,27
 1051.7265625 613.329101562 1051.7265625 613.329101562 856.171875 610.240234375 c 0,28,29
 628.262695312 606.9296875 628.262695312 606.9296875 346.698242188 326.057617188 c 1,21,-1
EndSplineSet
EndChar

StartChar: uniFEC4
Encoding: 65220 65220 204
Width: 1424
VWidth: 3753
GlyphClass: 2
Flags: W
AnchorPoint: "Anchor-7" 517.708 -216.135 basechar 0
AnchorPoint: "Anchor-10" 258.909 1660.66 basechar 0
LayerCount: 2
Fore
SplineSet
397.864257812 570.93359375 m 1,0,1
 695 892 695 892 934.51953125 891.5546875 c 0,2,3
 1147 891 1147 891 1235.8203125 725.489257812 c 0,4,5
 1272 659 1272 659 1272.42480469 556.129882812 c 0,6,7
 1273 454 1273 454 1232.52539062 375.463867188 c 0,8,9
 1213 337 1213 337 1198.71972656 324.264648438 c 1,10,-1
 1435.66503906 324.264648438 l 1,11,-1
 1435.66503906 0 l 1,12,-1
 1400.07324219 0 l 2,13,14
 1199 0 1199 0 1029.32714844 140.798828125 c 1,15,16
 842 0 842 0 556.274414062 0 c 2,17,-1
 -11.6005859375 0 l 1,18,-1
 -11.001953125 324.264648438 l 1,19,-1
 187.263671875 324.0078125 l 1,20,21
 186 638 186 638 161.3671875 1038.52636719 c 4,22,23
 146 1291 146 1291 119.465820312 1417.85839844 c 5,24,-1
 340.264648438 1547.17285156 l 6,25,26
 397.864257813 1580.91475462 397.864257813 1580.91475462 397.864257812 1516.92382812 c 6,27,-1
 397.864257812 570.93359375 l 1,0,1
346.698242188 326.057617188 m 1,28,-1
 646.803710938 326.057617188 l 2,29,30
 987.727539062 326.3984375 987.727539062 326.3984375 1049.33300781 380.854492188 c 0,31,32
 1086.92675781 414.930664062 1086.92675781 414.930664062 1076.46679688 471.922851562 c 0,33,34
 1051.7265625 613.329101562 1051.7265625 613.329101562 856.171875 610.240234375 c 0,35,36
 628.262695312 606.9296875 628.262695312 606.9296875 346.698242188 326.057617188 c 1,28,-1
EndSplineSet
EndChar

StartChar: uniFECA
Encoding: 65226 65226 210
Width: 1297
VWidth: 3747
GlyphClass: 2
Flags: W
AnchorPoint: "Anchor-10" 620.262 1408.92 basechar 0
AnchorPoint: "Anchor-7" 345.191 -905.393 basechar 0
LayerCount: 2
Fore
SplineSet
716.87109375 -649.381835938 m 4,0,1
 403 -647 403 -647 255.336914062 -508.037109375 c 4,2,3
 95 -358 95 -358 95.255859375 -125.077148438 c 4,4,5
 96 288 96 288 426.6640625 500.263671875 c 0,6,7
 529 566 529 566 611.196289062 582.396484375 c 1,8,9
 581 626 581 626 275.197265625 666.002929688 c 1,10,-1
 275.075195312 816.015625 l 1,11,12
 390.990139385 886.205080158 390.990139385 886.205080158 710.955078125 885.604492188 c 0,13,14
 1033 885 1033 885 1033.59375 727.461914062 c 0,15,16
 1035 574 1035 574 856.243164062 470.987304688 c 1,17,-1
 854.934570312 456.885742188 l 2,18,19
 843.023768279 324.264648438 843.023768279 324.264648438 1261.99414062 324.264648438 c 2,20,-1
 1308.74121094 324.264648438 l 1,21,-1
 1308.74121094 0 l 1,22,-1
 1273.16503906 0 l 2,23,24
 758.584281953 -7.38964445191e-13 758.584281953 -7.38964445191e-13 709.251953125 355.171875 c 2,25,-1
 707.407226562 368.453125 l 1,26,27
 271 203 271 203 270.967773438 -83.244140625 c 28,28,29
 271 -358 271 -358 743.9453125 -357.999023438 c 4,30,31
 909 -358 909 -358 1008.8828125 -342.524414062 c 4,32,33
 1116 -326 1116 -326 1149.11914062 -323.709960938 c 4,34,35
 1161 -323 1161 -323 1158.84765625 -354.931640625 c 4,36,37
 1142 -618 1142 -618 1105.47753906 -625.091796875 c 4,38,39
 970 -651 970 -651 716.87109375 -649.381835938 c 4,0,1
EndSplineSet
EndChar

StartChar: uniFECB
Encoding: 65227 65227 211
Width: 1124
VWidth: 3747
GlyphClass: 2
Flags: W
AnchorPoint: "Anchor-10" 535.836 1422.84 basechar 0
AnchorPoint: "Anchor-7" 508.066 -222.76 basechar 0
LayerCount: 2
Fore
SplineSet
879.34765625 720.287109375 m 5,0,1
 719 783 719 783 642.21875 781.158203125 c 4,2,3
 486 778 486 778 381.787109375 682.553710938 c 4,4,5
 313 620 313 620 313.907226562 590.708984375 c 4,6,7
 317.861567874 498.237217585 317.861567874 498.237217585 471.541015625 399.327148438 c 4,8,9
 514 372 514 372 538.434570312 370.240234375 c 4,10,11
 588.389217066 366.974555763 588.389217066 366.974555763 877.571289062 434.368164062 c 6,12,-1
 986.009765625 459.639648438 l 6,13,14
 1018 467 1018 467 1024.171875 459.83984375 c 4,15,16
 1041.34136299 441.638114021 1041.34136299 441.638114021 1035.73632812 425.690429688 c 6,17,-1
 951.727539062 186.665039062 l 5,18,19
 469 61 469 61 415.197265625 46.9326171875 c 4,20,21
 237 0 237 0 42.5625 0 c 6,22,-1
 -10.849609375 0 l 1,23,-1
 -10.849609375 324.264648438 l 1,24,-1
 222.48828125 324.264648438 l 5,25,-1
 209.737304688 342.885742188 l 6,26,27
 80 532 80 532 178.249023438 766.051757812 c 4,28,29
 283.455872458 1016.08341374 283.455872458 1016.08341374 545.330078125 1039.37402344 c 4,30,31
 766 1059 766 1059 912.260742188 870.39453125 c 5,32,-1
 879.34765625 720.287109375 l 5,0,1
EndSplineSet
EndChar

StartChar: uniFECC
Encoding: 65228 65228 212
Width: 1019
VWidth: 3749
GlyphClass: 2
Flags: W
AnchorPoint: "Anchor-10" 486.071 1279.73 basechar 0
AnchorPoint: "Anchor-7" 500.445 -222.487 basechar 0
LayerCount: 2
Fore
SplineSet
121.618164062 733.356445312 m 1,0,1
 252 813 252 813 547.497070312 812.946289062 c 0,2,3
 895 813 895 813 880.135742188 634.13671875 c 0,4,5
 871 519 871 519 678.528320312 393.59765625 c 1,6,-1
 692.079101562 382.96484375 l 2,7,8
 766.663736941 324.264648438 766.663736941 324.264648438 1003.73242188 324.264648438 c 6,9,-1
 1031.28515625 324.264648438 l 5,10,-1
 1031.28515625 0 l 5,11,-1
 951.049804688 0 l 2,12,13
 704 0 704 0 550.266601562 200.462890625 c 1,14,15
 349 0 349 0 106.23046875 0 c 2,16,-1
 -12.05078125 0 l 1,17,-1
 -12.05078125 324.264648438 l 1,18,-1
 13.578125 324.264648438 l 2,19,20
 385 324 385 324 473.287109375 398.889648438 c 1,21,22
 369 551 369 551 121.739257812 583.344726562 c 1,23,-1
 121.618164062 733.356445312 l 1,0,1
EndSplineSet
EndChar

StartChar: uniFEDA
Encoding: 65242 65242 226
Width: 2104
VWidth: 3713
GlyphClass: 2
Flags: W
AnchorPoint: "Anchor-10" 631.48 1731.14 basechar 0
AnchorPoint: "Anchor-7" 605.275 -235.886 basechar 0
LayerCount: 2
Fore
SplineSet
1217.921875 969.807617188 m 0,0,1
 1221.68359375 794.208984375 1221.68359375 794.208984375 1068.55664062 737.955078125 c 0,2,3
 1007.35742188 715.471679688 1007.35742188 715.471679688 910.946289062 718.704101562 c 128,-1,4
 814.536132812 721.936523438 814.536132812 721.936523438 705.481445312 756.209960938 c 1,5,-1
 721.165039062 916.864257812 l 1,6,7
 896.036132812 853.842773438 896.036132812 853.842773438 1038.66894531 882.892578125 c 0,8,9
 1086.84960938 892.706054688 1086.84960938 892.706054688 1098.19042969 910.154296875 c 0,10,11
 1123.22167969 948.666992188 1123.22167969 948.666992188 1095.63867188 968.573242188 c 128,-1,12
 1068.05566406 988.479492188 1068.05566406 988.479492188 996.084960938 1003.66699219 c 128,-1,13
 924.115234375 1018.85253906 924.115234375 1018.85253906 884.2734375 1047.59277344 c 0,14,15
 804.390625 1105.09667969 804.390625 1105.09667969 807.146484375 1221.67578125 c 0,16,17
 812.533203125 1412.43261719 812.533203125 1412.43261719 1133.49414062 1453.40429688 c 0,18,19
 1172.61132812 1458.45898438 1172.61132812 1458.45898438 1183.51855469 1443.10742188 c 128,-1,20
 1194.42578125 1427.75683594 1194.42578125 1427.75683594 1186.75195312 1405.796875 c 2,21,-1
 1148.18359375 1295.41699219 l 1,22,23
 1027.72363281 1283.59570312 1027.72363281 1283.59570312 966.821289062 1262.65039062 c 128,-1,24
 905.918945312 1241.70507812 905.918945312 1241.70507812 904.635742188 1204.68164062 c 0,25,26
 903.076171875 1167.63867188 903.076171875 1167.63867188 1065.68066406 1139.00878906 c 0,27,28
 1135.85351562 1127.16601562 1135.85351562 1127.16601562 1175.9765625 1082.05175781 c 128,-1,29
 1216.10058594 1036.93847656 1216.10058594 1036.93847656 1217.921875 969.807617188 c 0,0,1
900.345703125 0 m 0,30,31
 479 0 479 0 297.043945312 99.7861328125 c 0,32,33
 27 248 27 248 102.208984375 652.392578125 c 0,34,35
 121 753 121 753 185.948242188 882.258789062 c 1,36,-1
 303.756835938 839.514648438 l 1,37,38
 237 592 237 592 308.157226562 486.35546875 c 0,39,40
 412 333 412 333 798.928710938 322.102539062 c 0,41,42
 1303 307 1303 307 1563.796875 457.926757812 c 0,43,44
 1609 484 1609 484 1613.05664062 569.34765625 c 0,45,46
 1616 627 1616 627 1609.99023438 961.393554688 c 0,47,48
 1605 1228 1605 1228 1579.58984375 1427.85839844 c 1,49,-1
 1785.45507812 1553.06542969 l 2,50,51
 1839.08692067 1586.05346343 1839.08692067 1586.05346343 1839.18652344 1511.58984375 c 6,52,-1
 1840.36621094 629.6484375 l 2,53,54
 1841.01326535 519.746893531 1841.01326535 519.746893531 1897.99414062 441.390625 c 0,55,56
 1955.34655745 362.5234375 1955.34655745 362.5234375 2071.67871094 362.5234375 c 2,57,-1
 2115.19726562 362.5234375 l 1,58,-1
 2115.19726562 -0.87109375 l 1,59,-1
 2092.09570312 -0.87109375 l 2,60,61
 1796.40375156 -0.999824225416 1796.40375156 -0.999824225416 1695.6953125 208.728515625 c 2,62,-1
 1689.00976562 222.651367188 l 1,63,-1
 1678.35742188 211.469726562 l 2,64,65
 1477 0 1477 0 900.345703125 0 c 0,30,31
EndSplineSet
EndChar

StartChar: uniFEDB
Encoding: 65243 65243 227
Width: 1020
VWidth: 3732
GlyphClass: 2
Flags: W
AnchorPoint: "Anchor-10" 355.253 1676.94 basechar 0
AnchorPoint: "Anchor-7" 335.081 -273.552 basechar 0
LayerCount: 2
Fore
SplineSet
28.7421875 959.029296875 m 1,0,-1
 100.567382812 1254.46386719 l 5,1,-1
 929 1550.31231154 l 6,2,3
 978.126953125 1567.85644531 978.126953125 1567.85644531 969.513709522 1511 c 6,4,-1
 936.05859375 1290.16113281 l 5,5,-1
 286.07421875 1064.52050781 l 5,6,7
 471 913 471 913 549.596679688 830.9375 c 0,8,9
 733 640 733 640 724.26171875 457.063476562 c 0,10,11
 717 287 717 287 610.986328125 178.072265625 c 0,12,13
 438 0 438 0 74.15234375 0 c 2,14,-1
 -11.609375 0 l 1,15,-1
 -11.609375 324.264648438 l 1,16,-1
 96.5673828125 324.264648438 l 2,17,18
 400 324 400 324 486.318359375 389.159179688 c 0,19,20
 539 428 539 428 526.161132812 475.38671875 c 0,21,22
 496 585 496 585 28.7421875 959.029296875 c 1,0,-1
EndSplineSet
EndChar

StartChar: uniFEDC
Encoding: 65244 65244 228
Width: 1212
VWidth: 3732
GlyphClass: 2
Flags: W
AnchorPoint: "Anchor-10" 254.919 1672.78 basechar 0
AnchorPoint: "Anchor-7" 404.945 -208.715 basechar 0
LayerCount: 2
Fore
SplineSet
286.07421875 1064.52050781 m 5,0,1
 548 829 548 829 779.1640625 590.309570312 c 0,2,3
 1036.43258019 324.553147958 1036.43258019 324.553147958 1203.55957031 324.264648438 c 2,4,-1
 1224.49121094 324.228515625 l 1,5,-1
 1224.49121094 0 l 1,6,-1
 1203.99121094 0 l 2,7,8
 957 0 957 0 706.12890625 329.59765625 c 1,9,10
 677 261 677 261 643.400390625 218.928710938 c 0,11,12
 467 0 467 0 95.486328125 0 c 2,13,-1
 -11.609375 0 l 1,14,-1
 -11.609375 324.264648438 l 1,15,-1
 95.5 324.264648438 l 2,16,17
 400 324 400 324 485.811523438 380.012695312 c 0,18,19
 535 412 535 412 535.430664062 453.330078125 c 0,20,21
 535 524 535 524 28.7431640625 959.01171875 c 1,22,-1
 100.567382812 1254.46386719 l 5,23,-1
 929 1550.3125 l 6,24,25
 978.157252123 1568.0567632 978.157252123 1568.0567632 969.513671875 1511 c 6,26,-1
 936.05859375 1290.16113281 l 5,27,-1
 286.07421875 1064.52050781 l 5,0,1
EndSplineSet
EndChar

StartChar: uniFEDE
Encoding: 65246 65246 230
Width: 1489
VWidth: 3753
GlyphClass: 2
Flags: W
AnchorPoint: "Anchor-10" 560.04 1245.76 basechar 0
AnchorPoint: "Anchor-7" 537.188 -845.519 basechar 0
LayerCount: 2
Fore
SplineSet
1264.55664062 593.099609375 m 2,0,1
 1267.33668066 418.763912716 1267.33668066 418.763912716 1344.07128906 364.956054688 c 0,2,3
 1402.61921646 324.264648438 1402.61921646 324.264648438 1471.53417969 324.264648438 c 2,4,-1
 1501.71386719 324.264648438 l 1,5,-1
 1501.71386719 0 l 1,6,-1
 1484.30566406 0 l 2,7,8
 1348 0 1348 0 1277.49902344 66.1328125 c 1,9,10
 1262 -203 1262 -203 1145.51171875 -352.198242188 c 0,11,12
 999 -539 999 -539 693.665039062 -539.453125 c 0,13,14
 369 -540 369 -540 224.629882812 -384.359375 c 0,15,16
 59 -205 59 -205 96.7783203125 104.161132812 c 0,17,18
 114 245 114 245 199.50390625 434.603515625 c 1,19,-1
 337.973632812 395.5390625 l 1,20,21
 229 35 229 35 348.421875 -110.205078125 c 0,22,23
 454 -240 454 -240 707.133789062 -238.200195312 c 0,24,25
 942 -236 942 -236 1031.80078125 -88.12109375 c 0,26,27
 1066 -31 1066 -31 1061.38085938 64.5751953125 c 0,28,29
 1026 711 1026 711 968.126953125 1407.19238281 c 5,30,-1
 1169 1532.43847656 l 6,31,32
 1248.78924612 1581.86943395 1248.78924612 1581.86943395 1250.28613281 1488 c 6,33,-1
 1264.55664062 593.099609375 l 2,0,1
EndSplineSet
EndChar

StartChar: uniFEDF
Encoding: 65247 65247 231
Width: 612
VWidth: 3713
GlyphClass: 2
Flags: W
AnchorPoint: "Anchor-10" 269.463 1687.69 basechar 0
AnchorPoint: "Anchor-7" 183.305 -241.562 basechar 0
LayerCount: 2
Fore
SplineSet
248.952148438 617.104492188 m 4,0,1
 236 915 236 915 187.465820312 1417.19238281 c 5,2,-1
 409.331054688 1555.52734375 l 6,3,4
 468.140828947 1592.08754897 468.140828947 1592.08754897 469.010742188 1536.92382812 c 6,5,-1
 483.89453125 593.099609375 l 6,6,7
 488 341 488 341 425.59765625 214.663085938 c 4,8,9
 321 0 321 0 10.892578125 0 c 6,10,-1
 -11.203125 0 l 5,11,-1
 -11.203125 324.264648438 l 5,12,-1
 16.5546875 324.264648438 l 6,13,14
 195 324 195 324 235 388 c 4,15,16
 258 425 258 425 248.952148438 617.104492188 c 4,0,1
EndSplineSet
EndChar

StartChar: uniFEE0
Encoding: 65248 65248 232
Width: 689
VWidth: 3713
GlyphClass: 2
Flags: W
AnchorPoint: "Anchor-10" 360.934 1658.75 basechar 0
AnchorPoint: "Anchor-7" 295.028 -238.129 basechar 0
LayerCount: 2
Fore
SplineSet
354.552734375 167.865234375 m 5,0,1
 243 0 243 0 56.5390625 0 c 6,2,-1
 -11.466796875 0 l 5,3,-1
 -11.466796875 324.264648438 l 5,4,-1
 8.40234375 324.264648438 l 6,5,6
 147 324 147 324 202.44140625 370.68359375 c 4,7,8
 264 422 264 422 256.413085938 618.908203125 c 4,9,10
 234 1191 234 1191 211.198242188 1427.85839844 c 5,11,-1
 437.331054688 1556.89648438 l 6,12,13
 489.51953125 1586.7253828 489.51953125 1586.7253828 489.51953125 1519 c 6,14,-1
 489.51953125 641.713867188 l 6,15,16
 490 441 490 441 516.271484375 382.397460938 c 4,17,18
 542.87887042 324.264648438 542.87887042 324.264648438 663.87109375 324.264648438 c 6,19,-1
 701.206054688 324.264648438 l 5,20,-1
 701.206054688 0 l 5,21,-1
 653.404296875 0 l 6,22,23
 441 0 441 0 354.552734375 167.865234375 c 5,0,1
EndSplineSet
EndChar

StartChar: uniFEE2
Encoding: 65250 65250 234
Width: 1306
VWidth: 3789
GlyphClass: 2
Flags: W
AnchorPoint: "Anchor-10" 615.051 1180.9 basechar 0
AnchorPoint: "Anchor-7" 247.183 -757.644 basechar 0
LayerCount: 2
Fore
SplineSet
1295.0859375 0 m 2,0,1
 1218 0 1218 0 1123.2890625 83.4287109375 c 1,2,-1
 1118.21679688 68.080078125 l 2,3,4
 1031 -195 1031 -195 833.594726562 -193.065429688 c 0,5,6
 632 -191 632 -191 552.638671875 -3.0185546875 c 0,7,8
 516.21523957 81.5005452927 516.21523957 81.5005452927 523.448242188 289.447265625 c 2,9,-1
 525.125976562 337.681640625 l 1,10,11
 370 286 370 286 305.797851562 182.833984375 c 1,12,-1
 320.3984375 -277.46484375 l 2,13,14
 325.654538824 -449.68096698 325.654538824 -449.68096698 165.676707746 -599 c 0,15,16
 112.509642762 -648.624717865 112.509642762 -648.624717865 109.570310342 -566 c 6,17,-1
 96.0966796875 -187.255859375 l 2,18,19
 88 27 88 27 101.734375 181.771484375 c 0,20,21
 116 349 116 349 224.1328125 458.647460938 c 0,22,23
 357 594 357 594 564.356445312 618.623046875 c 1,24,25
 595 765 595 765 627.807617188 776.836914062 c 0,26,27
 639.263231819 781.097910937 639.263231819 781.097910937 654.704101562 769.551757812 c 2,28,-1
 1161.28222656 390.75 l 2,29,30
 1249.64825438 324.264648438 1249.64825438 324.264648438 1301.32519531 324.264648438 c 2,31,-1
 1318.77441406 324.264648438 l 1,32,-1
 1318.77441406 0 l 1,33,-1
 1295.0859375 0 l 2,0,1
693.454101562 426.301757812 m 2,34,35
 685.83203125 300.626953125 685.83203125 300.626953125 693.241210938 220.87109375 c 0,36,37
 701.288085938 138.42578125 701.288085938 138.42578125 744.2890625 104.649414062 c 0,38,39
 787.172851562 71.1123046875 787.172851562 71.1123046875 872.4140625 79.216796875 c 0,40,41
 930.583007812 84.8837890625 930.583007812 84.8837890625 962.483398438 147.583007812 c 0,42,43
 1023.3125 266.8671875 1023.3125 266.8671875 709.134765625 435.059570312 c 2,44,-1
 694.4609375 442.915039062 l 1,45,-1
 693.454101562 426.301757812 l 2,34,35
EndSplineSet
EndChar

StartChar: uniFEE3
Encoding: 65251 65251 235
Width: 1019
VWidth: 3756
GlyphClass: 2
Flags: W
AnchorPoint: "Anchor-10" 543.686 1178.5 basechar 0
AnchorPoint: "Anchor-7" 529.424 -289.974 basechar 0
LayerCount: 2
Fore
SplineSet
291.865234375 177.065429688 m 1,0,1
 148 0 148 0 2.71875 0 c 2,2,-1
 -11.8828125 0 l 1,3,-1
 -11.884765625 324.264648438 l 1,4,-1
 21.216796875 324.264648438 l 2,5,6
 160 324 160 324 256.665039062 457.596679688 c 0,7,8
 372 618 372 618 456.130859375 697.595703125 c 0,9,10
 532 768 532 768 626.795898438 768.8984375 c 0,11,12
 690 769 690 769 750.528320312 734.928710938 c 0,13,14
 892 654 892 654 928.327148438 481.063476562 c 0,15,16
 982.346815461 220.326021135 982.346815461 220.326021135 812.061523438 55.466796875 c 0,17,18
 760 5 760 5 705.728515625 -15.9384765625 c 0,19,20
 662 -33 662 -33 607.595703125 -17.60546875 c 0,21,22
 465 24 465 24 291.865234375 177.065429688 c 1,0,1
453.376953125 409.591796875 m 5,23,24
 605 252 605 252 695.0625 250.499023438 c 4,25,26
 735 250 735 250 752.662109375 269.865234375 c 4,27,28
 773 291 773 291 762.26171875 354.130859375 c 4,29,30
 752 414 752 414 718.528320312 465.063476562 c 4,31,32
 679 525 679 525 638.728515625 540.373046875 c 4,33,34
 605.066600027 553.149937929 605.066600027 553.149937929 580 535.172870106 c 4,35,36
 516.29411145 489.48478006 516.29411145 489.48478006 453.376953125 409.591796875 c 5,23,24
EndSplineSet
EndChar

StartChar: uniFEE4
Encoding: 65252 65252 236
Width: 1150
VWidth: 3756
GlyphClass: 2
Flags: W
AnchorPoint: "Anchor-10" 561.076 1159.9 basechar 0
AnchorPoint: "Anchor-7" 503.449 -290.993 basechar 0
LayerCount: 2
Fore
SplineSet
451.244140625 348.79296875 m 5,0,1
 602.8671875 191.201171875 602.8671875 191.201171875 692.9296875 189.700195312 c 4,2,3
 732.8671875 189.201171875 732.8671875 189.201171875 750.529296875 209.06640625 c 4,4,5
 770.8671875 230.201171875 770.8671875 230.201171875 760.12890625 293.33203125 c 4,6,7
 749.8671875 353.201171875 749.8671875 353.201171875 716.395507812 404.264648438 c 4,8,9
 676.8671875 464.201171875 676.8671875 464.201171875 636.595703125 479.57421875 c 4,10,11
 602.93359375 492.3515625 602.93359375 492.3515625 577.8671875 474.374023438 c 4,12,13
 514.161132812 428.685546875 514.161132812 428.685546875 451.244140625 348.79296875 c 5,0,1
948.662109375 423.463867188 m 0,14,15
 994.876706479 324.264648438 994.876706479 324.264648438 1137.01464844 324.264648438 c 2,16,-1
 1162.4453125 324.264648438 l 1,17,-1
 1162.4453125 0 l 1,18,-1
 1148.11425781 0 l 2,19,20
 987 0 987 0 894.52734375 109.866210938 c 1,21,22
 849 22 849 22 755.862304688 -48 c 0,23,24
 732 -66 732 -66 691.862304688 -79.388671875 c 0,25,26
 648 -94 648 -94 604.396484375 -81.9169921875 c 0,27,28
 461 -43 461 -43 281.198242188 117.333007812 c 1,29,30
 200 0 200 0 2.71875 0 c 2,31,-1
 -11.8828125 0 l 1,32,-1
 -11.884765625 324.264648438 l 1,33,-1
 21.216796875 324.264648438 l 2,34,35
 189 324 189 324 280.131835938 433.063476562 c 0,36,37
 424 606 424 606 456.130859375 633.595703125 c 0,38,39
 539 702 539 702 627.862304688 702.9140625 c 0,40,41
 701 704 701 704 752.662109375 673.0625 c 0,42,43
 863 607 863 607 948.662109375 423.463867188 c 0,14,15
EndSplineSet
EndChar

StartChar: uniFEEA
Encoding: 65258 65258 242
Width: 1036
VWidth: 3740
GlyphClass: 2
Flags: W
AnchorPoint: "Anchor-10" 621.045 1630.49 basechar 0
AnchorPoint: "Anchor-7" 459.202 -229.801 basechar 0
LayerCount: 2
Fore
SplineSet
251.51171875 511.286132812 m 0,0,1
 303.008273822 459.984198841 303.008273822 459.984198841 548.403320312 455.280273438 c 0,2,3
 558.718641617 455.030968409 558.718641617 455.030968409 635.2421875 456.833007812 c 2,4,-1
 648.263671875 457.139648438 l 1,5,-1
 591.168945312 709.072265625 l 1,6,-1
 580.131835938 705.626953125 l 2,7,8
 299 618 299 618 251.108398438 548.75390625 c 0,9,10
 236 527 236 527 251.51171875 511.286132812 c 0,0,1
1030.58789062 0 m 2,11,12
 789.42069482 0 789.42069482 0 688.805664062 262.046875 c 2,13,-1
 683.14453125 276.791015625 l 1,14,-1
 518.663085938 123.739257812 l 1,15,16
 405 126 405 126 260.2265625 153.966796875 c 0,17,18
 107 183 107 183 96.71484375 259.865234375 c 0,19,20
 67 498 67 498 101.466796875 605.640625 c 0,21,22
 148.179276987 747.544610754 148.179276987 747.544610754 544.0078125 929.51171875 c 2,23,-1
 551.534179688 932.971679688 l 1,24,-1
 533.330078125 1018.66015625 l 1,25,-1
 646.75 1145.59277344 l 2,26,27
 702.252498581 1208.28520789 702.252498581 1208.28520789 719.7109375 1122.12597656 c 2,28,-1
 842.475585938 516.26953125 l 2,29,30
 880.946973262 324.264648438 880.946973262 324.264648438 1021.3125 324.264648438 c 2,31,-1
 1048.39160156 324.264648438 l 1,32,-1
 1048.39160156 0 l 1,33,-1
 1030.58789062 0 l 2,11,12
EndSplineSet
EndChar

StartChar: uniFEEB
Encoding: 65259 65259 243
Width: 1257
VWidth: 3747
GlyphClass: 2
Flags: W
AnchorPoint: "Anchor-10" 526.316 1543.63 basechar 0
AnchorPoint: "Anchor-7" 573.812 -234.537 basechar 0
LayerCount: 2
Fore
SplineSet
659.40625 427.6796875 m 5,0,1
 848.876953125 358.760742188 848.876953125 358.760742188 917.513671875 353.026367188 c 5,2,3
 1051.75292969 550.762695312 1051.75292969 550.762695312 777.044921875 673.127929688 c 6,4,-1
 762.78515625 679.479492188 l 5,5,6
 761.23828125 538.983398438 761.23828125 538.983398438 659.40625 427.6796875 c 5,0,1
508.219726562 174.71484375 m 5,7,8
 301 0 301 0 47.8837890625 0 c 6,9,-1
 -11.58984375 0 l 5,10,-1
 -11.58984375 324.264648438 l 5,11,-1
 279.575195312 324.370117188 l 5,12,13
 196 354 196 354 164.900390625 395.432617188 c 4,14,15
 113 464 113 464 146.446289062 616.282226562 c 4,16,17
 188.874805852 806.438903245 188.874805852 806.438903245 334.291015625 900.271484375 c 6,18,-1
 350.66015625 910.833984375 l 5,19,-1
 207.388671875 971.973632812 l 5,20,-1
 285 1207 l 5,21,-1
 682.987304688 1014.34667969 l 6,22,23
 1241.06181024 744.200106644 1241.06181024 744.200106644 1124.39746094 366.506835938 c 4,24,25
 1119 349 1119 349 1111.79003906 330.817382812 c 4,26,27
 1024 104 1024 104 942.741210938 99.0263671875 c 4,28,29
 782 89 782 89 508.219726562 174.71484375 c 5,7,8
522.747070312 479.302734375 m 5,30,31
 594 519 594 519 614.97265625 599.810546875 c 4,32,33
 636 680 636 680 618.026367188 723.224609375 c 4,34,35
 602 761 602 761 542.204101562 781.94921875 c 4,36,37
 430 822 430 822 338.82421875 686.173828125 c 4,38,39
 242 544 242 544 522.747070312 479.302734375 c 5,30,31
EndSplineSet
EndChar

StartChar: uniFEEC
Encoding: 65260 65260 244
Width: 1090
VWidth: 3775
GlyphClass: 2
Flags: W
AnchorPoint: "Anchor-7" 361.199 -671.918 basechar 0
AnchorPoint: "Anchor-10" 484.953 1370.17 basechar 0
LayerCount: 2
Fore
SplineSet
338.79296875 326.995117188 m 5,0,1
 632.529296875 338.130859375 632.529296875 338.130859375 654.045898438 456.368164062 c 4,2,3
 670.928710938 551.462890625 670.928710938 551.462890625 515.966796875 731.51171875 c 5,4,5
 365.864257812 482.129882812 365.864257812 482.129882812 338.79296875 326.995117188 c 5,0,1
639.059570312 -583.756835938 m 5,6,7
 236.798828125 -298.665039062 236.798828125 -298.665039062 182.346679688 0 c 5,8,-1
 -12.3134765625 0 l 5,9,-1
 -12.3134765625 324.264648438 l 5,10,-1
 174.189453125 324.264648438 l 5,11,12
 214.3984375 641.0625 214.3984375 641.0625 441.41015625 920.28515625 c 4,13,14
 527.997070312 1026.12695312 527.997070312 1026.12695312 610.653320312 969.55859375 c 4,15,16
 709.329101562 902.39453125 709.329101562 902.39453125 781.959960938 767.415039062 c 4,17,18
 927.994140625 493.86328125 927.994140625 493.86328125 659.196289062 181.33203125 c 4,19,20
 541.86328125 44.7998046875 541.86328125 44.7998046875 352.004882812 -1.306640625 c 5,21,22
 413.864257812 -120.532226562 413.864257812 -120.532226562 594.331054688 -227.098632812 c 5,23,-1
 605.397460938 -190.850585938 l 6,24,25
 762.662109375 324.264648438 762.662109375 324.264648438 1073.76367188 324.264648438 c 6,26,-1
 1102.81835938 324.264648438 l 5,27,-1
 1102.81835938 0 l 5,28,-1
 1085.53417969 0 l 6,29,30
 905.594726562 0 905.594726562 0 828.947265625 -101.33203125 c 4,31,32
 767.995117188 -183.465820312 767.995117188 -183.465820312 834.338867188 -451.317382812 c 5,33,-1
 639.059570312 -583.756835938 l 5,6,7
EndSplineSet
EndChar

StartChar: uniFEEE
Encoding: 65262 65262 246
Width: 872
VWidth: 3781
GlyphClass: 2
Flags: W
AnchorPoint: "Anchor-10" 389.424 1264.08 basechar 0
AnchorPoint: "Anchor-7" 301.492 -727.232 basechar 0
LayerCount: 2
Fore
SplineSet
758.439453125 1 m 21,0,1
 742 -87 742 -87 722.2734375 -145.512695312 c 4,2,3
 622 -444 622 -444 247.239257812 -591.474609375 c 0,4,5
 223 -601 223 -601 210.165039062 -582.963867188 c 0,6,7
 68 -383 68 -383 66.6220703125 -380.475585938 c 0,8,9
 53 -352 53 -352 86.7509765625 -338.803710938 c 0,10,11
 479 -189 479 -189 543 -1 c 1,12,-1
 456.478515625 -0.5302734375 l 2,13,14
 254 1 254 1 166.798828125 94.9326171875 c 0,15,16
 60 210 60 210 145.46484375 502.396484375 c 0,17,18
 191 660 191 660 269.198242188 732.795898438 c 0,19,20
 332 791 332 791 423.752929688 793.365234375 c 0,21,22
 608 799 608 799 694.774414062 596.471679688 c 0,23,24
 754 458 754 458 764.279296875 323.479492188 c 1,25,-1
 884.338867188 324.295898438 l 1,26,-1
 884.338867188 0 l 1,27,-1
 758.439453125 1 l 21,0,1
585.087890625 320.495117188 m 1,28,29
 528 550 528 550 371.59765625 525.86328125 c 0,30,31
 310 516 310 516 285.198242188 442.6640625 c 0,32,33
 250 336 250 336 379.063476562 322.130859375 c 0,34,35
 447.838867188 314.248046875 447.838867188 314.248046875 503.86328125 316.797851562 c 2,36,-1
 585.087890625 320.495117188 l 1,28,29
EndSplineSet
EndChar

StartChar: uniFEF0
Encoding: 65264 65264 248
Width: 1539
VWidth: 3753
GlyphClass: 2
Flags: W
AnchorPoint: "Anchor-10" 730.206 793.074 basechar 0
AnchorPoint: "Anchor-7" 414.979 -801.538 basechar 0
LayerCount: 2
Fore
SplineSet
359.895507812 397.287109375 m 1,0,1
 260 112 260 112 318.12890625 -41.3935546875 c 0,2,3
 399 -254 399 -254 764.212890625 -246.962890625 c 0,4,5
 1053 -242 1053 -242 1171.7265625 -138.350585938 c 4,6,7
 1196 -117 1196 -117 1193.81445312 -100.14453125 c 4,8,9
 1192 -84 1192 -84 1178.95214844 -71.611328125 c 4,10,11
 1125 -18 1125 -18 881.594726562 3.1611328125 c 4,12,13
 849 6 849 6 853.547851562 53.962890625 c 4,14,15
 882.027884377 324.264648438 882.027884377 324.264648438 979.348632812 324.264648438 c 6,16,-1
 1551.45019531 324.264648438 l 5,17,-1
 1551.45019531 0 l 5,18,-1
 1333.75292969 0 l 5,19,20
 1399 -74 1399 -74 1362.66308594 -185.913085938 c 4,21,22
 1321 -314 1321 -314 1199.6171875 -402.669921875 c 4,23,24
 999 -547 999 -547 723.586914062 -548.794921875 c 0,25,26
 402 -551 402 -551 238.296875 -379.483398438 c 0,27,28
 76 -209 76 -209 117.625976562 104.389648438 c 0,29,30
 143 294 143 294 221.788085938 433.638671875 c 1,31,-1
 359.895507812 397.287109375 l 1,0,1
EndSplineSet
EndChar

StartChar: uniFEFB
Encoding: 65275 65275 259
Width: 1304
VWidth: 3713
GlyphClass: 3
Flags: W
AnchorPoint: "Anchor-9" 978.898 1656.79 baselig 0
AnchorPoint: "Anchor-6" 937.449 -171.557 baselig 0
AnchorPoint: "Anchor-6" 300.544 -256.293 baselig 1
AnchorPoint: "Anchor-9" 170.384 1519.48 baselig 1
LayerCount: 2
Fore
SplineSet
1007.99414062 151.465820312 m 24,0,1
 775 -51 775 -51 218.911132812 -29.896484375 c 1,2,3
 197 83 197 83 183.465820312 148.265625 c 0,4,5
 169 221 169 221 172.798828125 229.33203125 c 0,6,7
 183 254 183 254 262.838867188 256.627929688 c 0,8,9
 446 262 446 262 551.30078125 286.65625 c 1,10,-1
 80.83984375 1218.5859375 l 5,11,-1
 297.168945312 1367.31640625 l 5,12,-1
 766.928710938 351.998046875 l 1,13,14
 933 453 933 453 929.615234375 585.104492188 c 0,15,16
 919 983 919 983 880.794921875 1407.19238281 c 5,17,-1
 1102.66015625 1545.52734375 l 6,18,19
 1161.87452529 1581.92287819 1161.87452529 1581.92287819 1162.53515625 1497 c 6,20,-1
 1169.05761719 658.549804688 l 2,21,22
 1172 293 1172 293 1007.99414062 151.465820312 c 24,0,1
EndSplineSet
LCarets2: 1 0
Ligature2: "'rlig' Required Ligatures in Arabic lookup 16 subtable" uniFEDF uniFE8E
EndChar

StartChar: uniFEFC
Encoding: 65276 65276 260
Width: 1368
VWidth: 3713
GlyphClass: 3
Flags: W
AnchorPoint: "Anchor-9" 989.549 1692.62 baselig 0
AnchorPoint: "Anchor-6" 945.296 -200.599 baselig 0
AnchorPoint: "Anchor-6" 272.531 -247.661 baselig 1
AnchorPoint: "Anchor-9" 151.439 1542.33 baselig 1
LayerCount: 2
Fore
SplineSet
929.615234375 585.104492188 m 0,0,1
 934 885 934 885 880.794921875 1407.19238281 c 5,2,-1
 1103.7265625 1546.37792969 l 6,3,4
 1161.89566129 1582.93442811 1161.89566129 1582.93442811 1162.33789062 1525.85644531 c 6,5,-1
 1169.05761719 658.549804688 l 2,6,7
 1171 400 1171 400 1268.31054688 345.1953125 c 0,8,9
 1305.52940279 324.264648438 1305.52940279 324.264648438 1344.61132812 324.264648438 c 2,10,-1
 1381.26171875 324.264648438 l 1,11,-1
 1381.26171875 0 l 1,12,-1
 1314.27929688 0 l 2,13,14
 1090 0 1090 0 997.327148438 183.465820312 c 1,15,16
 730 -51 730 -51 218.911132812 -29.896484375 c 1,17,18
 197 83 197 83 183.465820312 148.265625 c 0,19,20
 169 221 169 221 172.798828125 229.33203125 c 0,21,22
 183 254 183 254 262.838867188 256.627929688 c 0,23,24
 446 262 446 262 551.30078125 286.65625 c 1,25,-1
 80.83984375 1218.5859375 l 5,26,-1
 297.168945312 1377.31640625 l 5,27,-1
 766.928710938 351.998046875 l 1,28,29
 928 450 928 450 929.615234375 585.104492188 c 0,0,1
EndSplineSet
LCarets2: 1 0
Ligature2: "'rlig' Required Ligatures in Arabic lookup 16 subtable" uniFEE0 uniFE8E
EndChar

StartChar: arabic_dot
Encoding: 65536 -1 261
Width: 233
VWidth: 3240
GlyphClass: 2
Flags: W
LayerCount: 2
Fore
SplineSet
116.03125 305.044921875 m 1,0,-1
 293.885742188 127.189453125 l 1,1,-1
 116.03125 -50.6669921875 l 1,2,-1
 -61.82421875 127.189453125 l 1,3,-1
 116.03125 305.044921875 l 1,0,-1
EndSplineSet
EndChar

StartChar: arabic_2dots
Encoding: 65537 -1 262
Width: 612
VWidth: 3240
GlyphClass: 2
Flags: W
LayerCount: 2
Fore
SplineSet
133.5390625 292.612304688 m 5,0,-1
 303.833984375 122.318359375 l 5,1,-1
 133.5390625 -47.9775390625 l 5,2,-1
 -36.7548828125 122.318359375 l 5,3,-1
 133.5390625 292.612304688 l 5,0,-1
477.002929688 292.612304688 m 1,4,-1
 647.297851562 122.318359375 l 1,5,-1
 477.002929688 -47.9775390625 l 1,6,-1
 306.709960938 122.318359375 l 1,7,-1
 477.002929688 292.612304688 l 1,4,-1
EndSplineSet
EndChar

StartChar: arabic_3dots
Encoding: 65538 -1 263
Width: 590
VWidth: 3240
GlyphClass: 2
Flags: W
LayerCount: 2
Fore
SplineSet
295.639648438 516.36328125 m 5,0,-1
 457.8671875 354.1328125 l 5,1,-1
 295.639648438 191.90234375 l 5,2,-1
 133.409179688 354.1328125 l 5,3,-1
 295.639648438 516.36328125 l 5,0,-1
282.094726562 97.564453125 m 1,4,-1
 119.8671875 -64.666015625 l 1,5,-1
 -42.36328125 97.564453125 l 1,6,-1
 119.8671875 259.793945312 l 1,7,-1
 282.094726562 97.564453125 l 1,4,-1
309.481445312 97.564453125 m 1,8,-1
 471.709960938 259.793945312 l 1,9,-1
 633.9375 97.564453125 l 1,10,-1
 471.709960938 -64.666015625 l 1,11,-1
 309.481445312 97.564453125 l 1,8,-1
EndSplineSet
EndChar

StartChar: arabic_3dots_a
Encoding: 65539 -1 264
Width: 636
VWidth: 3240
GlyphClass: 2
Flags: W
LayerCount: 2
Fore
SplineSet
318.874023438 -282.247070312 m 5,0,-1
 156.646484375 -120.016601562 l 5,1,-1
 318.874023438 42.2138671875 l 5,2,-1
 481.104492188 -120.016601562 l 5,3,-1
 318.874023438 -282.247070312 l 5,0,-1
332.418945312 136.552734375 m 1,4,-1
 494.646484375 298.782226562 l 1,5,-1
 656.876953125 136.552734375 l 1,6,-1
 494.646484375 -25.677734375 l 1,7,-1
 332.418945312 136.552734375 l 1,4,-1
305.032226562 136.552734375 m 1,8,-1
 142.8046875 -25.677734375 l 1,9,-1
 -19.423828125 136.552734375 l 1,10,-1
 142.8046875 298.782226562 l 1,11,-1
 305.032226562 136.552734375 l 1,8,-1
EndSplineSet
EndChar

StartChar: uni066E.fina
Encoding: 65540 -1 265
Width: 1967
VWidth: 3753
GlyphClass: 2
Flags: W
AnchorPoint: "Anchor-10" 1044.57 1800.45 basechar 0
AnchorPoint: "Anchor-7" 975.416 -367.902 basechar 0
LayerCount: 2
Fore
SplineSet
1590.83105469 242.145507812 m 5,0,1
 1367 0 1367 0 850.345703125 0 c 4,2,3
 479 0 479 0 297.043945312 99.7861328125 c 4,4,5
 85 217 85 217 86.4404296875 492.796875 c 4,6,7
 87 687 87 687 185.948242188 882.258789062 c 5,8,-1
 303.756835938 839.514648438 l 5,9,10
 237 594 237 594 308.154296875 486.359375 c 4,11,12
 409 334 409 334 789.373046875 322.237304688 c 4,13,14
 1205 309 1205 309 1420.43554688 417.731445312 c 4,15,16
 1570 493 1570 493 1606.65625 651.729492188 c 5,17,-1
 1723.5078125 633.090820312 l 5,18,19
 1696 421 1696 421 1843.92773438 339.8828125 c 4,20,21
 1872.51558141 324.264648438 1872.51558141 324.264648438 1956.6875 324.264648438 c 6,22,-1
 1978.40429688 324.264648438 l 5,23,-1
 1978.40429688 0 l 5,24,-1
 1953.80078125 0 l 6,25,26
 1677 0 1677 0 1590.83105469 242.145507812 c 5,0,1
EndSplineSet
EndChar

StartChar: uni06A1.fina
Encoding: 65543 -1 268
Width: 1955
VWidth: 3748
GlyphClass: 2
Flags: W
AnchorPoint: "Anchor-10" 750.929 1980.5 basechar 0
AnchorPoint: "Anchor-7" 888.113 -452.891 basechar 0
LayerCount: 2
Fore
SplineSet
1249.46191406 361.790039062 m 5,0,1
 1149 477 1149 477 1148.99707031 629.083984375 c 0,2,3
 1148.04201395 741.548865336 1148.04201395 741.548865336 1224.34179688 857.125976562 c 0,4,5
 1330 1016 1330 1016 1481.92871094 1015.80761719 c 0,6,7
 1611 1015 1611 1015 1719.24316406 859.649414062 c 0,8,9
 1792.36540966 753.469392583 1792.36540966 753.469392583 1792.22460938 645.3984375 c 4,10,11
 1792 473 1792 473 1675.61621094 355.041992188 c 5,12,13
 1774.15270372 324.264648438 1774.15270372 324.264648438 1929.29101562 324.264648438 c 2,14,-1
 1967.02636719 324.264648438 l 1,15,-1
 1967.02636719 0 l 1,16,-1
 1910.41796875 0 l 2,17,18
 1662 0 1662 0 1464.71582031 189.546875 c 1,19,20
 1219 0 1219 0 818.3359375 0 c 0,21,22
 481 0 481 0 297.099609375 99.755859375 c 0,23,24
 27 246 27 246 102.202148438 652.354492188 c 0,25,26
 121 754 121 754 186.021484375 882.223632812 c 1,27,-1
 303.756835938 839.513671875 l 1,28,29
 237 592 237 592 308.155273438 486.357421875 c 0,30,31
 406 341 406 341 798.98828125 322.099609375 c 0,32,33
 1040 310 1040 310 1249.46191406 361.790039062 c 5,0,1
1345.85644531 499.868164062 m 0,34,35
 1426 430 1426 430 1471.41699219 430.356445312 c 0,36,37
 1516 430 1516 430 1573.57714844 484.598632812 c 0,38,39
 1631 540 1631 540 1630.64453125 581.310546875 c 0,40,41
 1630 624 1630 624 1574.34375 676.025390625 c 0,42,43
 1520 728 1520 728 1465.02539062 728.26953125 c 0,44,45
 1413 729 1413 729 1360.98144531 672.4765625 c 0,46,47
 1310 617 1310 617 1309.91796875 573.798828125 c 0,48,49
 1310 531 1310 531 1345.85644531 499.868164062 c 0,34,35
EndSplineSet
EndChar

StartChar: uni06A1.init
Encoding: 65544 -1 269
Width: 846
VWidth: 3781
GlyphClass: 2
Flags: W
AnchorPoint: "Anchor-10" 487.044 2042.04 basechar 0
AnchorPoint: "Anchor-7" 434.877 -364.243 basechar 0
LayerCount: 2
Fore
SplineSet
573.142578125 750.815429688 m 5,0,1
 528.263671875 940.793945312 528.263671875 940.793945312 385.696289062 936.348632812 c 4,2,3
 313.864257812 934.39453125 313.864257812 934.39453125 284.64453125 856.186523438 c 4,4,5
 262.665039062 798.928710938 262.665039062 798.928710938 285.981445312 765.8828125 c 4,6,7
 311.731445312 730.662109375 311.731445312 730.662109375 413.844726562 730.853515625 c 4,8,9
 517.596679688 731.728515625 517.596679688 731.728515625 573.142578125 750.815429688 c 5,0,1
169.006835938 324.264648438 m 6,10,11
 560.460228844 324.264648436 560.460228844 324.264648436 572.137695312 463.165039062 c 6,12,-1
 573.26953125 476.627929688 l 5,13,14
 455 458 455 458 379.997070312 458.283203125 c 4,15,16
 145 460 145 460 118.666015625 625.0625 c 4,17,18
 106 705 106 705 124.7421875 824.473632812 c 4,19,20
 150 990 150 990 236.599609375 1091.97949219 c 4,21,22
 311 1179 311 1179 423.73046875 1178.65917969 c 4,23,24
 537 1179 537 1179 606.643554688 1091.34570312 c 4,25,26
 765 895 765 895 750.08203125 477.249023438 c 4,27,28
 741 211 741 211 601.431640625 105.279296875 c 4,29,30
 462 0 462 0 193.461914062 0 c 6,31,-1
 -11.39453125 0 l 1,32,-1
 -11.39453125 324.264648438 l 1,33,-1
 169.006835938 324.264648438 l 6,10,11
EndSplineSet
EndChar

StartChar: uni06A1.medi
Encoding: 65545 -1 270
Width: 1007
VWidth: 3748
GlyphClass: 2
Flags: W
AnchorPoint: "Anchor-10" 758.142 1701.72 basechar 0
AnchorPoint: "Anchor-7" 697.662 -357.303 basechar 0
LayerCount: 2
Fore
SplineSet
989.178710938 324.264648438 m 6,0,1
 1018.83984375 324.264648438 l 5,2,-1
 1018.83984375 0 l 5,3,-1
 950.23046875 0 l 6,4,5
 695 2 695 2 515.729492188 180.129882812 c 5,6,7
 321 0 321 0 38.2158203125 0 c 6,8,-1
 -11.1591796875 0 l 5,9,-1
 -11.1591796875 324.264648438 l 5,10,-1
 27.4912109375 324.264648438 l 6,11,12
 190 324 190 324 300.135742188 361.790039062 c 5,13,14
 201 477 201 477 201.00390625 629.083984375 c 4,15,16
 201 743 201 743 276.34765625 857.125976562 c 4,17,18
 382 1016 382 1016 533.934570312 1015.80761719 c 4,19,20
 663 1015 663 1015 771.249023438 859.649414062 c 4,21,22
 844 754 844 754 844.23046875 645.3984375 c 4,23,24
 844 479 844 479 728.956054688 355.041992188 c 5,25,26
 845 324 845 324 989.178710938 324.264648438 c 6,0,1
397.86328125 499.868164062 m 4,27,28
 478 430 478 430 523.423828125 430.356445312 c 4,29,30
 568 430 568 430 625.583007812 484.598632812 c 4,31,32
 683 540 683 540 682.650390625 581.310546875 c 4,33,34
 682 624 682 624 626.349609375 676.025390625 c 4,35,36
 572 728 572 728 517.032226562 728.26953125 c 4,37,38
 465 729 465 729 412.98828125 672.4765625 c 4,39,40
 362 617 362 617 361.924804688 573.798828125 c 4,41,42
 362 531 362 531 397.86328125 499.868164062 c 4,27,28
EndSplineSet
EndChar

StartChar: uni066F.fina
Encoding: 65546 -1 271
Width: 1437
VWidth: 3781
GlyphClass: 2
Flags: W
AnchorPoint: "Anchor-10" 464.781 763.024 basechar 0
AnchorPoint: "Anchor-7" 386.041 -875.333 basechar 0
LayerCount: 2
Fore
SplineSet
1142.41796875 320.495117188 m 5,0,1
 1086.79296875 547.196289062 1086.79296875 547.196289062 928.927734375 525.86328125 c 4,2,3
 867.061523438 516.263671875 867.061523438 516.263671875 842.528320312 442.6640625 c 4,4,5
 807.328125 335.998046875 807.328125 335.998046875 936.393554688 322.130859375 c 4,6,7
 1010.58105469 314.495117188 1010.58105469 314.495117188 1061.19335938 316.797851562 c 6,8,-1
 1142.41796875 320.495117188 l 5,0,1
980.016601562 793.365234375 m 4,9,10
 1158 799 1158 799 1249.03808594 597.471679688 c 4,11,12
 1305 473 1305 473 1308.54296875 324.264648438 c 5,13,-1
 1448.90136719 324.264648438 l 5,14,-1
 1448.90136719 0 l 5,15,-1
 1299.67773438 0 l 5,16,17
 1295 -144 1295 -144 1263.57910156 -222.739257812 c 4,18,19
 1139 -536 1139 -536 690.604492188 -535.453125 c 0,20,21
 368 -535 368 -535 224.629882812 -380.759765625 c 0,22,23
 59 -202 59 -202 96.7783203125 107.759765625 c 0,24,25
 114 249 114 249 199.50390625 438.202148438 c 1,26,-1
 337.973632812 399.137695312 l 1,27,28
 230 40 230 40 348.421875 -106.606445312 c 0,29,30
 453 -236 453 -236 707.111328125 -234.6015625 c 0,31,32
 1043 -233 1043 -233 1122.01269531 -67.541015625 c 4,33,34
 1137 -36 1137 -36 1137.89453125 0.6376953125 c 5,35,-1
 1021.17773438 -2.958984375 l 6,36,37
 814 -9 814 -9 723.061523438 94.9326171875 c 4,38,39
 618 216 618 216 701.728515625 502.396484375 c 4,40,41
 748 660 748 660 825.4609375 732.795898438 c 4,42,43
 888 791 888 791 980.016601562 793.365234375 c 4,9,10
EndSplineSet
EndChar

StartChar: arabic_gaf_bar
Encoding: 65549 -1 274
Width: 788
VWidth: 3142
GlyphClass: 2
Flags: W
LayerCount: 2
Fore
SplineSet
779.447265625 2039.67871094 m 6,0,-1
 761 1948 l 5,1,-1
 28.01953125 1693.96972656 l 1,2,-1
 63.6953125 1818.44042969 l 1,3,-1
 755.8046875 2062.04492188 l 6,4,5
 785.930888385 2072.64856074 785.930888385 2072.64856074 779.447265625 2039.67871094 c 6,0,-1
EndSplineSet
EndChar

StartChar: guillemotleft
Encoding: 171 171 284
Width: 1340
VWidth: 3386
Flags: W
LayerCount: 2
Fore
SplineSet
960.73046875 -9.9189453125 m 5,0,1
 615.581054688 466 615.581054688 466 616.541992188 538.243164062 c 4,2,3
 616.581054688 622 616.581054688 622 960.686523438 1097.07910156 c 5,4,-1
 1205.86914062 1097.07910156 l 5,5,-1
 1155.76855469 1024.84667969 l 6,6,7
 875.581054688 621 875.581054688 621 875.002929688 537.725585938 c 4,8,9
 874.581054688 466.057617188 874.581054688 466.057617188 1155.69042969 62.3857421875 c 6,10,-1
 1206.04199219 -9.9189453125 l 5,11,-1
 960.73046875 -9.9189453125 l 5,0,1
470.73046875 -9.9189453125 m 5,12,13
 125.581054688 466 125.581054688 466 126.541992188 538.243164062 c 4,14,15
 126.581054688 622 126.581054688 622 470.686523438 1097.07910156 c 5,16,-1
 715.869140625 1097.07910156 l 5,17,-1
 665.768554688 1024.84667969 l 6,18,19
 385.581054688 621 385.581054688 621 385.002929688 537.725585938 c 4,20,21
 384.581054688 466.057617188 384.581054688 466.057617188 665.690429688 62.3857421875 c 6,22,-1
 716.041992188 -9.9189453125 l 5,23,-1
 470.73046875 -9.9189453125 l 5,12,13
EndSplineSet
EndChar

StartChar: guillemotright
Encoding: 187 187 285
Width: 1340
VWidth: 3386
Flags: W
LayerCount: 2
Fore
SplineSet
371.850585938 -9.9189453125 m 5,0,1
 126.5390625 -9.9189453125 l 5,2,-1
 176.890625 62.3857421875 l 6,3,4
 457.999662108 466.057447142 457.999662108 466.057447142 457.578125 537.725585938 c 4,5,6
 457 621 457 621 176.8125 1024.84667969 c 6,7,-1
 126.711914062 1097.07910156 l 5,8,-1
 371.89453125 1097.07910156 l 5,9,10
 716 622 716 622 716.0390625 538.243164062 c 4,11,12
 717 466 717 466 371.850585938 -9.9189453125 c 5,0,1
861.850585938 -9.9189453125 m 5,13,-1
 616.5390625 -9.9189453125 l 5,14,-1
 666.890625 62.3857421875 l 6,15,16
 947.999662108 466.057447142 947.999662108 466.057447142 947.578125 537.725585938 c 4,17,18
 947 621 947 621 666.8125 1024.84667969 c 6,19,-1
 616.711914062 1097.07910156 l 5,20,-1
 861.89453125 1097.07910156 l 5,21,22
 1206 622 1206 622 1206.0390625 538.243164062 c 4,23,24
 1207 466 1207 466 861.850585938 -9.9189453125 c 5,13,-1
EndSplineSet
EndChar

StartChar: exclam
Encoding: 33 33 294
Width: 713
VWidth: 9
Flags: W
LayerCount: 2
Fore
SplineSet
180.665039062 175.999023438 m 128,-1,1
 180.665039062 249.598632812 180.665039062 249.598632812 231.864257812 300.797851562 c 128,-1,2
 283.064453125 351.998046875 283.064453125 351.998046875 356.6640625 351.998046875 c 128,-1,3
 430.263671875 351.998046875 430.263671875 351.998046875 481.462890625 300.797851562 c 128,-1,4
 532.663085938 249.598632812 532.663085938 249.598632812 532.663085938 175.999023438 c 128,-1,5
 532.663085938 102.399414062 532.663085938 102.399414062 481.462890625 51.19921875 c 128,-1,6
 430.263671875 0 430.263671875 0 356.6640625 0 c 128,-1,7
 283.064453125 0 283.064453125 0 231.864257812 51.19921875 c 128,-1,0
 180.665039062 102.399414062 180.665039062 102.399414062 180.665039062 175.999023438 c 128,-1,1
450.784179688 619.147460938 m 2,8,9
 445.526620851 552.530273437 445.526620851 552.530273437 396.850585938 552.530273438 c 2,10,-1
 323.251953125 552.530273438 l 2,11,12
 268.538858883 553.003992672 268.538858883 553.003992672 262.481445312 619.794921875 c 2,13,-1
 195.822265625 1354.79980469 l 6,14,15
 179.006808619 1542.92382812 179.006808619 1542.92382812 342 1542.92382812 c 6,16,-1
 370.6640625 1542.92382812 l 6,17,18
 523.696418558 1542.99984919 523.696418558 1542.99984919 508.890625 1355.39941406 c 6,19,-1
 450.784179688 619.147460938 l 2,8,9
EndSplineSet
EndChar

StartChar: period
Encoding: 46 46 295
Width: 711
VWidth: 3395
Flags: W
LayerCount: 2
Fore
SplineSet
179.998046875 175.999023438 m 128,-1,1
 179.998046875 249.598632812 179.998046875 249.598632812 231.197265625 300.797851562 c 128,-1,2
 282.397460938 351.998046875 282.397460938 351.998046875 355.997070312 351.998046875 c 128,-1,3
 429.596679688 351.998046875 429.596679688 351.998046875 480.795898438 300.797851562 c 128,-1,4
 531.995117188 249.598632812 531.995117188 249.598632812 531.995117188 175.999023438 c 128,-1,5
 531.995117188 102.399414062 531.995117188 102.399414062 480.795898438 51.19921875 c 128,-1,6
 429.596679688 0 429.596679688 0 355.997070312 0 c 128,-1,7
 282.397460938 0 282.397460938 0 231.197265625 51.19921875 c 128,-1,0
 179.998046875 102.399414062 179.998046875 102.399414062 179.998046875 175.999023438 c 128,-1,1
EndSplineSet
EndChar

StartChar: colon
Encoding: 58 58 296
Width: 712
VWidth: 3395
Flags: W
LayerCount: 2
Fore
SplineSet
180.331054688 1018.66015625 m 128,-1,1
 180.331054688 1092.25976562 180.331054688 1092.25976562 231.53125 1143.45996094 c 128,-1,2
 282.73046875 1194.65917969 282.73046875 1194.65917969 356.330078125 1194.65917969 c 128,-1,3
 429.9296875 1194.65917969 429.9296875 1194.65917969 481.12890625 1143.45996094 c 128,-1,4
 532.329101562 1092.25976562 532.329101562 1092.25976562 532.329101562 1018.66015625 c 128,-1,5
 532.329101562 945.060546875 532.329101562 945.060546875 481.12890625 893.861328125 c 128,-1,6
 429.9296875 842.661132812 429.9296875 842.661132812 356.330078125 842.661132812 c 128,-1,7
 282.73046875 842.661132812 282.73046875 842.661132812 231.53125 893.861328125 c 128,-1,0
 180.331054688 945.060546875 180.331054688 945.060546875 180.331054688 1018.66015625 c 128,-1,1
180.331054688 175.999023438 m 128,-1,9
 180.331054688 249.598632812 180.331054688 249.598632812 231.53125 300.797851562 c 128,-1,10
 282.73046875 351.998046875 282.73046875 351.998046875 356.330078125 351.998046875 c 128,-1,11
 429.9296875 351.998046875 429.9296875 351.998046875 481.12890625 300.797851562 c 128,-1,12
 532.329101562 249.598632812 532.329101562 249.598632812 532.329101562 175.999023438 c 128,-1,13
 532.329101562 102.399414062 532.329101562 102.399414062 481.12890625 51.19921875 c 128,-1,14
 429.9296875 0 429.9296875 0 356.330078125 0 c 128,-1,15
 282.73046875 0 282.73046875 0 231.53125 51.19921875 c 128,-1,8
 180.331054688 102.399414062 180.331054688 102.399414062 180.331054688 175.999023438 c 128,-1,9
EndSplineSet
EndChar

StartChar: uniFDFC
Encoding: 65020 65020 297
Width: 2870
VWidth: 3741
Flags: W
LayerCount: 2
Fore
SplineSet
2610.49414062 707.1328125 m 0,0,1
 2759 470 2759 470 2763.97558594 302.203125 c 0,2,3
 2769 110 2769 110 2674 -50 c 0,4,5
 2534.55894192 -281.718228868 2534.55894192 -281.718228868 2198 -388 c 0,6,7
 2177 -395 2177 -395 2162.39941406 -374.600585938 c 0,8,9
 2095.46078905 -280.627543699 2095.46078905 -280.627543699 2058.60546875 -184.803710938 c 0,10,11
 2047 -154 2047 -154 2084.13378906 -146.202148438 c 0,12,13
 2495.73586068 -56.7097044109 2495.73586068 -56.7097044109 2543.55859375 178.208984375 c 0,14,15
 2555 235 2555 235 2402.19726562 501.260742188 c 1,16,17
 2482 606 2482 606 2562.46191406 711.203125 c 0,18,19
 2587 743 2587 743 2610.49414062 707.1328125 c 0,0,1
2047.44824219 343.330078125 m 1,20,-1
 2218.10839844 172.669921875 l 1,21,-1
 2047.44824219 2.0068359375 l 1,22,-1
 1888.68457031 160.7734375 l 1,23,-1
 1729.91992188 2.0068359375 l 1,24,-1
 1559.25976562 172.669921875 l 1,25,-1
 1729.91992188 343.330078125 l 1,26,-1
 1888.68457031 184.56640625 l 1,27,-1
 2047.44824219 343.330078125 l 1,20,-1
2065.19921875 817.217773438 m 0,28,29
 2084 842 2084 842 2068.13769531 881.365234375 c 0,30,31
 2040 951 2040 951 2014.375 1031.26660156 c 1,32,-1
 2125.75 1171.41992188 l 2,33,34
 2164 1219 2164 1219 2185.38085938 1199 c 0,35,36
 2191 1194 2191 1194 2194.35449219 1187.49804688 c 0,37,38
 2284 1021 2284 1021 2274.375 827.397460938 c 0,39,40
 2266 656 2266 656 2158.71386719 559.75390625 c 0,41,42
 2041.21041817 453.190826807 2041.21041817 453.190826807 1921.74511719 453.330078125 c 2,43,-1
 1760.88671875 453.517578125 l 2,44,45
 1612 454 1612 454 1517.37207031 555.19140625 c 0,46,47
 1431 649 1431 649 1433.72949219 1007.72558594 c 0,48,49
 1437 1329 1437 1329 1412.015625 1443.97851562 c 1,50,-1
 1598 1530.81019306 l 2,51,52
 1642.05906547 1551.38032192 1642.05906547 1551.38032192 1641.72363281 1507.05664062 c 6,53,-1
 1639.15625 1167.80566406 l 0,54,55
 1636 878 1636 878 1681.55078125 808.68359375 c 0,56,57
 1715.82886501 756.26171875 1715.82886501 756.26171875 1854.11035156 756.26171875 c 2,58,-1
 1918.78125 756.26171875 l 2,59,60
 2019 756 2019 756 2065.19921875 817.217773438 c 0,28,29
1234.16699219 342.814453125 m 0,61,62
 1204 64 1204 64 1015.34863281 -74.02734375 c 0,63,64
 890 -165 890 -165 710.852539062 -164.65625 c 0,65,66
 457 -164 457 -164 336.06640625 -32.4033203125 c 0,67,68
 215 100 215 100 215.264648438 319.998046875 c 0,69,70
 216 541 216 541 322.430664062 775.081054688 c 1,71,-1
 449.387695312 733.666015625 l 1,72,73
 342 391 342 391 457.2421875 248.737304688 c 0,74,75
 541 146 541 146 713.591796875 147.262695312 c 0,76,77
 935 149 935 149 1012.59375 274.9375 c 0,78,79
 1044 326 1044 326 1041.38476562 419.935546875 c 0,80,81
 1031 723 1031 723 970.811523438 1432.48144531 c 1,82,-1
 1161.7265625 1516.671875 l 2,83,84
 1206.10933425 1536.04773124 1206.10933425 1536.04773124 1208.08105469 1480.390625 c 2,85,-1
 1228.57421875 901.916015625 l 1,86,87
 1231 775 1231 775 1236.40429688 594.002929688 c 0,88,89
 1242 412 1242 412 1234.16699219 342.814453125 c 0,61,62
EndSplineSet
EndChar

StartChar: uniFD3E
Encoding: 64830 64830 299
Width: 1478
VWidth: 10
Flags: W
LayerCount: 2
Fore
SplineSet
772.205078125 724.634765625 m 0,0,1
 703.193359375 724.634765625 703.193359375 724.634765625 703.193359375 661.3828125 c 0,2,3
 703.193359375 618.80078125 703.193359375 618.80078125 742.145507812 602.638671875 c 0,4,5
 753.012695312 598.129882812 753.012695312 598.129882812 766.155273438 598.129882812 c 0,6,7
 829.69921875 598.129882812 829.69921875 598.129882812 829.69921875 671.806640625 c 0,8,9
 829.69921875 694.623046875 829.69921875 694.623046875 808.107421875 709.62890625 c 128,-1,10
 786.516601562 724.634765625 786.516601562 724.634765625 772.205078125 724.634765625 c 0,0,1
864.408203125 832.228515625 m 0,11,12
 963.03125 774.65625 963.03125 774.65625 963.03125 649.001953125 c 0,13,14
 963.03125 580.009765625 963.03125 580.009765625 905.42578125 522.404296875 c 128,-1,15
 847.8203125 464.796875 847.8203125 464.796875 766.446289062 464.796875 c 128,-1,16
 685.071289062 464.796875 685.071289062 464.796875 627.465820312 522.403320312 c 128,-1,17
 569.861328125 580.0078125 569.861328125 580.0078125 569.861328125 661.3828125 c 128,-1,18
 569.861328125 742.766601562 569.861328125 742.766601562 627.466796875 800.362304688 c 128,-1,19
 685.071289062 857.967773438 685.071289062 857.967773438 752.69140625 857.967773438 c 128,-1,20
 820.310546875 857.967773438 820.310546875 857.967773438 864.408203125 832.228515625 c 0,11,12
720.759765625 197.036132812 m 0,21,22
 775.326171875 -44.2021484375 775.326171875 -44.2021484375 937.100585938 -215.504882812 c 2,23,-1
 979.188476562 -260.072265625 l 1,24,-1
 954.627929688 -203.907226562 l 2,25,26
 867.194335938 -4.2666015625 867.194335938 -4.2666015625 833.46875 194.563476562 c 0,27,28
 827.66796875 228.616210938 827.66796875 228.616210938 852.03515625 252.982421875 c 2,29,-1
 893.502929688 294.450195312 l 2,30,31
 913.447265625 313.9765625 913.447265625 313.9765625 940.643554688 313.9765625 c 2,32,-1
 1121.3828125 313.9765625 l 1,33,-1
 1121.3828125 1025.34277344 l 1,34,-1
 940.643554688 1025.34277344 l 2,35,36
 913.309570312 1025.0625 913.309570312 1025.0625 893.502929688 1044.86914062 c 2,37,-1
 848.9921875 1089.37988281 l 2,38,39
 824.528320312 1113.59277344 824.528320312 1113.59277344 830.302734375 1147.04199219 c 0,40,41
 870.439453125 1392.26464844 870.439453125 1392.26464844 968.153320312 1608.12109375 c 2,42,-1
 992.721679688 1662.39453125 l 1,43,-1
 950.848632812 1620.01660156 l 2,44,45
 773.821289062 1440.53515625 773.821289062 1440.53515625 710.297851562 1133.72753906 c 0,46,47
 706.26953125 1113.23925781 706.26953125 1113.23925781 691.915039062 1098.88574219 c 2,48,-1
 637.8984375 1044.86914062 l 2,49,50
 618.936523438 1025.34277344 618.936523438 1025.34277344 590.7578125 1025.34277344 c 2,51,-1
 410.018554688 1025.34277344 l 1,52,-1
 410.018554688 844.6015625 l 2,53,54
 409.58984375 816.55859375 409.58984375 816.55859375 390.4921875 797.461914062 c 2,55,-1
 262.689453125 669.659179688 l 1,56,-1
 390.491210938 541.858398438 l 2,57,58
 410.018554688 522.240234375 410.018554688 522.240234375 410.018554688 494.717773438 c 2,59,-1
 410.018554688 313.9765625 l 1,60,-1
 590.7578125 313.9765625 l 2,61,62
 618.75 313.596679688 618.75 313.596679688 637.897460938 294.450195312 c 2,63,-1
 702.876953125 229.473632812 l 2,64,65
 716.795898438 215.46484375 716.795898438 215.46484375 720.759765625 197.036132812 c 0,21,22
595.111328125 148.676757812 m 1,66,-1
 563.14453125 180.643554688 l 1,67,-1
 343.3515625 180.643554688 l 2,68,69
 319.998046875 180.265625 319.998046875 180.265625 297.857421875 200.02734375 c 0,70,71
 276.685546875 218.301757812 276.685546875 218.301757812 276.685546875 247.309570312 c 2,72,-1
 276.685546875 467.104492188 l 1,73,-1
 121.268554688 622.517578125 l 2,74,75
 73.966796875 669.498046875 73.966796875 669.498046875 121.268554688 716.799804688 c 2,76,-1
 276.685546875 872.215820312 l 1,77,-1
 276.685546875 1092.00878906 l 2,78,79
 276.264648438 1115.7265625 276.264648438 1115.7265625 295.694335938 1137.26464844 c 0,80,81
 314.91796875 1158.67480469 314.91796875 1158.67480469 343.3515625 1158.67480469 c 2,82,-1
 563.14453125 1158.67480469 l 1,83,-1
 583.202148438 1178.734375 l 1,84,85
 702.928710938 1771.72265625 702.928710938 1771.72265625 1197.37988281 1915.10742188 c 0,86,87
 1243.72558594 1928.52148438 1243.72558594 1928.52148438 1263.66796875 1881.65429688 c 0,88,89
 1273.59179688 1857.0546875 1273.59179688 1857.0546875 1264.06933594 1804.26367188 c 1,90,91
 1192.52636719 1739.72265625 1192.52636719 1739.72265625 1155.64160156 1676.62597656 c 0,92,93
 1118.92675781 1613.85644531 1118.92675781 1613.85644531 1101.62011719 1578.4921875 c 0,94,95
 1006.92675781 1383.45800781 1006.92675781 1383.45800781 967.353515625 1158.67480469 c 1,96,-1
 1188.04882812 1158.67480469 l 2,97,98
 1223.45898438 1158.39257812 1223.45898438 1158.39257812 1239.33398438 1135.01660156 c 0,99,100
 1254.71484375 1110.95410156 1254.71484375 1110.95410156 1254.71484375 1092.00878906 c 2,101,-1
 1254.71484375 247.309570312 l 2,102,103
 1254.39257812 223.999023438 1254.39257812 223.999023438 1235.70605469 202.055664062 c 0,104,105
 1217.3828125 180.643554688 1217.3828125 180.643554688 1188.04882812 180.643554688 c 2,106,-1
 971.369140625 180.643554688 l 1,107,108
 1052.79296875 -241.065429688 1052.79296875 -241.065429688 1258.48339844 -407.157226562 c 0,109,110
 1323.72460938 -459.73046875 1323.72460938 -459.73046875 1202.02050781 -524.26953125 c 1,111,112
 722.12890625 -382.930664062 722.12890625 -382.930664062 595.111328125 148.676757812 c 1,66,-1
EndSplineSet
EndChar

